<?xml version="1.0" encoding="utf-8"?>
<!-- Generator: Adobe Illustrator 21.1.0, SVG Export Plug-In . SVG Version: 6.00 Build 0)  -->
<svg version="1.1" id="f6dbc25d-61b7-4c3b-95d4-b3eecc3bdb6a"
	 xmlns="http://www.w3.org/2000/svg" xmlns:xlink="http://www.w3.org/1999/xlink" x="0px" y="0px" viewBox="0 0 500 500"
	 style="enable-background:new 0 0 500 500;" xml:space="preserve">
<style type="text/css">
	.st0{fill:#43A047;}
	.st1{fill:#6D4C41;}
	.st2{opacity:0.1;enable-background:new    ;}
	.st3{fill:#FF6F43;}
</style>
<g>
	<title>cabin</title>
	<polygon class="st0" points="430.1,382.7 430.1,382.7 430.1,382.7 430.1,382.7 430.1,330.2 430.1,276.9 250,78.6 69.9,276.9 
		69.9,330.2 69.9,382.7 69.9,382.7 69.9,405.3 210.4,405.3 250,364.2 289.6,405.3 430.1,405.3 	"/>
	<rect x="210.4" y="291.9" class="st1" width="79.2" height="113.4"/>
	<polygon class="st2" points="69.9,276.9 69.9,330.2 69.9,360 250,151 430.1,360 430.1,330.2 430.1,276.9 250,78.6 	"/>
	<path class="st3" d="M452.6,342.2L250,107.1L47.4,342.2l-34.7-29.9l220-255.2c8.3-9.6,22.7-10.6,32.3-2.4c0.8,0.7,1.6,1.5,2.4,2.4
		l220,255.2L452.6,342.2z"/>
	<path d="M8,317.7l34.7,29.9c3,2.5,7.5,2.2,10.1-0.8l9.9-11.5v69.9c0,4,3.2,7.2,7.2,7.2h360.3c4,0,7.2-3.2,7.2-7.2v-69.9l9.9,11.5
		c2.6,3,7.1,3.3,10.1,0.8l34.7-29.9c3-2.6,3.3-7.1,0.8-10.1c0,0,0,0,0,0l-220-255.2c-11.8-13.7-33.7-13.7-45.5,0L75,228.9
		c-6,7,4.8,16.4,10.8,9.3L238.1,61.7c5.8-6.6,15.8-7.2,22.4-1.4c0.5,0.5,1,0.9,1.4,1.4l215.2,249.8L453.3,332L255.4,102.4
		c-2.6-3-7.2-3.3-10.2-0.6c-0.2,0.2-0.4,0.4-0.6,0.6L46.6,332l-23.9-20.5L67.1,260c6-6.9-4.8-16.4-10.8-9.3l-49,56.9
		C4.7,310.6,5,315.1,8,317.7C8,317.7,8,317.7,8,317.7z M423,318.7v4.3H296.8v-31.2c0-4-3.2-7.2-7.2-7.2h-79.3c-4,0-7.2,3.2-7.2,7.2
		V323H77v-4.3l60.1-69.7h225.8L423,318.7z M423,359l-14.6-21.7H423V359z M296.8,337.3h14.6L296.8,359V337.3z M324.8,343l21.7,32.5
		H303L324.8,343z M338.1,337.3h43.5l-21.7,32.5L338.1,337.3z M395,343l21.7,32.5h-43.4L395,343z M203.2,359l-14.6-21.7h14.6V359z
		 M77,359v-21.7h14.6L77,359z M105,343l21.7,32.5H83.3L105,343z M118.4,337.2h43.4l-21.7,32.5L118.4,337.2z M175.2,343l21.7,32.5
		h-43.4L175.2,343z M77,389.8h126.2v8.3H77L77,389.8z M217.5,398.1v-15c0-0.1,0-0.2,0-0.4s0-0.2,0-0.2V299h64.9v99.1H217.5z
		 M296.8,398.1v-8.3H423v8.3H296.8z M350.6,234.7H149.4L250,118L350.6,234.7z"/>
</g>
</svg>
