<?xml version="1.0" encoding="utf-8"?>
<!-- Generator: Adobe Illustrator 21.1.0, SVG Export Plug-In . SVG Version: 6.00 Build 0)  -->
<svg version="1.1" id="Layer_1" xmlns="http://www.w3.org/2000/svg" xmlns:xlink="http://www.w3.org/1999/xlink" x="0px" y="0px"
	 viewBox="0 0 500 500" style="enable-background:new 0 0 500 500;" xml:space="preserve">
<style type="text/css">
	.st0{fill:#FFD41D;}
	.st1{fill:#FF991F;}
	.st2{fill:#92E03F;}
	.st3{fill:#0084FF;}
</style>
<g>
	<path class="st0" d="M89,253.3l158.4,158.4c7.6,7.6,20,7.6,27.6,0l0,0c7.6-7.6,7.6-20,0-27.6L264.8,374l9.7,9.7
		c7.8,7.8,20.5,7.8,28.3,0l0,0c8-8,7.8-21-0.4-28.7l-20.9-19.8l19.2,18.2c9.2,8.7,23.6,8.2,32.2-1.1l0,0c8.2-8.9,7.9-22.7-0.7-31.3
		l-20-20l19.9,19.9c8.5,8.5,22.3,8.5,30.7,0l0,0c8.5-8.5,8.5-22.4-0.1-30.8L247.8,176.5h-38.9L187.3,155L89,253.3z"/>
	<g>
		<path class="st1" d="M313.4,158l-18.6,18.6h-50.4l-54.2,54.2c-8.2,8.2-8.2,21.5,0,29.8l0,0c8.2,8.2,21.5,8.2,29.8,0l35-35l43,0.5
			l64.9,64l43.2-39.5L313.4,158z"/>
		<circle class="st1" cx="147.9" cy="312.2" r="23.2"/>
		<circle class="st1" cx="180.8" cy="345" r="23.2"/>
		<circle class="st1" cx="213.4" cy="377.8" r="23.2"/>
	</g>
	<path class="st2" d="M130.1,81.3L14.1,197.4l56.8,56.8c4.8,4.8,12.5,4.8,17.3,0l98.8-98.8c4.8-4.8,4.8-12.5,0-17.3L130.1,81.3z"/>
	<path class="st3" d="M369.6,81.3l116.1,116.1l-56.8,56.8c-4.8,4.8-12.5,4.8-17.3,0l-98.8-98.8c-4.8-4.8-4.8-12.5,0-17.3L369.6,81.3
		z"/>
	<path d="M492.6,190.6l-90.8-90.8c-3.7-3.7-9.8-3.7-13.6,0c-3.7,3.7-3.7,9.8,0,13.6l84.1,84.1l-49.1,49.1c-1.5,1.5-4,1.5-5.5,0
		l-97-97c-1.5-1.5-1.5-4,0-5.5l33-33c3.7-3.7,3.7-9.8,0-13.6c-3.7-3.7-9.8-3.7-13.6,0l-33,33c-6.8,6.8-8.5,16.9-4.9,25.3L291,167
		h-43h-3.4H213l-14.1-14.1c0.5-2,0.8-4,0.8-6.1c0-6.2-2.4-11.9-6.7-16.3l-32.1-32.1c-3.7-3.7-9.8-3.7-13.6,0
		c-3.7,3.7-3.7,9.8,0,13.6l32.1,32.1c1,1,1.1,2.1,1.1,2.7c0,0.6-0.1,1.7-1.1,2.7l-2.7,2.7l-94.4,94.4c0,0-0.1,0.1-0.1,0.1
		c-1,0.9-2,1-2.6,1c-0.6,0-1.7-0.1-2.7-1.1l-49.1-49.1l85.2-85.2c3.7-3.7,3.7-9.8,0-13.6s-9.8-3.7-13.6,0l-92,92
		c-3.7,3.7-3.7,9.8,0,13.6l55.9,55.9c4.5,4.5,10.4,6.7,16.3,6.7c2.7,0,5.4-0.5,8-1.4l31.5,31.5c-2.4,4.6-3.8,9.8-3.8,15.4
		c0,18.1,14.7,32.8,32.8,32.8c0,0,0.1,0,0.1,0c0,0,0,0,0,0c0,18,14.6,32.7,32.6,32.8c0,0,0,0,0,0c0,18.1,14.7,32.8,32.8,32.8
		c5.6,0,10.8-1.4,15.4-3.8l11.7,11.7c5.5,5.5,12.8,8.5,20.6,8.5c7.8,0,15.1-3,20.6-8.5c5.2-5.2,8.2-12,8.5-19.3
		c7.1-0.4,14.1-3.2,19.5-8.6c5.7-5.7,8.8-13.3,8.7-21.4c0,0,0,0,0-0.1c8.3-0.5,16-4.2,21.7-10.4c5.7-6.2,8.5-14,8.5-21.9
		c8-0.2,15.5-3.5,21.2-9.2c5.9-5.9,9.2-13.8,9.2-22.3c0-4.9-1.2-9.7-3.3-14l31.4-28.8c3.9,2.8,8.6,4.2,13.2,4.2
		c5.9,0,11.8-2.2,16.3-6.7l55.9-55.9C496.3,200.4,496.3,194.4,492.6,190.6z M294.9,186.1c2.5,0,5-1,6.8-2.8l12.8-12.8l78.8,78.8
		l-30.1,27.5l-58.4-57.6c0,0,0,0,0,0l-0.1-0.1c-2.2-2.1-5.1-3-7.9-2.7l-41.7-0.5c-2.6,0-5.1,1-6.9,2.8l-35,35
		c-2.2,2.2-5,3.4-8.1,3.4c-3.1,0-5.9-1.2-8.1-3.4c-2.2-2.2-3.4-5-3.4-8.1c0-3.1,1.2-5.9,3.4-8.1l51.4-51.4H294.9L294.9,186.1z
		 M134.5,312.2c0-7.5,6.1-13.6,13.6-13.6s13.6,6.1,13.6,13.6c0,7.5-6.1,13.6-13.6,13.6S134.5,319.7,134.5,312.2z M180.9,358.6
		c-7.5,0-13.6-6.1-13.6-13.6s6.1-13.6,13.6-13.6s13.6,6.1,13.6,13.6c0,3.5-1.3,6.6-3.5,9c-0.4,0.4-0.8,0.7-1.1,1.1
		C187.5,357.3,184.4,358.6,180.9,358.6z M200,377.8c0-3.5,1.3-6.6,3.5-9c0.4-0.4,0.8-0.7,1.1-1.1c2.4-2.1,5.5-3.4,9-3.4
		c7.5,0,13.6,6.1,13.6,13.6c0,3.7-1.5,7-3.9,9.5c0,0-0.1,0.1-0.1,0.1c0,0-0.1,0.1-0.1,0.1c-2.5,2.4-5.8,3.9-9.5,3.9
		C206.1,391.4,200,385.3,200,377.8z M356.3,314.1c-2.3,2.3-5.3,3.6-8.6,3.6c-3.2,0-6.3-1.3-8.6-3.6l-19.9-19.9
		c-3.7-3.7-9.8-3.7-13.6,0c-3.7,3.7-3.7,9.8,0,13.6l19.9,19.9c0,0,0,0,0,0l0.1,0.1c4.9,4.9,5.1,12.8,0.4,18
		c-2.4,2.6-5.6,4.1-9.1,4.2c-3.5,0.1-6.8-1.1-9.4-3.6l-19.2-18.2c-3.8-3.6-9.9-3.5-13.6,0.4c-3.6,3.8-3.5,9.9,0.4,13.6L296,362
		c2.1,2,3.2,4.6,3.3,7.4c0,2.8-1,5.5-3.1,7.5c-4.1,4.1-10.7,4.1-14.8,0l-9.7-9.7c-3.7-3.7-9.8-3.7-13.6,0c-1.9,1.9-2.8,4.3-2.8,6.8
		c0,2.5,0.9,4.9,2.8,6.8l10.1,10.1c1.9,1.9,2.9,4.4,2.9,7c0,2.6-1,5.1-2.9,7c-1.9,1.9-4.4,2.9-7,2.9c-2.6,0-5.1-1-7-2.9l-11.7-11.7
		c2.4-4.6,3.8-9.8,3.8-15.4c0-18-14.6-32.7-32.7-32.8c0,0,0,0,0,0c0-18.1-14.7-32.8-32.8-32.8c0,0-0.1,0-0.1,0c0,0,0,0,0,0
		c0-18.1-14.7-32.8-32.8-32.8c-5.6,0-10.8,1.4-15.4,3.8l-30-30l84.8-84.8l14.8,14.8c1.8,1.8,4.2,2.8,6.8,2.8h12.4L183.6,224
		c-5.8,5.8-9,13.5-9,21.7c0,8.2,3.2,15.9,9,21.7c5.8,5.8,13.5,9,21.7,9c8.2,0,15.9-3.2,21.7-9l32.1-32.1l35.1,0.4l62.1,61.3
		c2.3,2.3,3.6,5.3,3.6,8.6C359.9,308.8,358.6,311.8,356.3,314.1z"/>
	<circle cx="424.8" cy="201.8" r="9.6"/>
	<circle cx="74.3" cy="202.8" r="9.6"/>
	<circle cx="130.3" cy="83.4" r="9.6"/>
	<circle cx="369.6" cy="82.6" r="9.6"/>
</g>
</svg>
