<?xml version="1.0" encoding="utf-8"?>
<!-- Generator: Adobe Illustrator 21.1.0, SVG Export Plug-In . SVG Version: 6.00 Build 0)  -->
<svg version="1.1" id="Capa_1" xmlns="http://www.w3.org/2000/svg" xmlns:xlink="http://www.w3.org/1999/xlink" x="0px" y="0px"
	 viewBox="0 0 500 500" style="enable-background:new 0 0 500 500;" xml:space="preserve">
<style type="text/css">
	.st0{fill:#185F8D;}
	.st1{fill:#98D9D5;}
	.st2{fill:#FFCC75;}
	.st3{fill:#082947;}
</style>
<g>
	<path class="st0" d="M91.6,325.8c-15.8,0-28.6,12.8-28.6,28.6S75.8,383,91.6,383s28.6-12.8,28.6-28.6S107.3,325.8,91.6,325.8z"/>
	<path class="st0" d="M418.8,325.8c-15.8,0-28.6,12.8-28.6,28.6S403,383,418.8,383c15.8,0,28.6-12.8,28.6-28.6
		S434.5,325.8,418.8,325.8z"/>
	<rect x="359.1" y="148.2" class="st1" width="15.6" height="59.2"/>
	<rect x="291.6" y="148.2" class="st1" width="51.9" height="59.2"/>
	<path class="st1" d="M276,148.2H224V184c0,4.3-3.5,7.8-7.8,7.8s-7.8-3.5-7.8-7.8v-35.8h-51.9V184c0,4.3-3.5,7.8-7.8,7.8
		c-4.3,0-7.8-3.5-7.8-7.8v-35.8H89V184c0,4.3-3.5,7.8-7.8,7.8c-4.3,0-7.8-3.5-7.8-7.8v-35.8H21.5v59.2H276V148.2z"/>
	<rect x="291.6" y="223" class="st1" width="51.9" height="123.7"/>
	<path class="st2" d="M159.1,346.6H276V223H21.5v123.7h26.7c3.7-20.6,21.8-36.4,43.4-36.4c24.3,0,44.1,19.8,44.1,44.1h15.6
		C151.3,350.1,154.8,346.6,159.1,346.6z M81.2,254.1H44.8c-4.3,0-7.8-3.5-7.8-7.8c0-4.3,3.5-7.8,7.8-7.8h36.4c4.3,0,7.8,3.5,7.8,7.8
		C89,250.6,85.5,254.1,81.2,254.1z M112.4,254.1c-4.3,0-7.8-3.5-7.8-7.8c0-4.3,3.5-7.8,7.8-7.8h140.2c4.3,0,7.8,3.5,7.8,7.8
		c0,4.3-3.5,7.8-7.8,7.8H112.4z"/>
	<path class="st2" d="M465.5,292.9h13v-15.6h-13c-4.3,0-7.8-3.5-7.8-7.8c0-4.3,3.5-7.8,7.8-7.8h11.8c-3.2-10.7-12.5-20.2-23.1-22.6
		L381.6,223h-22.5v123.7h16.3c3.7-20.6,21.8-36.4,43.4-36.4c21.7,0,39.8,15.7,43.4,36.4h16.3v-38.1h-13c-4.3,0-7.8-3.5-7.8-7.8
		C457.8,296.4,461.2,292.9,465.5,292.9z"/>
	<path class="st2" d="M373.3,132.6c-3.2-9.1-11.9-15.6-22-15.6H44.8c-10.2,0-18.8,6.5-22,15.6H373.3z"/>
	<path class="st3" d="M457.6,224l-67.4-15.1v-68.5c0-21.5-17.5-39-39-39H44.8c-21.5,0-39,17.5-39,39v214c0,4.3,3.5,7.8,7.8,7.8h34.5
		c3.7,20.6,21.8,36.4,43.4,36.4c24.3,0,44.1-19.8,44.1-44.1s-19.8-44.1-44.1-44.1c-21.7,0-39.8,15.7-43.4,36.4H21.5V223H276v123.7
		H159.1c-4.3,0-7.8,3.5-7.8,7.8c0,4.3,3.5,7.8,7.8,7.8h216.2c3.7,20.6,21.8,36.4,43.4,36.4c21.7,0,39.8-15.7,43.4-36.4h24.1
		c4.3,0,7.8-3.5,7.8-7.8v-84.9C494.1,248.9,477.7,228.5,457.6,224z M465.5,308.5h13v38.1h-16.3c-3.7-20.6-21.8-36.4-43.4-36.4
		c-21.7,0-39.8,15.7-43.4,36.4h-16.3V223h22.5l72.6,16.2c10.6,2.4,19.9,11.9,23.1,22.6h-11.8c-4.3,0-7.8,3.5-7.8,7.8
		c0,4.3,3.5,7.8,7.8,7.8h13v15.6h-13c-4.3,0-7.8,3.5-7.8,7.8C457.8,305,461.2,308.5,465.5,308.5z M418.8,383
		c-15.8,0-28.6-12.8-28.6-28.6s12.8-28.6,28.6-28.6c15.8,0,28.6,12.8,28.6,28.6S434.5,383,418.8,383z M44.8,117h306.4
		c10.2,0,18.8,6.5,22,15.6H22.8C26,123.6,34.7,117,44.8,117z M374.7,148.2v59.2h-15.6v-59.2H374.7z M21.5,148.2h51.9V184
		c0,4.3,3.5,7.8,7.8,7.8c4.3,0,7.8-3.5,7.8-7.8v-35.8h51.9V184c0,4.3,3.5,7.8,7.8,7.8c4.3,0,7.8-3.5,7.8-7.8v-35.8h51.9V184
		c0,4.3,3.5,7.8,7.8,7.8s7.8-3.5,7.8-7.8v-35.8H276v59.2H21.5V148.2z M291.6,148.2h51.9v59.2h-51.9V148.2z M343.5,223v123.7h-51.9
		V223H343.5z M91.6,383C75.8,383,63,370.1,63,354.4s12.8-28.6,28.6-28.6s28.6,12.8,28.6,28.6S107.3,383,91.6,383z"/>
	<path class="st3" d="M260.4,246.3c0-4.3-3.5-7.8-7.8-7.8H112.4c-4.3,0-7.8,3.5-7.8,7.8c0,4.3,3.5,7.8,7.8,7.8h140.2
		C256.9,254.1,260.4,250.6,260.4,246.3z"/>
	<path class="st3" d="M81.2,238.5H44.8c-4.3,0-7.8,3.5-7.8,7.8c0,4.3,3.5,7.8,7.8,7.8h36.4c4.3,0,7.8-3.5,7.8-7.8
		C89,242,85.5,238.5,81.2,238.5z"/>
</g>
</svg>
