<?xml version="1.0" encoding="utf-8"?>
<!-- Generator: Adobe Illustrator 21.1.0, SVG Export Plug-In . SVG Version: 6.00 Build 0)  -->
<svg version="1.1" id="Layer_1" xmlns="http://www.w3.org/2000/svg" xmlns:xlink="http://www.w3.org/1999/xlink" x="0px" y="0px"
	 viewBox="0 0 500 500" style="enable-background:new 0 0 500 500;" xml:space="preserve">
<style type="text/css">
	.st0{fill:#FFC02C;}
	.st1{fill:#87A1FF;}
	.st2{fill:#28749E;}
	.st3{fill:#183244;}
</style>
<g>
	<path class="st0" d="M489.7,87.3v100.2c0,11.5-9.3,20.8-20.8,20.8h-62.5v260.5c0,11.5-9.3,20.8-20.8,20.8H114.5
		c-11.5,0-20.8-9.3-20.8-20.8V208.3H31.2c-11.5,0-20.8-9.3-20.8-20.8V87.3c0-8.7,5.4-16.5,13.5-19.5l69.8-26.2h31.3h20.8h208.4h31.3
		h20.8l69.8,26.2C484.3,70.8,489.7,78.6,489.7,87.3z"/>
	<path class="st1" d="M489.7,104.1v83.4c0,11.5-9.3,20.8-20.8,20.8h-62.5v114.6L239.6,489.7H114.5c-11.5,0-20.8-9.3-20.8-20.8v-41.7
		l323.1-323.1L489.7,104.1L489.7,104.1z M187.5,93.7h41.7v72.9c0,5.8,4.7,10.4,10.4,10.4h20.8c5.8,0,10.4-4.7,10.4-10.4V93.7h41.7
		c23,0,41.7-18.7,41.7-41.7V20.7c0-5.8-4.7-10.4-10.4-10.4H156.2c-5.8,0-10.4,4.7-10.4,10.4V52C145.8,75,164.5,93.7,187.5,93.7z"/>
	<path class="st2" d="M23.8,67.8l69.8-26.2v166.7H31.2c-11.5,0-20.8-9.3-20.8-20.8V87.3C10.3,78.6,15.7,70.8,23.8,67.8z M476.2,67.8
		l-69.8-26.2v166.7h62.5c11.5,0,20.8-9.3,20.8-20.8V87.3C489.7,78.6,484.3,70.8,476.2,67.8z M343.8,10.3H250v52.1v31.3v83.4h10.4
		c5.8,0,10.4-4.7,10.4-10.4V93.7h41.7c23,0,41.7-18.7,41.7-41.7V20.7C354.2,15,349.5,10.3,343.8,10.3z"/>
	<path class="st3" d="M250,93.7L250,93.7c-31.7,0-57.3-25.7-57.3-57.3V10.3h114.6v26.1C307.3,68,281.7,93.7,250,93.7z"/>
	<path d="M478.9,60.5l-69.8-26.2c-0.1,0-0.1,0-0.2,0c-0.2-0.1-0.3-0.1-0.5-0.1c-0.1,0-0.2-0.1-0.3-0.1c-0.1,0-0.3-0.1-0.4-0.1
		c-0.1,0-0.3,0-0.4-0.1c-0.1,0-0.2,0-0.3,0c-0.2,0-0.3,0-0.5,0c-0.1,0-0.1,0-0.2,0H362v-13c0-10.1-8.2-18.2-18.2-18.2H156.2
		c-10.1,0-18.2,8.2-18.2,18.2v13H93.7c-0.1,0-0.1,0-0.2,0c-0.2,0-0.3,0-0.5,0c-0.1,0-0.2,0-0.4,0c-0.1,0-0.3,0-0.4,0.1
		c-0.1,0-0.3,0.1-0.4,0.1c-0.1,0-0.2,0.1-0.3,0.1c-0.2,0-0.3,0.1-0.5,0.1c-0.1,0-0.1,0-0.2,0L21.1,60.5C10,64.6,2.5,75.4,2.5,87.3
		v100.2c0,15.8,12.9,28.7,28.7,28.7h54.7v211v0v41.7c0,15.8,12.9,28.7,28.7,28.7h270.9c15.8,0,28.7-12.9,28.7-28.7V322.9v0V216.1
		h54.7c15.8,0,28.7-12.9,28.7-28.7V87.3C497.5,75.4,490,64.6,478.9,60.5z M346.4,20.7V52c0,18.7-15.2,33.9-33.9,33.9h-20.3
		c14-12,22.9-29.7,22.9-49.5V18.1h28.7C345.2,18.1,346.4,19.3,346.4,20.7z M237,101.5H263v65.1c0,1.4-1.2,2.6-2.6,2.6h-20.8
		c-1.4,0-2.6-1.2-2.6-2.6L237,101.5L237,101.5z M200.5,18.1h99v18.2c0,27.3-22.2,49.5-49.5,49.5s-49.5-22.2-49.5-49.5V18.1z
		 M153.6,20.7c0-1.4,1.2-2.6,2.6-2.6h28.7v18.2c0,19.8,8.9,37.5,22.9,49.5h-20.3c-18.7,0-33.9-15.2-33.9-33.9V20.7z M31.2,200.5
		c-7.2,0-13-5.8-13-13V87.3c0-5.4,3.4-10.3,8.5-12.2l59.3-22.2v147.6H31.2z M385.5,481.9H114.5c-7.2,0-13-5.8-13-13v-38.4l227-227
		c3.1-3.1,3.1-8,0-11.1c-3.1-3.1-8-3.1-11.1,0L101.5,408.3V49.4H138V52c0,27.3,22.2,49.5,49.5,49.5h33.9v65.1
		c0,10.1,8.2,18.2,18.2,18.2h20.8c10.1,0,18.2-8.2,18.2-18.2v-65.1h33.9c27.3,0,49.5-22.2,49.5-49.5v-2.6h36.5v270.3L286.2,432.1
		c-3.1,3.1-3.1,8,0,11.1c1.5,1.5,3.5,2.3,5.5,2.3s4-0.8,5.5-2.3l101.3-101.3v127C398.5,476,392.7,481.9,385.5,481.9z M481.9,187.5
		c0,7.2-5.8,13-13,13h-54.7V52.9l59.3,22.2c5.1,1.9,8.5,6.8,8.5,12.2L481.9,187.5L481.9,187.5z M276.4,452.9c3.1,3.1,3.1,8,0,11.1
		l-1.1,1.1c-1.5,1.5-3.5,2.3-5.5,2.3c-2,0-4-0.8-5.5-2.3c-3.1-3.1-3.1-8,0-11.1l1.1-1.1C268.4,449.8,273.3,449.8,276.4,452.9z
		 M338.3,182.6c-3.1-3.1-3.1-8,0-11.1l1.1-1.1c3.1-3.1,8-3.1,11.1,0c3.1,3.1,3.1,8,0,11.1l-1.1,1.1c-1.5,1.5-3.5,2.3-5.5,2.3
		S339.8,184.1,338.3,182.6z"/>
</g>
</svg>
