<?xml version="1.0" encoding="utf-8"?>
<!-- Generator: Adobe Illustrator 21.1.0, SVG Export Plug-In . SVG Version: 6.00 Build 0)  -->
<svg version="1.1" id="Layer_1" xmlns="http://www.w3.org/2000/svg" xmlns:xlink="http://www.w3.org/1999/xlink" x="0px" y="0px"
	 viewBox="0 0 500 500" style="enable-background:new 0 0 500 500;" xml:space="preserve">
<style type="text/css">
	.st0{fill:#92E03F;}
	.st1{fill:#0084FF;}
	.st2{fill:#F2427F;}
	.st3{fill:#FFD41D;}
</style>
<g>
	<rect x="185.5" y="381" class="st0" width="129" height="105.9"/>
	<rect x="56.4" y="416.7" class="st1" width="129" height="70.2"/>
	<rect x="314.5" y="441.5" class="st2" width="129" height="45.3"/>
	<g>
		<path class="st3" d="M250,85.9L250,85.9c-43.2,0-78.1,33.9-78.1,75.8v72.5c0,18.3,15.3,33.1,34.1,33.1h5V381h79.4V267.2h3.7
			c18.8,0,34.1-14.8,34.1-33.1v-72.5C328.1,119.8,293.2,85.9,250,85.9z"/>
		<circle class="st3" cx="247.6" cy="49.5" r="36.4"/>
	</g>
	<path d="M443.6,431.9H324.2V381c0-5.3-4.3-9.6-9.6-9.6H300v-94.9c21.3-2.8,37.8-20.7,37.8-42.3v-72.5c0-36.6-23.8-68-57.2-80.1
		c8.1-8.3,13.1-19.6,13.1-32.1c0-25.4-20.6-46-46-46c-25.4,0-46,20.6-46,46c0,13.2,5.6,25,14.4,33.4c-31.6,12.9-53.8,43.4-53.8,78.8
		v72.5c0,22,17.1,40.2,39.1,42.5v94.7h-15.8c-5.3,0-9.6,4.3-9.6,9.6v26.1H56.4c-5.3,0-9.6,4.3-9.6,9.6v70.2c0,5.3,4.3,9.6,9.6,9.6
		h387.1c5.3,0,9.6-4.3,9.6-9.6v-45.3C453.2,436.2,448.9,431.9,443.6,431.9z M247.6,22.8c14.8,0,26.8,12,26.8,26.8
		s-12,26.8-26.8,26.8c-14.8,0-26.8-12-26.8-26.8S232.9,22.8,247.6,22.8z M210.9,154.6c-5.3,0-9.6,4.3-9.6,9.6v93
		c-11.3-2.1-19.8-11.6-19.8-23v-72.5c0-36.5,30.7-66.1,68.5-66.1s68.5,29.7,68.5,66.1v72.5c0,11-7.9,20.2-18.6,22.8v-92.7
		c0-5.3-4.3-9.6-9.6-9.6s-9.6,4.3-9.6,9.6v207.1h-20.4V261.9c0-5.3-4.3-9.6-9.6-9.6c-5.3,0-9.6,4.3-9.6,9.6v109.5h-20.4V164.2
		C220.6,158.9,216.2,154.6,210.9,154.6z M66.1,426.3h109.8v50.9H66.1V426.3z M195.1,416.7v-26.1h109.8v50.9v35.7H195.1V416.7z
		 M433.9,477.2H324.2v-26.1h109.8V477.2z"/>
</g>
</svg>
