<?xml version="1.0" encoding="utf-8"?>
<!-- Generator: Adobe Illustrator 21.1.0, SVG Export Plug-In . SVG Version: 6.00 Build 0)  -->
<svg version="1.1" id="Layer_1" xmlns="http://www.w3.org/2000/svg" xmlns:xlink="http://www.w3.org/1999/xlink" x="0px" y="0px"
	 viewBox="0 0 500 500" style="enable-background:new 0 0 500 500;" xml:space="preserve">
<style type="text/css">
	.st0{fill:#FF991F;}
	.st1{fill:#FFD41D;}
</style>
<g>
	<g>
		<path class="st0" d="M429.6,237.7c-0.1-47.5-39.9-86-88.9-85.9l0,0c-49,0.1-88.7,38.7-88.6,86.3l0.2,82.3
			c0,20.8,17.4,37.5,38.8,37.5l5.6,0L297,487l90.2-0.2l-0.3-129.2l4.2,0c21.4,0,38.7-16.9,38.7-37.7L429.6,237.7z"/>
		<path class="st0" d="M150.9,151.8L150.9,151.8c-49,0-88.7,38.5-88.7,86.1v82.3c0,20.8,17.3,37.6,38.7,37.6h5.6v129.2h90.2V357.7
			h4.2c21.4,0,38.7-16.8,38.7-37.6v-82.3C239.7,190.3,199.9,151.8,150.9,151.8z"/>
		<circle class="st0" cx="337.9" cy="110.4" r="41.3"/>
		<circle class="st0" cx="148.2" cy="110.4" r="41.3"/>
	</g>
	<circle cx="428.8" cy="329.1" r="9.6"/>
	<circle cx="62.2" cy="329.1" r="9.6"/>
	<g>
		<path class="st1" d="M245.3,106.8L245.3,106.8c-55.6,0-100.6,43.7-100.6,97.6v93.3c0,23.5,19.7,42.6,43.9,42.6h6.4v146.5h102.3
			V340.4h4.8c24.3,0,43.9-19.1,43.9-42.6v-93.3C346,150.5,300.9,106.8,245.3,106.8z"/>
		<circle class="st1" cx="242.3" cy="60" r="46.9"/>
	</g>
	<path d="M479.5,477.3h-82.7l-0.5-236.7c0-5.3-4.3-9.6-9.6-9.6c0,0,0,0,0,0c-5.3,0-9.6,4.3-9.6,9.7l0.5,236.6h-28L349.3,372
		c0-5.3-4.3-9.6-9.6-9.6c0,0,0,0,0,0c-5.3,0-9.6,4.3-9.6,9.7l0.2,105.3h-23.4V349.8c27.3-2.4,48.7-24.8,48.7-52v-93.3
		c0-14.8-3.1-29.4-9.2-42.8c19,1.3,36.7,9,50.3,22.2c14.9,14.4,23.1,33.5,23.2,53.9l0.2,54.8c0,5.3,4.3,9.6,9.6,9.6c0,0,0,0,0,0
		c5.3,0,9.6-4.3,9.6-9.7l-0.2-54.8c-0.1-25.6-10.4-49.7-29.1-67.7c-10.7-10.3-23.4-17.9-37.2-22.6c9.8-9.3,15.9-22.5,15.9-37
		c-0.1-28.1-22.9-50.9-51-50.9c0,0-0.1,0-0.1,0c-8.2,0-16.3,2-23.5,5.8c-4.7,2.5-6.5,8.3-4.1,13c2.5,4.7,8.3,6.5,13,4.1
		c4.5-2.4,9.4-3.6,14.6-3.6c17.5,0,31.7,14.2,31.8,31.6c0,17.5-14.2,31.7-31.6,31.8c-0.4,0-0.8,0-1.2,0.1c-0.5,0-1,0-1.5,0.1
		c-13.9-19-33.5-32.9-55.7-39.9c11.8-10.4,19.3-25.6,19.3-42.5c0-31.2-25.4-56.5-56.5-56.5c-31.2,0-56.5,25.3-56.5,56.5
		c0,17.7,8.2,33.6,21,43.9c-20.4,7.4-38.3,20.6-51.3,38.3c-1.5-0.1-3-0.1-4.6-0.1c-0.7,0-1.4,0-2.2,0c-0.2,0-0.3,0-0.5,0
		c-17.5,0-31.7-14.2-31.7-31.7s14.2-31.7,31.7-31.7c5.3,0,10.5,1.3,15.1,3.8c4.7,2.5,10.5,0.8,13.1-3.9c2.5-4.7,0.8-10.5-3.9-13.1
		c-7.4-4-15.8-6.2-24.3-6.2c-28.1,0-51,22.9-51,51c0,15.3,6.8,29,17.5,38.4c-36.4,14-62.2,48.6-62.2,89v54.6c0,5.3,4.3,9.6,9.6,9.6
		s9.6-4.3,9.6-9.6v-54.6c0-39.9,31.9-72.8,72.4-76.1c-6,13.4-9.1,27.9-9.1,42.7v93.3c0,27.7,22.3,50.5,50.3,52.1v127.3h-26.2V372
		c0-5.3-4.3-9.6-9.6-9.6c-5.3,0-9.6,4.3-9.6,9.6v105.3h-23.7V240.7c0-5.3-4.3-9.6-9.6-9.6s-9.6,4.3-9.6,9.6v236.6H20.5
		c-5.3,0-9.6,4.3-9.6,9.6c0,5.3,4.3,9.6,9.6,9.6h459c5.3,0,9.6-4.3,9.6-9.6C489.1,481.6,484.8,477.3,479.5,477.3z M242.3,22.7
		c20.5,0,37.2,16.7,37.2,37.2s-16.7,37.2-37.2,37.2C221.7,97.2,205,80.5,205,60S221.7,22.7,242.3,22.7z M154.3,297.8v-93.3
		c0-16.7,4.8-32.9,14-46.9c16.8-25.7,45.6-41,77-41c31.5,0,60.3,15.4,77.1,41.2c9.1,14,14,30.2,14,46.8v93.3
		c0,16.6-12.8,30.4-29.4,32.6V207.7c0-5.3-4.3-9.6-9.6-9.6c-5.3,0-9.6,4.3-9.6,9.6v269.6h-34.3v-134c0-5.3-4.3-9.6-9.6-9.6
		c-5.3,0-9.6,4.3-9.6,9.6v134h-29.4V207.7c0-5.3-4.3-9.6-9.6-9.6c-5.3,0-9.6,4.3-9.6,9.6v122.9C168,329,154.3,314.9,154.3,297.8z"/>
</g>
</svg>
