<?xml version="1.0" encoding="utf-8"?>
<!-- Generator: Adobe Illustrator 21.1.0, SVG Export Plug-In . SVG Version: 6.00 Build 0)  -->
<svg version="1.1" id="Layer_1" xmlns="http://www.w3.org/2000/svg" xmlns:xlink="http://www.w3.org/1999/xlink" x="0px" y="0px"
	 viewBox="0 0 500 500" style="enable-background:new 0 0 500 500;" xml:space="preserve">
<style type="text/css">
	.st0{fill:#E2E2E2;}
	.st1{fill:#002E35;}
	.st2{fill:#BF4D00;}
	.st3{fill:#8C1A00;}
</style>
<g>
	<path class="st0" d="M485.8,55.2v97.4v107.7v97.4c0,5.7-4.6,10.3-10.3,10.3h-97.4H270.5H162.9H22.4V260.3V152.6V44.9h140.5h107.7
		h107.7h97.4C481.2,44.9,485.8,49.5,485.8,55.2z"/>
	<path class="st1" d="M378.2,152.6H270.5V44.9h107.7V152.6z M44.9,44.9v107.7h117.9V44.9H44.9z M378.2,152.6v107.7h107.7V152.6
		H378.2z M162.9,152.6v107.7h107.7V152.6H162.9z M270.5,367.9h107.7V260.3H270.5V367.9z M44.9,367.9h117.9V260.3H44.9V367.9z"/>
	<path class="st2" d="M34.7,485.8L34.7,485.8c-11.3,0-20.5-9.2-20.5-20.5V34.7c0-11.3,9.2-20.5,20.5-20.5l0,0
		c11.3,0,20.5,9.2,20.5,20.5v430.6C55.2,476.6,46,485.8,34.7,485.8z"/>
	<path class="st3" d="M44.9,483c-3,1.7-6.5,2.8-10.3,2.8c-11.3,0-20.5-9.2-20.5-20.5V34.7c0-11.3,9.2-20.5,20.5-20.5
		c3.7,0,7.2,1,10.3,2.8c-6.1,3.5-10.3,10.2-10.3,17.7v430.6C34.7,472.9,38.8,479.5,44.9,483z"/>
	<path d="M475.6,37.3H62.9v-2.6c0-15.5-12.6-28.2-28.2-28.2S6.5,19.1,6.5,34.7v430.6c0,15.5,12.6,28.2,28.2,28.2
		s28.2-12.6,28.2-28.2v-89.7h412.7c9.9,0,17.9-8,17.9-17.9V55.2C493.5,45.3,485.5,37.3,475.6,37.3z M47.5,465.3
		c0,7.1-5.7,12.8-12.8,12.8s-12.8-5.7-12.8-12.8V34.7c0-7.1,5.7-12.8,12.8-12.8s12.8,5.7,12.8,12.8V465.3z M478.1,357.7
		c0,1.4-1.1,2.6-2.6,2.6H62.9V52.6h412.7c1.4,0,2.6,1.1,2.6,2.6V357.7z"/>
</g>
</svg>
