<?xml version="1.0" encoding="utf-8"?>
<!-- Generator: Adobe Illustrator 21.1.0, SVG Export Plug-In . SVG Version: 6.00 Build 0)  -->
<svg version="1.1" id="Layer_1" xmlns="http://www.w3.org/2000/svg" xmlns:xlink="http://www.w3.org/1999/xlink" x="0px" y="0px"
	 viewBox="0 0 500 500" style="enable-background:new 0 0 500 500;" xml:space="preserve">
<style type="text/css">
	.st0{fill:#0F8EE3;}
	.st1{fill:#003A7F;}
	.st2{fill:#27B5F7;}
	.st3{fill:#FFAE18;}
</style>
<g>
	<g>
		<circle class="st0" cx="397.8" cy="397.8" r="90.1"/>
		<circle class="st0" cx="102.2" cy="397.8" r="90.1"/>
	</g>
	<path class="st1" d="M215.4,225.6c0,3.7-3,6.7-6.7,6.7h-80.3c-3.7,0-6.7-3-6.7-6.7v-23.1c0-3.7,3-6.7,6.7-6.7h57.2
		C202.1,195.9,215.4,209.2,215.4,225.6L215.4,225.6z"/>
	<path class="st2" d="M380.8,108.3h99.8c0-19.7-16-35.8-35.6-35.8c-1.2,0-2.4,0.1-3.7,0.2c-6.2-16.2-21.7-27.2-39.3-27.2
		c-17.6,0-33.2,11-39.3,27.2c-1.2-0.1-2.4-0.2-3.7-0.2c-19.6,0-35.6,16.1-35.6,35.8h32.9L380.8,108.3"/>
	<path class="st3" d="M471.9,85c9.7-7.4,16-19.1,16-32.2c0-22.4-18.2-40.6-40.6-40.6c-20.1,0-36.7,14.6-40,33.7
		c0,0,20.8,1.3,34,26.8C458.5,76.4,471.9,85,471.9,85z"/>
	<path class="st2" d="M61.5,109.6h85.8c0-17-13.7-30.8-30.6-30.8c-1.1,0-2.1,0.1-3.1,0.2c-5.3-13.9-18.7-23.4-33.8-23.4
		c-15.1,0-28.5,9.4-33.8,23.4c-1-0.1-2.1-0.2-3.2-0.2c-16.9,0-30.6,13.8-30.6,30.8H61.5z"/>
	<path d="M279.1,118.4h44.3c5.6,0,10.1-4.5,10.1-10.1c0-14.2,11.4-25.7,25.5-25.7c0.8,0,1.7,0,2.6,0.1c4.6,0.5,8.8-2.2,10.5-6.5
		c4.7-12.4,16.7-20.7,29.9-20.7c13.2,0,25.2,8.3,29.9,20.7c1.6,4.3,5.9,6.9,10.5,6.5c0.9-0.1,1.8-0.1,2.6-0.1
		c10.5,0,19.5,6.4,23.4,15.6h-87.6c-5.6,0-10.1,4.5-10.1,10.1s4.5,10.1,10.1,10.1h99.8c5.6,0,10.1-4.5,10.1-10.1
		c0-7.9-2-15.3-5.5-21.8c8.2-9.2,12.9-21.1,12.9-33.7c0-28-22.7-50.7-50.7-50.7c-21.7,0-40.6,13.6-47.7,33.4
		c-18.1,0.8-34.6,11.2-43.4,27c-20.5,1.2-37.5,16.1-41.9,35.7h-35.3c-5.6,0-10.1,4.5-10.1,10.1S273.5,118.4,279.1,118.4z
		 M447.3,22.2c16.8,0,30.5,13.7,30.5,30.5c0,6.7-2.2,13.1-6.1,18.3c-6.8-4.9-15-8-24-8.6c-6.1-11-15.9-19.4-27.5-23.7
		C425.3,28.8,435.6,22.2,447.3,22.2z"/>
	<path d="M12.2,119.8c5.6,0,10.1-4.5,10.1-10.1c0-11.4,9.2-20.7,20.5-20.7c0.7,0,1.4,0,2.1,0.1c4.6,0.5,8.8-2.2,10.5-6.5
		C59.2,72.5,69,65.8,79.7,65.8c10.7,0,20.5,6.8,24.4,16.8c1.6,4.3,5.9,6.9,10.5,6.5c0.7-0.1,1.5-0.1,2.1-0.1
		c7.6,0,14.3,4.3,17.8,10.5h-73c-5.6,0-10.1,4.5-10.1,10.1s4.5,10.1,10.1,10.1h85.8c5.6,0,10.1-4.5,10.1-10.1
		c0-21.5-16.6-39.1-37.5-40.8c-8.2-14.2-23.5-23.3-40.2-23.3c-16.6,0-32,9.1-40.2,23.3c-21,1.6-37.5,19.3-37.5,40.8
		C2.1,115.2,6.6,119.8,12.2,119.8z"/>
	<path d="M244.5,118.4h0.1c5.6,0,10.1-4.5,10.1-10.1s-4.5-10.1-10.1-10.1h-0.1c-5.6,0-10.1,4.5-10.1,10.1S238.9,118.4,244.5,118.4z"
		/>
	<path d="M35.1,202.6c-5.6,0-10.1,4.5-10.1,10.1c0,5.6,4.5,10.1,10.1,10.1h52.4c5.6,0,10.1-4.5,10.1-10.1c0-5.6-4.5-10.1-10.1-10.1
		H35.1z"/>
	<path d="M12.1,260.1h63.4c5.6,0,10.1-4.5,10.1-10.1c0-5.6-4.5-10.1-10.1-10.1H12.1C6.6,239.9,2,244.4,2,250
		C2,255.6,6.6,260.1,12.1,260.1z"/>
	<path d="M397.8,297.6c-4.3,0-8.5,0.3-12.6,0.8l-20.8-77.2c14.7-4.6,25.3-18.3,25.3-34.5c0-20-16.2-36.2-36.2-36.2h-25
		c-5.6,0-10.1,4.5-10.1,10.1s4.5,10.1,10.1,10.1h25c8.8,0,15.9,7.2,15.9,15.9c0,6.8-4.3,12.6-10.4,14.9l-3.8-14.3
		c-1.5-5.4-7-8.6-12.4-7.1c-5.4,1.5-8.6,7-7.1,12.4l2.7,10h-42.5c-5.6,0-10.1,4.5-10.1,10.1c0,5.6,4.5,10.1,10.1,10.1h48l6.5,24
		H187.2l-2.1-4.4h23.7c9.3,0,16.8-7.5,16.8-16.8c0-22-17.9-39.9-39.9-39.9h-57.2c-9.3,0-16.8,7.5-16.8,16.8v23.1
		c0,9.3,7.5,16.8,16.8,16.8h34l7,14.2L142,305.8c-12.2-5.3-25.6-8.2-39.8-8.2C47,297.6,2,342.5,2,397.8S47,498,102.2,498
		c51.8,0,94.5-39.5,99.7-90h15.2c4.3,14.1,17.4,24.3,32.9,24.3c19,0,34.4-15.4,34.4-34.4c0-7.1-2.2-13.8-5.9-19.3l80.4-99.9
		l6.5,24.2c-39.4,13.5-67.8,50.9-67.8,94.8c0,55.2,44.9,100.2,100.2,100.2S498,453,498,397.8S453,297.6,397.8,297.6z M131.9,206
		h53.8c9.7,0,17.7,7,19.4,16.2h-73.1V206L131.9,206z M180.3,278.7l46.2,94.1c-4.3,4-7.6,9.2-9.3,14.9h-15.2
		c-3-29.8-19-55.7-42.3-72.1L180.3,278.7z M248.3,383.8l-3.2,3.9h-5.1C242.3,385.7,245.2,384.2,248.3,383.8z M181.5,387.8h-62.1
		l30.3-54.3C166.9,346.2,178.8,365.6,181.5,387.8z M102.2,477.8c-44.1,0-80-35.9-80-80s35.9-80,80-80c10.5,0,20.6,2.1,29.8,5.8
		L93.4,393c-1.7,3.1-1.7,7,0.1,10.1c1.8,3.1,5.1,5,8.7,5h79.3C176.5,447.3,142.8,477.8,102.2,477.8z M264.2,397.9
		c0,7.8-6.4,14.2-14.2,14.2c-3.8,0-7.3-1.5-9.9-4h9.9c3.1,0,6-1.4,7.9-3.8l6.2-7.7C264.2,397,264.2,397.4,264.2,397.9z M262.7,366
		c-3.9-1.6-8.2-2.5-12.7-2.5c-1.8,0-3.6,0.1-5.4,0.4l-47.5-96.9h145.3L262.7,366z M397.8,477.8c-44.1,0-80-35.9-80-80
		c0-34.6,22.1-64.1,52.9-75.2l14.8,54.9c-6.9,4.2-11.5,11.7-11.5,20.4c0,13.1,10.7,23.8,23.8,23.8c13.1,0,23.8-10.7,23.8-23.8
		c0-10.3-6.5-19-15.6-22.4l-15.4-57.3c2.4-0.2,4.8-0.3,7.3-0.3c44.1,0,80,35.9,80,80S441.9,477.8,397.8,477.8z M397.8,394.2
		C397.8,394.2,397.8,394.3,397.8,394.2C397.8,394.3,397.8,394.2,397.8,394.2c2,0,3.6,1.6,3.6,3.5c0,2-1.6,3.5-3.5,3.5
		s-3.5-1.6-3.5-3.5C394.2,395.8,395.8,394.3,397.8,394.2z"/>
	<path d="M66.2,362c4-4,4-10.4,0-14.3c-4-4-10.4-4-14.3,0c-27.6,27.6-27.6,72.6,0,100.3c13.4,13.4,31.4,20.8,50.1,20.8
		c1.8,0,3.6-0.1,5.4-0.2c5.6-0.4,9.7-5.3,9.3-10.9c-0.4-5.6-5.3-9.8-10.9-9.3c-14.8,1.1-29.2-4.2-39.7-14.7
		C46.4,413.9,46.4,381.7,66.2,362z"/>
	<path d="M144.8,451c2.6,0,5.2-1,7.2-3l0.1-0.1c4-4,4-10.4,0-14.3c-4-4-10.4-4-14.3,0l-0.1,0.1c-4,4-4,10.4,0,14.3
		C139.7,450,142.3,451,144.8,451z"/>
	<path d="M401.4,448.3c-14.8,1.1-29.2-4.2-39.7-14.7c-9.6-9.6-14.8-22.3-14.8-35.8c0-13.5,5.3-26.3,14.8-35.8c4-4,4-10.4,0-14.3
		c-4-4-10.4-4-14.3,0c-27.6,27.6-27.6,72.6,0,100.3c13.4,13.4,31.4,20.8,50.1,20.8c1.8,0,3.6-0.1,5.4-0.2c5.6-0.4,9.7-5.3,9.3-10.9
		C411.8,452.1,407,447.9,401.4,448.3z"/>
	<path d="M433.4,433.6l-0.1,0.1c-4,4-4,10.4,0,14.3c2,2,4.6,3,7.2,3s5.2-1,7.2-3l0.1-0.1c4-4,4-10.4,0-14.3
		C443.7,429.7,437.3,429.7,433.4,433.6z"/>
</g>
</svg>
