<svg id="e1079f2d-87c8-4012-9f9d-7801000c71f2" data-name="Capa 1" xmlns="http://www.w3.org/2000/svg" viewBox="0 0 698.2 275"><title>ABCC</title><path d="M369.9,110l-4.2-16.1h-28L333.3,110H307.8l28.1-86.4h31L395.3,110Zm-9.1-35.2-3.7-14.1c-.9-3.1-1.9-7.2-3.1-12.2s-2.1-8.6-2.4-10.7q-.6,3-2.1,9.9c-1,4.6-3.3,13.6-6.9,27.1Z" transform="translate(-0.1 0.1)" fill="#404041"/><path d="M404.6,24h30c11.7,0,20.4,1.7,26,5.2s8.5,8.9,8.5,16.2a20.67,20.67,0,0,1-3.7,12.4,16.67,16.67,0,0,1-9.8,6.6V65c5.3,1.4,9.2,3.8,11.6,7.1s3.6,7.6,3.6,12.8c0,7.8-2.9,14-8.8,18.5s-13.9,6.7-24,6.7H404.5V24Zm23.3,33h7c3.3,0,5.9-.7,7.7-2.1a7.22,7.22,0,0,0,2.7-6.1c0-4.8-3.6-7.2-10.9-7.2h-6.5V57Zm0,17V92.1h8.2c7.3,0,10.9-3.1,10.9-9.2a7.94,7.94,0,0,0-2.9-6.6c-1.9-1.5-4.8-2.3-8.4-2.3Z" transform="translate(-0.1 0.1)" fill="#404041"/><path d="M524.2,41.8a15,15,0,0,0-13,6.8c-3.1,4.5-4.7,10.8-4.7,18.7,0,16.6,6.3,24.8,18.9,24.8a37.73,37.73,0,0,0,11.1-1.6c3.6-1.1,7.2-2.3,10.8-3.8v19.7a59.36,59.36,0,0,1-24.4,4.8c-13,0-22.9-3.8-29.9-11.3s-10.4-18.4-10.4-32.7a53.1,53.1,0,0,1,5-23.5,37.07,37.07,0,0,1,14.5-15.6q9.45-5.4,22.2-5.4A60.67,60.67,0,0,1,551,28.8l-7,18.3c-3.2-1.5-6.4-2.7-9.5-3.8A35.16,35.16,0,0,0,524.2,41.8Z" transform="translate(-0.1 0.1)" fill="#404041"/><path d="M602.4,41.8a15,15,0,0,0-13,6.8c-3.1,4.5-4.7,10.8-4.7,18.7,0,16.6,6.3,24.8,18.9,24.8a37.73,37.73,0,0,0,11.1-1.6c3.6-1.1,7.2-2.3,10.8-3.8v19.7a59.36,59.36,0,0,1-24.4,4.8c-13,0-22.9-3.8-29.9-11.3s-10.4-18.4-10.4-32.7a53.1,53.1,0,0,1,5-23.5,37.07,37.07,0,0,1,14.5-15.6q9.45-5.4,22.2-5.4a60.67,60.67,0,0,1,26.7,6.1l-7.1,18.3c-3.2-1.5-6.4-2.7-9.5-3.8A33.07,33.07,0,0,0,602.4,41.8Z" transform="translate(-0.1 0.1)" fill="#404041"/><path d="M335,180.5l-4.4-11.3H316.3l-4.4,11.3h-4.2l14.1-35.7h3.5l14,35.7Zm-5.7-15-4.1-11c-.5-1.4-1.1-3.1-1.7-5.1q-.6,2.4-1.5,5.1l-4.2,11Z" transform="translate(-0.1 0.1)" fill="#404041"/><path d="M347.4,153.9v17.3a7,7,0,0,0,1.5,4.9c1,1.1,2.5,1.6,4.6,1.6,2.8,0,4.8-.8,6.1-2.3s1.9-4,1.9-7.5v-14h4v26.7h-3.3l-.6-3.6h-.2a8.25,8.25,0,0,1-3.4,3,11.46,11.46,0,0,1-5,1c-3.2,0-5.7-.8-7.3-2.3s-2.4-4-2.4-7.4V153.9Z" transform="translate(-0.1 0.1)" fill="#404041"/><path d="M391.3,173.2a6.43,6.43,0,0,1-2.8,5.7c-1.8,1.3-4.4,2-7.8,2a17.41,17.41,0,0,1-8.3-1.7v-3.7a20.16,20.16,0,0,0,4.1,1.5,21.25,21.25,0,0,0,4.2.6,9.68,9.68,0,0,0,4.9-1,3.26,3.26,0,0,0,1.7-3.1,3.85,3.85,0,0,0-1.3-2.7,23.26,23.26,0,0,0-5.3-2.6,27.75,27.75,0,0,1-5.3-2.4,8.36,8.36,0,0,1-2.3-2.3,6.21,6.21,0,0,1-.8-3.1,5.78,5.78,0,0,1,2.7-5.1c1.8-1.3,4.2-1.9,7.3-1.9a20.47,20.47,0,0,1,8.4,1.8l-1.4,3.3a19.62,19.62,0,0,0-7.3-1.7,8.1,8.1,0,0,0-4.3.9,2.75,2.75,0,0,0-1.5,2.5,3.45,3.45,0,0,0,.5,1.8,4.51,4.51,0,0,0,1.8,1.4,37.68,37.68,0,0,0,4.7,2c3.2,1.2,5.3,2.3,6.4,3.5A5.58,5.58,0,0,1,391.3,173.2Z" transform="translate(-0.1 0.1)" fill="#404041"/><path d="M406.5,177.7a14.92,14.92,0,0,0,2.1-.2,15.69,15.69,0,0,0,1.6-.3v3.1a6.4,6.4,0,0,1-1.9.5,21.5,21.5,0,0,1-2.3.2c-5.2,0-7.7-2.7-7.7-8.1V157h-3.8v-1.9l3.8-1.7,1.7-5.7h2.3v6.2H410V157h-7.7v15.7a5.82,5.82,0,0,0,1.1,3.7A4.06,4.06,0,0,0,406.5,177.7Z" transform="translate(-0.1 0.1)" fill="#404041"/><path d="M415.1,146.6a2.44,2.44,0,0,1,.7-2,2.52,2.52,0,0,1,1.7-.6,2.34,2.34,0,0,1,1.7.7,3.21,3.21,0,0,1,0,4,2.61,2.61,0,0,1-1.7.7,2.19,2.19,0,0,1-1.7-.7A3.1,3.1,0,0,1,415.1,146.6Zm4.4,33.9h-4V153.8h4Z" transform="translate(-0.1 0.1)" fill="#404041"/><path d="M446.3,180.5V163.3a7,7,0,0,0-1.5-4.9c-1-1.1-2.5-1.6-4.6-1.6-2.8,0-4.8.8-6.1,2.3s-1.9,4-1.9,7.5v14h-4V153.9h3.3l.7,3.6h.2a8.84,8.84,0,0,1,3.5-3.1,11.81,11.81,0,0,1,5-1.1c3.2,0,5.6.8,7.2,2.3s2.4,4,2.4,7.4v17.4h-4.2Z" transform="translate(-0.1 0.1)" fill="#404041"/><path d="M472.2,145h10q7.05,0,10.2,2.1c2.1,1.4,3.2,3.6,3.2,6.7a7.65,7.65,0,0,1-1.8,5.2,8.44,8.44,0,0,1-5.1,2.7v.2c5.4.9,8.1,3.8,8.1,8.5a9,9,0,0,1-3.2,7.4c-2.1,1.8-5.2,2.7-9,2.7H472.2V145Zm4.1,15.2h6.8c2.9,0,5-.5,6.3-1.4s1.9-2.5,1.9-4.6a4.7,4.7,0,0,0-2.1-4.3c-1.4-.9-3.7-1.3-6.8-1.3h-6.1v11.6Zm0,3.5V177h7.4a10.73,10.73,0,0,0,6.5-1.7c1.5-1.1,2.2-2.8,2.2-5.2a5.61,5.61,0,0,0-2.2-4.9c-1.5-1.1-3.7-1.6-6.8-1.6h-7.1Z" transform="translate(-0.1 0.1)" fill="#404041"/><path d="M527,155.3c0,3.6-1.2,6.4-3.7,8.3s-6,2.9-10.5,2.9h-4.2v14h-4.1V145h9.2C522.6,145,527,148.4,527,155.3ZM508.6,163h3.7c3.7,0,6.3-.6,8-1.8s2.5-3.1,2.5-5.7a6.33,6.33,0,0,0-2.3-5.3c-1.5-1.2-3.9-1.7-7.2-1.7h-4.6V163Z" transform="translate(-0.1 0.1)" fill="#404041"/><path d="M550.2,180.5,538.1,149h-.2c.2,2.5.3,5.5.3,8.9v22.6h-3.8V145h6.2l11.3,29.3h.2L563.5,145h6.2v35.6h-4.1V157.7c0-2.6.1-5.5.3-8.6h-.2l-12.2,31.5h-3.3Z" transform="translate(-0.1 0.1)" fill="#404041"/><path d="M599.5,171.1a8.57,8.57,0,0,1-3.4,7.3,15.21,15.21,0,0,1-9.2,2.6c-4.2,0-7.5-.5-9.7-1.6v-4a30.08,30.08,0,0,0,4.8,1.5,22.06,22.06,0,0,0,5.1.5c2.8,0,4.8-.5,6.2-1.6a5.1,5.1,0,0,0,2.1-4.4,5.56,5.56,0,0,0-.7-3,6.91,6.91,0,0,0-2.5-2.2,37,37,0,0,0-5.3-2.3c-3.3-1.2-5.7-2.6-7.1-4.2a9.22,9.22,0,0,1-2.1-6.3,7.74,7.74,0,0,1,3.1-6.5,13.1,13.1,0,0,1,8.2-2.4,24.47,24.47,0,0,1,9.8,1.9l-1.3,3.6a22.5,22.5,0,0,0-8.6-1.8,8.36,8.36,0,0,0-5.1,1.4,4.58,4.58,0,0,0-1.8,3.9,5.56,5.56,0,0,0,.7,3,7,7,0,0,0,2.3,2.2,26.26,26.26,0,0,0,4.9,2.2c3.7,1.3,6.3,2.8,7.7,4.3S599.5,168.6,599.5,171.1Z" transform="translate(-0.1 0.1)" fill="#404041"/><path d="M619.3,180.5h-3.9V155.2c0-2.1.1-4.1.2-6l-1.1,1.1c-.4.4-2.4,2-5.8,4.7l-2.1-2.8,9.4-7.3h3.4v35.6Z" transform="translate(-0.1 0.1)" fill="#404041"/><path d="M643.9,158.8c3.7,0,6.7.9,8.8,2.8a9.74,9.74,0,0,1,3.2,7.6,11.22,11.22,0,0,1-3.5,8.7c-2.3,2.1-5.6,3.1-9.7,3.1s-7.1-.6-9.2-1.9v-3.9a13.62,13.62,0,0,0,4.2,1.7,21.36,21.36,0,0,0,5,.6,10.3,10.3,0,0,0,6.7-2,7.12,7.12,0,0,0,2.4-5.8c0-5-3-7.4-9.1-7.4a34.16,34.16,0,0,0-6.2.7l-2.1-1.3,1.3-16.6h17.7v3.7H639.2l-.9,10.7A22,22,0,0,1,643.9,158.8Z" transform="translate(-0.1 0.1)" fill="#404041"/><path d="M684.8,162.7c0,6.1-1,10.7-2.9,13.8S677,181,673,181a9.77,9.77,0,0,1-8.7-4.7c-2-3.1-3-7.7-3-13.7,0-6.2,1-10.8,2.9-13.8s4.9-4.5,8.8-4.5a9.82,9.82,0,0,1,8.8,4.7C683.8,152.2,684.8,156.8,684.8,162.7Zm-19.4,0c0,5.2.6,8.9,1.8,11.3a6.51,6.51,0,0,0,11.6-.1c1.2-2.4,1.8-6.1,1.8-11.2s-.6-8.8-1.8-11.2a6.51,6.51,0,0,0-11.6-.1C666,153.8,665.4,157.5,665.4,162.7Z" transform="translate(-0.1 0.1)" fill="#404041"/><path d="M327.9,207.9a11.79,11.79,0,0,0-9.3,3.9c-2.3,2.6-3.4,6.2-3.4,10.7,0,4.7,1.1,8.2,3.3,10.8s5.3,3.8,9.3,3.8a31.43,31.43,0,0,0,8.5-1.3v3.6a26.78,26.78,0,0,1-9.1,1.4c-5.2,0-9.3-1.6-12.1-4.8s-4.3-7.7-4.3-13.5a20.6,20.6,0,0,1,2.1-9.6,14.65,14.65,0,0,1,5.9-6.4,17.78,17.78,0,0,1,9.1-2.2,23.16,23.16,0,0,1,9.8,2l-1.8,3.6A17.87,17.87,0,0,0,327.9,207.9Z" transform="translate(-0.1 0.1)" fill="#404041"/><path d="M359.9,240.3l-.8-3.8h-.2a11,11,0,0,1-4,3.4,11.91,11.91,0,0,1-4.9.9,9.23,9.23,0,0,1-6.2-2,7.47,7.47,0,0,1-2.2-5.8c0-5.4,4.3-8.2,12.9-8.5l4.5-.1v-1.7a7.21,7.21,0,0,0-1.3-4.6,5.47,5.47,0,0,0-4.3-1.5,18.3,18.3,0,0,0-7.5,2l-1.2-3.1a20.28,20.28,0,0,1,4.3-1.7,18.93,18.93,0,0,1,4.7-.6c3.2,0,5.5.7,7.1,2.1s2.3,3.7,2.3,6.8v18.2h-3.2Zm-9.2-2.9a8,8,0,0,0,5.9-2.1,7.84,7.84,0,0,0,2.2-5.8v-2.4l-4,.2q-4.8.15-6.9,1.5a4.58,4.58,0,0,0-2.1,4.1,3.9,3.9,0,0,0,1.3,3.3A4.64,4.64,0,0,0,350.7,237.4Z" transform="translate(-0.1 0.1)" fill="#404041"/><path d="M383.6,240.8a11.17,11.17,0,0,1-4.8-1,8.56,8.56,0,0,1-3.6-3h-.3a34.86,34.86,0,0,1,.3,4.4v11h-4V213.6h3.3l.6,3.6h.2a9.1,9.1,0,0,1,3.6-3.2,12,12,0,0,1,4.7-1,9.93,9.93,0,0,1,8.2,3.6c1.9,2.4,2.9,5.8,2.9,10.2s-1,7.8-2.9,10.2A9.79,9.79,0,0,1,383.6,240.8Zm-.6-24.2c-2.7,0-4.7.8-5.9,2.3s-1.8,3.9-1.9,7.2v.9c0,3.7.6,6.4,1.9,8s3.3,2.4,6,2.4a6.15,6.15,0,0,0,5.4-2.8,13.29,13.29,0,0,0,2-7.7c0-3.3-.7-5.9-2-7.6A6.35,6.35,0,0,0,383,216.6Z" transform="translate(-0.1 0.1)" fill="#404041"/><path d="M410.3,237.4a14.92,14.92,0,0,0,2.1-.2,15.69,15.69,0,0,0,1.6-.3V240a6.4,6.4,0,0,1-1.9.5,21.5,21.5,0,0,1-2.3.2c-5.2,0-7.7-2.7-7.7-8.1V216.7h-3.8v-1.9l3.8-1.7,1.7-5.7h2.3v6.2h7.7v3.1H406v15.7a5.82,5.82,0,0,0,1.1,3.7A4.08,4.08,0,0,0,410.3,237.4Z" transform="translate(-0.1 0.1)" fill="#404041"/><path d="M435.7,240.3l-.8-3.8h-.2a11,11,0,0,1-4,3.4,11.91,11.91,0,0,1-4.9.9,9.23,9.23,0,0,1-6.2-2,7.47,7.47,0,0,1-2.2-5.8c0-5.4,4.3-8.2,12.9-8.5l4.5-.1v-1.7a7.21,7.21,0,0,0-1.3-4.6,5.47,5.47,0,0,0-4.3-1.5,18.3,18.3,0,0,0-7.5,2l-1.2-3.1a20.28,20.28,0,0,1,4.3-1.7,18.93,18.93,0,0,1,4.7-.6c3.2,0,5.5.7,7.1,2.1s2.3,3.7,2.3,6.8v18.2h-3.2Zm-9.1-2.9a8,8,0,0,0,5.9-2.1,7.84,7.84,0,0,0,2.2-5.8v-2.4l-4,.2q-4.8.15-6.9,1.5a4.58,4.58,0,0,0-2.1,4.1,3.9,3.9,0,0,0,1.3,3.3C423.7,237.1,425,237.4,426.6,237.4Z" transform="translate(-0.1 0.1)" fill="#404041"/><path d="M446.6,206.4a2.44,2.44,0,0,1,.7-2,2.52,2.52,0,0,1,1.7-.6,2.34,2.34,0,0,1,1.7.7,3.21,3.21,0,0,1,0,4,2.61,2.61,0,0,1-1.7.7,2.19,2.19,0,0,1-1.7-.7A3.3,3.3,0,0,1,446.6,206.4Zm4.4,33.9h-4V213.6h4Z" transform="translate(-0.1 0.1)" fill="#404041"/><path d="M477.8,240.3V223a7,7,0,0,0-1.5-4.9c-1-1.1-2.5-1.6-4.6-1.6-2.8,0-4.8.8-6.1,2.3s-1.9,4-1.9,7.5v14h-4V213.6H463l.7,3.6h.2a8.84,8.84,0,0,1,3.5-3.1,11.81,11.81,0,0,1,5-1.1c3.2,0,5.6.8,7.2,2.3s2.4,4,2.4,7.4v17.4h-4.2Z" transform="translate(-0.1 0.1)" fill="#404041"/><path d="M493.4,204.7l.4.5a58.92,58.92,0,0,1-1.8,5.7c-.8,2.1-1.6,4.1-2.5,6h-3c1.1-4.6,2-8.7,2.5-12.2Z" transform="translate(-0.1 0.1)" fill="#404041"/><path d="M515.8,233a6.43,6.43,0,0,1-2.8,5.7,13.41,13.41,0,0,1-7.8,2,17.41,17.41,0,0,1-8.3-1.7v-3.7a20.16,20.16,0,0,0,4.1,1.5,16.35,16.35,0,0,0,4.2.6,9.68,9.68,0,0,0,4.9-1,3.26,3.26,0,0,0,1.7-3.1,3.85,3.85,0,0,0-1.3-2.7,23.26,23.26,0,0,0-5.3-2.6,27.75,27.75,0,0,1-5.3-2.4,8.36,8.36,0,0,1-2.3-2.3,6.21,6.21,0,0,1-.8-3.1,5.78,5.78,0,0,1,2.7-5.1c1.8-1.3,4.2-1.9,7.3-1.9a20.47,20.47,0,0,1,8.4,1.8l-1.4,3.3a19.62,19.62,0,0,0-7.3-1.7,8.1,8.1,0,0,0-4.3.9,2.75,2.75,0,0,0-1.5,2.5,3.45,3.45,0,0,0,.5,1.8,5.37,5.37,0,0,0,1.8,1.4,37.68,37.68,0,0,0,4.7,2c3.2,1.2,5.3,2.3,6.4,3.5A5.58,5.58,0,0,1,515.8,233Z" transform="translate(-0.1 0.1)" fill="#404041"/><path d="M551.1,207.9a11.79,11.79,0,0,0-9.3,3.9c-2.3,2.6-3.4,6.2-3.4,10.7,0,4.7,1.1,8.2,3.3,10.8s5.3,3.8,9.3,3.8a31.43,31.43,0,0,0,8.5-1.3v3.6a26.78,26.78,0,0,1-9.1,1.4c-5.2,0-9.3-1.6-12.1-4.8s-4.3-7.7-4.3-13.5a20.6,20.6,0,0,1,2.1-9.6,14.65,14.65,0,0,1,5.9-6.4,17.78,17.78,0,0,1,9.1-2.2,23.16,23.16,0,0,1,9.8,2l-1.8,3.6A17.87,17.87,0,0,0,551.1,207.9Z" transform="translate(-0.1 0.1)" fill="#404041"/><path d="M589.7,226.9q0,6.45-3.3,10.2a11.74,11.74,0,0,1-9.1,3.7,11.87,11.87,0,0,1-6.3-1.7,11.19,11.19,0,0,1-4.3-4.8,16.7,16.7,0,0,1-1.5-7.3q0-6.45,3.3-10.2a11.6,11.6,0,0,1,9-3.6,11.27,11.27,0,0,1,8.9,3.7C588.6,219.4,589.7,222.7,589.7,226.9Zm-20.3,0c0,3.4.7,6,2,7.8a8,8,0,0,0,12,0q2.1-2.7,2.1-7.8c0-3.4-.7-6-2.1-7.7s-3.4-2.6-6.1-2.6a7.36,7.36,0,0,0-6,2.6C570.1,220.9,569.4,223.5,569.4,226.9Z" transform="translate(-0.1 0.1)" fill="#404041"/><path d="M600.6,213.6v17.3a7,7,0,0,0,1.5,4.9c1,1.1,2.5,1.6,4.6,1.6,2.8,0,4.8-.8,6.1-2.3s1.9-4,1.9-7.5v-14h4v26.7h-3.3l-.6-3.6h-.2a8.25,8.25,0,0,1-3.4,3,11.46,11.46,0,0,1-5,1c-3.2,0-5.7-.8-7.3-2.3s-2.4-4-2.4-7.4V213.6Z" transform="translate(-0.1 0.1)" fill="#404041"/><path d="M645.6,240.3V223a7,7,0,0,0-1.5-4.9c-1-1.1-2.5-1.6-4.6-1.6-2.8,0-4.8.8-6.1,2.3s-1.9,4-1.9,7.5v14h-4V213.6h3.3l.7,3.6h.2a8.84,8.84,0,0,1,3.5-3.1,11.81,11.81,0,0,1,5-1.1c3.2,0,5.6.8,7.2,2.3s2.4,4,2.4,7.4v17.4h-4.2Z" transform="translate(-0.1 0.1)" fill="#404041"/><path d="M668.6,240.8c-3.9,0-6.8-1.2-9-3.6s-3.2-5.7-3.2-10.1,1.1-7.9,3.2-10.3,5.2-3.6,9.2-3.6a15.81,15.81,0,0,1,3.8.4,11.58,11.58,0,0,1,3,1l-1.2,3.4a14,14,0,0,0-2.9-.9,17,17,0,0,0-2.8-.4c-5.4,0-8.1,3.5-8.1,10.4,0,3.3.7,5.8,2,7.5a7,7,0,0,0,5.9,2.6,18.8,18.8,0,0,0,6.8-1.4v3.6A14.48,14.48,0,0,1,668.6,240.8Z" transform="translate(-0.1 0.1)" fill="#404041"/><path d="M681.3,206.4a2.44,2.44,0,0,1,.7-2,2.52,2.52,0,0,1,1.7-.6,2.34,2.34,0,0,1,1.7.7,3.21,3.21,0,0,1,0,4,2.61,2.61,0,0,1-1.7.7,2.19,2.19,0,0,1-1.7-.7A3.3,3.3,0,0,1,681.3,206.4Zm4.4,33.9h-4V213.6h4Z" transform="translate(-0.1 0.1)" fill="#404041"/><path d="M698.3,240.3h-4V202.5h4Z" transform="translate(-0.1 0.1)" fill="#404041"/><path d="M128.9,265H151l1.2-7.5a37.82,37.82,0,0,1,59.7-24.8l6.1,4.5,15.7-15.7-6.8-10a37.81,37.81,0,0,1,25.5-58.6L265,151V128.8l-11.9-2.3A37.81,37.81,0,0,1,229.7,67l7.5-10.2L221.5,41.1l-10,6.8a37.66,37.66,0,0,1-36.3,3.4A37.24,37.24,0,0,1,153,22.4L151,10H128.8l-3.2,16.5A37.89,37.89,0,0,1,67.2,50.7L53.3,41.2,37.8,56.9l7.5,10.2A37.58,37.58,0,0,1,50,103.3a37.68,37.68,0,0,1-28.1,23.3L10,128.9V151l12.5,1.9a37.56,37.56,0,0,1,28.9,22.3A37.38,37.38,0,0,1,48,211.5l-6.8,10,15.7,15.7,10.2-7.5a37.81,37.81,0,0,1,59.5,23.4Z" transform="translate(-0.1 0.1)" fill="none"/><path d="M254.1,121.7a32.82,32.82,0,0,1-20.3-51.6l10-13.6L222.2,34.9,208.8,44c-19.9,13.5-47.2,1.6-50.8-22.2L155.3,5H124.7l-4,20.6a32.82,32.82,0,0,1-50.6,21L52.8,34.8,31.2,56.4,41.2,70c14.2,19.4,3.4,47.1-20.3,51.6L5,124.8v30.6L21.7,158c23.8,3.7,35.7,30.9,22.2,50.8l-9.1,13.4,21.6,21.6,13.6-10c19.4-14.2,47.1-3.4,51.6,20.3l3.1,15.9h30.6l1.8-11.8c3.7-24.3,32-36,51.8-21.5l9.6,7,21.6-21.6L231,208.7c-13.5-19.9-1.6-47.2,22.2-50.8l16.7-2.6V124.7ZM140,163a22.9,22.9,0,1,1,23-23A22.9,22.9,0,0,1,140,163Z" transform="translate(-0.1 0.1)" fill="#404041"/><path d="M140,91.6A48.4,48.4,0,1,0,188.4,140,48.44,48.44,0,0,0,140,91.6Zm0,71.4a22.9,22.9,0,1,1,23-23A22.9,22.9,0,0,1,140,163Z" transform="translate(-0.1 0.1)" fill="#ef7622"/><path d="M255,116.8h0A27.83,27.83,0,0,1,237.9,73l12.5-17.1L222.8,28.3,205.9,39.7a27.8,27.8,0,0,1-43.1-18.8l-3.2-21h-39l-4.7,24.6A27.8,27.8,0,0,1,73,42.2L52.2,28.3,24.6,55.9,37.2,73a27.6,27.6,0,0,1,3.5,26.6,27.94,27.94,0,0,1-20.6,17.2l-20,3.8v39l21,3.2a27.91,27.91,0,0,1,21.3,16.4,27.41,27.41,0,0,1-2.5,26.7L28.5,222.8l27.6,27.6L73,237.8a27.6,27.6,0,0,1,26.6-3.5,27.94,27.94,0,0,1,17.2,20.6l3.8,20h39l2.5-16a27.8,27.8,0,0,1,16.8-21.5,27.49,27.49,0,0,1,27.1,3.3l13.1,9.6,27.6-27.6-11.4-16.9a27.8,27.8,0,0,1,18.8-43.1l21-3.2v-39Zm-116.2,81a59,59,0,1,1,59-59A59,59,0,0,1,138.8,197.8Z" transform="translate(-0.1 0.1)" fill="#404041"/></svg>