<svg xmlns="http://www.w3.org/2000/svg" viewBox="0 0 2759.15 989.87"><title>EngineforChange</title><g id="dc1cca62-e03c-408f-8a74-651c5fba6287" data-name="Layer 2"><rect x="1423.48" y="834.04" width="97.43" height="55.26" transform="translate(-5.73 9.86) rotate(-0.38)" fill="none"/><path d="M1377.37,823.77c-5.32,6.53-48.23,62.52-10.82,96.89s249.62,22.43,310.44,11.41,105.88-45.18,105.88-45.18l3.54-31.67-313,11.36-22.06-48.78Z" fill="#666766"/><path d="M2000.13,628.34,1564.34,967.61s6,2.87-23.79.6-45-26.58-45-26.58-20.34-25.54-17.54-44.52,5.66-32.84,21.35-47.12,61-51.51,61-51.51l263.9-222.23,67-62.19,154.55-44.31Z" fill="#939393"/><path d="M305.64,486.82A123.12,123.12,0,1,1,182.52,363.69,123.12,123.12,0,0,1,305.64,486.82Z" fill="#94c93d"/><path d="M186.29,334.25l-9.07-31.64c-.77,0-15.45,10.49-22.21,13.36-7.42,2.86-22.15,6.76-24.42,5s13.73,26.89,14.6,29,9.43-10.66,19.17-13.81C173.94,332.9,184.89,332.57,186.29,334.25Z" fill="#b7b7b7" fill-rule="evenodd"/><path d="M137.47,354.26,122.58,324.9c-.1,0-13,12.65-19.25,16.61-6.9,4-20.87,10.53-23.46,9.26s18.37,24,19.58,25.85,7.26-12.08,16.39-16.76C124.78,355.15,135.41,353.11,137.47,354.26Z" fill="#dbdbdb" fill-rule="evenodd"/><path d="M121.54,344c-5.1-9.2-2.54-20.35,5.93-24.45s18.76.82,22.83,10.5,1.2,20.17-6.23,23.79S126.65,353.15,121.54,344Z" fill="#dbdbdb" fill-rule="evenodd"/><path d="M72.19,377.79c-7-7.83-6.79-19.43.9-25.31s18.82-2.93,24.58,5.87,4.91,19.58-1.52,24.45S79.22,385.6,72.19,377.79Z" fill="#dbdbdb" fill-rule="evenodd"/><line x1="135.77" y1="336.65" x2="135.77" y2="336.65" fill="#a2a2a2"/><path d="M133.27,337.88a2.83,2.83,0,1,1,5-2.42,2.82,2.82,0,1,1-5,2.42Z" fill="#b7b7b7" fill-rule="evenodd"/><path d="M82.42,369.35a2.83,2.83,0,1,1,4.21.93A3.09,3.09,0,0,1,82.42,369.35Z" fill="#b7b7b7" fill-rule="evenodd"/><path d="M166.52,323.51c-3.57-9.85-.08-20.43,10-23.47,8.41-2.41,17.58,3.84,20.48,14s-1.58,20.26-10,22.67C179.85,338.8,170.15,333.4,166.52,323.51Z" fill="#dbdbdb" fill-rule="evenodd"/><path d="M179,319.18a2.84,2.84,0,1,1,5.36-1.59,3.08,3.08,0,0,1-1.74,4A3.13,3.13,0,0,1,179,319.18Z" fill="#b7b7b7" fill-rule="evenodd"/><path d="M94.63,380.8,74.7,354.6c-.15-.05-10.75,15.06-16.06,20.38-6,5.45-18.32,15.43-21.15,15C34.64,389.23,61.35,408.46,63,410c.85.73,1.72-2.53,3.45-6.87s4.48-9.68,8.33-12.86C82.4,383.87,92.43,380,94.63,380.8Z" fill="#b7b7b7" fill-rule="evenodd"/><path d="M58.15,417,31.69,397.39c-.25,0-6.38,18-9.52,25.09-2,3.73-5,9-7.87,13.64S9,444.59,7.47,444.86c-2.9.49,29.13,7.9,31.23,8.76,1.12.36.54-2.9.58-7.44s.59-10.44,3.15-14.62C47.46,423.12,55.81,416.75,58.15,417Z" fill="#dbdbdb" fill-rule="evenodd"/><path d="M39.37,415.05c-8.94-5.54-11.73-17.1-5.4-25s18.06-7.54,25.49-.17,9,18,4.22,24S48.3,420.6,39.37,415.05Z" fill="#dbdbdb" fill-rule="evenodd"/><path d="M18.62,471.44c-10.5-1-18.08-10.31-15.56-20.57S16.81,436,26.45,440.07,41.71,453,40,460.13,29.05,472.43,18.62,471.44Z" fill="#dbdbdb" fill-rule="evenodd"/><line x1="48.83" y1="401.98" x2="48.83" y2="401.98" fill="#a2a2a2"/><path d="M47.09,404.18a2.85,2.85,0,1,1,3.51-4.38,2.84,2.84,0,1,1-3.51,4.38Z" fill="#b7b7b7" fill-rule="evenodd"/><path d="M20.89,458.24a2.86,2.86,0,1,1,1.38-5.47,2.85,2.85,0,1,1-1.38,5.47Z" fill="#b7b7b7" fill-rule="evenodd"/><path d="M72.2,377.78c-7-7.83-6.79-19.43.9-25.31s18.82-2.93,24.58,5.87,4.91,19.58-1.52,24.45S79.22,385.6,72.2,377.78Z" fill="#dbdbdb" fill-rule="evenodd"/><path d="M82.43,369.35a2.83,2.83,0,1,1,4.21.93A3.09,3.09,0,0,1,82.43,369.35Z" fill="#b7b7b7" fill-rule="evenodd"/><path d="M37.57,459.52l-31.93-8L6,462.32c.34,5.86.93,12.53.77,16.46-.27,4.25-1,10.34-1.64,15.68s-1.39,9.91-2.66,10.77c-2.47,1.63,29.84-4.68,32.1-4.75,1.16-.13-.7-2.87-2.51-7s-3.73-9.78-3.07-14.61C30.06,469.1,35.4,460.17,37.57,459.52Z" fill="#b7b7b7" fill-rule="evenodd"/><path d="M36.35,508.48,4.07,514.89s2.16,4.49,5,9.64,6.26,10.95,7.79,14.59c1.59,4,3.69,9.76,5.38,14.87s3,9.48,2.26,10.79c-1.5,2.52,24.86-17.11,26.86-18.17,1-.61-1.87-2.33-5.34-5.28s-7.59-7.17-9.13-11.78C33.72,520.3,34.56,510,36.35,508.48Z" fill="#dbdbdb" fill-rule="evenodd"/><path d="M22.39,521.12C12.34,524.23,1.7,518.46.18,508s7.08-18.92,17.57-18.87,19,6.15,20.13,13.43S32.44,518,22.39,521.12Z" fill="#dbdbdb" fill-rule="evenodd"/><path d="M51.69,573.57c-7.75,7.08-19.59,6.78-25.57-1.63S23.76,552,33.07,547.23s19.69-3.42,24.13,2.68S59.47,566.47,51.69,573.57Z" fill="#dbdbdb" fill-rule="evenodd"/><line x1="19.03" y1="505.26" x2="19.03" y2="505.26" fill="#a2a2a2"/><path d="M19.45,508.05a2.86,2.86,0,1,1-.8-5.59,2.86,2.86,0,1,1,.8,5.59Z" fill="#b7b7b7" fill-rule="evenodd"/><path d="M43.3,563.21a2.86,2.86,0,1,1-3.25-4.6,2.85,2.85,0,1,1,3.25,4.6Z" fill="#b7b7b7" fill-rule="evenodd"/><path d="M18.62,471.43c-10.5-1-18.08-10.31-15.56-20.57S16.81,436,26.46,440.07,41.71,453,40,460.13,29.05,472.43,18.62,471.43Z" fill="#dbdbdb" fill-rule="evenodd"/><path d="M20.89,458.24a2.86,2.86,0,1,1,1.38-5.47,2.85,2.85,0,1,1-1.38,5.47Z" fill="#b7b7b7" fill-rule="evenodd"/><path d="M55.14,551.36l-26.85,19s3.76,3.12,8.28,6.63,9.8,7.41,12.48,10.16c5.62,6.08,15.77,18.06,15.24,20.88s18.27-24,19.79-25.69-13.46-3.71-19.93-11.47C57.68,563.36,54.18,553.51,55.14,551.36Z" fill="#b7b7b7" fill-rule="evenodd"/><path d="M91.2,587.27,71.58,613.71c0,.18,17.5,6.12,23.92,9.7,6.84,4.25,19.08,13.5,19.11,16.38s12.67-27.41,13.77-29.36-14.14-.8-22.51-6.64C97.55,598.1,91,589.61,91.2,587.27Z" fill="#dbdbdb" fill-rule="evenodd"/><path d="M89.16,606.1c-5.8,8.75-17.06,11.55-24.75,5.47s-7.69-17.82-.42-25.4,17.77-9.41,24-4.51S95,597.32,89.16,606.1Z" fill="#dbdbdb" fill-rule="evenodd"/><path d="M141.95,634.21C138,644,127.74,649,119.19,645S108,629.74,113,620.53s15-13.51,22.42-10S145.89,624.46,141.95,634.21Z" fill="#dbdbdb" fill-rule="evenodd"/><line x1="76.21" y1="596.61" x2="76.21" y2="596.61" fill="#a2a2a2"/><path d="M78.42,598.33a2.84,2.84,0,1,1-4.4-3.46,2.83,2.83,0,1,1,4.4,3.46Z" fill="#b7b7b7" fill-rule="evenodd"/><path d="M129.85,628.91a2.82,2.82,0,1,1-1.1-4.18A3.08,3.08,0,0,1,129.85,628.91Z" fill="#b7b7b7" fill-rule="evenodd"/><path d="M51.69,573.57c-7.75,7.08-19.6,6.78-25.57-1.63S23.76,552,33.06,547.22s19.69-3.42,24.13,2.68S59.47,566.47,51.69,573.57Z" fill="#dbdbdb" fill-rule="evenodd"/><path d="M43.29,563.2A2.85,2.85,0,1,1,40,558.61a2.85,2.85,0,1,1,3.25,4.59Z" fill="#b7b7b7" fill-rule="evenodd"/><path d="M134.39,612.79l-14.06,29.76c0,.13,18,2.53,24.9,5,7.38,3,20.9,10.12,21.43,13s8.06-29.09,8.83-31.2-14.09,1.46-23.38-2.88C142.87,622.25,134.74,615.13,134.39,612.79Z" fill="#b7b7b7" fill-rule="evenodd"/><path d="M183.94,631.27l-8.48,31.81c.08,0,.87,0,3.94.12l6.88-.52c5.19-.34,11.24-.51,14.74.15,7.55,1.42,21.24,6.64,21.91,9.46s4.85-29.8,5.32-32-14.28,3-24.33.51a77.6,77.6,0,0,1-13.87-4.93,28.6,28.6,0,0,1-4.67-2.59A11.94,11.94,0,0,1,183.94,631.27Z" fill="#dbdbdb" fill-rule="evenodd"/><path d="M189.15,649.19a21,21,0,0,1-7.08,12.36c-1,.69-1.45,1.4-3.07,1.79a17.84,17.84,0,0,1-2.34.42c-.58.15-1.16.28-1.73.37a15.32,15.32,0,0,1-6.92-.41c-9.15-2.74-13.35-13.36-9.76-23.24s12.84-15.6,20.65-13.27a12.44,12.44,0,0,1,5.11,3,12.23,12.23,0,0,1,1,1.09c.19.34.29.72.46,1.09.24.74,1.2,1.72,1.64,2.68A21,21,0,0,1,189.15,649.19Z" fill="#dbdbdb" fill-rule="evenodd"/><path d="M247.45,660.26c-2,10.33-10.52,17.39-19.13,15.76s-14-11.34-12-21.67S226.83,637,235.42,638.6,249.41,649.93,247.45,660.26Z" fill="#dbdbdb" fill-rule="evenodd"/><line x1="173.46" y1="645.48" x2="173.46" y2="645.48" fill="#a2a2a2"/><path d="M176.14,646.26a2.83,2.83,0,1,1-1.73-4A3.11,3.11,0,0,1,176.14,646.26Z" fill="#b7b7b7" fill-rule="evenodd"/><path d="M234.58,657.82a2.81,2.81,0,1,1-2.09-3.77A3.08,3.08,0,0,1,234.58,657.82Z" fill="#b7b7b7" fill-rule="evenodd"/><path d="M141.94,634.21C138,644,127.74,649,119.19,645S108,629.74,113,620.53s15-13.51,22.42-10S145.89,624.46,141.94,634.21Z" fill="#dbdbdb" fill-rule="evenodd"/><path d="M129.84,628.91a2.82,2.82,0,1,1-1.1-4.18A3.08,3.08,0,0,1,129.84,628.91Z" fill="#b7b7b7" fill-rule="evenodd"/><path d="M235,641.06l-6.14,32.34s17.25-2,24.24-.7c7.55,1.42,21.25,6.63,21.92,9.46s4.84-29.8,5.31-32-14.29,3-24.33.51S236,643.25,235,641.06Z" fill="#b7b7b7" fill-rule="evenodd"/><path d="M289.41,651.39l-6.13,32.34s17.24-2,24.23-.71c7.55,1.42,21.25,6.63,21.92,9.45s4.83-29.8,5.3-32-14.28,3-24.33.52S290.43,653.57,289.41,651.39Z" fill="#dbdbdb" fill-rule="evenodd"/><path d="M295.64,669.4c-2,10.33-10.52,17.39-19.13,15.76s-14-11.33-12-21.67S275,646.11,283.6,647.73,297.59,659.07,295.64,669.4Z" fill="#dbdbdb" fill-rule="evenodd"/><path d="M353.93,680.43c-2,10.33-10.51,17.4-19.12,15.77s-14-11.33-12-21.67,10.51-17.39,19.11-15.77S355.89,670.1,353.93,680.43Z" fill="#dbdbdb" fill-rule="evenodd"/><line x1="280.05" y1="666.44" x2="280.05" y2="666.44" fill="#a2a2a2"/><ellipse cx="280.05" cy="666.45" rx="3.32" ry="2.76" transform="translate(-426.89 817.48) rotate(-79.27)" fill="#b7b7b7"/><path d="M341.06,678a2.81,2.81,0,1,1-2.09-3.77A3.09,3.09,0,0,1,341.06,678Z" fill="#b7b7b7" fill-rule="evenodd"/><path d="M247.44,660.26c-2,10.33-10.52,17.39-19.13,15.76s-14-11.34-12-21.67S226.82,637,235.42,638.6,249.4,649.93,247.44,660.26Z" fill="#dbdbdb" fill-rule="evenodd"/><path d="M234.57,657.82a2.81,2.81,0,1,1-2.09-3.77A3.08,3.08,0,0,1,234.57,657.82Z" fill="#b7b7b7" fill-rule="evenodd"/><path d="M341.43,661.24l-6.12,32.34s17.25-2,24.24-.72c7.55,1.41,21.25,6.62,21.93,9.45s4.82-29.8,5.29-32-14.29,3-24.33.53S342.46,663.42,341.43,661.24Z" fill="#b7b7b7" fill-rule="evenodd"/><path d="M395.89,671.54l-6.11,32.34s17.24-2,24.23-.72c7.55,1.41,21.25,6.62,21.93,9.44s4.82-29.8,5.28-32-14.28,3-24.33.53S396.91,673.72,395.89,671.54Z" fill="#dbdbdb" fill-rule="evenodd"/><ellipse cx="386.54" cy="686.6" rx="19.05" ry="15.86" transform="translate(-359.89 938.94) rotate(-79.3)" fill="#dbdbdb"/><path d="M460.43,700.55c-1.95,10.33-10.5,17.4-19.11,15.78s-14-11.32-12-21.66,10.51-17.4,19.11-15.78S462.38,690.21,460.43,700.55Z" fill="#dbdbdb" fill-rule="evenodd"/><line x1="386.54" y1="686.59" x2="386.54" y2="686.59" fill="#a2a2a2"/><ellipse cx="386.54" cy="686.6" rx="3.32" ry="2.76" transform="translate(-359.86 939) rotate(-79.3)" fill="#b7b7b7"/><path d="M447.56,698.12a2.81,2.81,0,1,1-2.09-3.77A3.08,3.08,0,0,1,447.56,698.12Z" fill="#b7b7b7" fill-rule="evenodd"/><path d="M353.93,680.43c-2,10.33-10.51,17.4-19.12,15.77s-14-11.33-12-21.66,10.51-17.39,19.11-15.77S355.88,670.1,353.93,680.43Z" fill="#dbdbdb" fill-rule="evenodd"/><path d="M341.06,678a2.8,2.8,0,1,1-2.09-3.77A3.08,3.08,0,0,1,341.06,678Z" fill="#b7b7b7" fill-rule="evenodd"/><path d="M447.92,681.36l-6.1,32.34s17.25-2,24.24-.73c7.55,1.41,21.26,6.61,21.93,9.43s4.81-29.8,5.28-32-14.28,3-24.33.54S448.94,683.54,447.92,681.36Z" fill="#b7b7b7" fill-rule="evenodd"/><path d="M502.38,691.63,496.29,724s17.24-2,24.23-.73c7.55,1.41,21.25,6.6,21.93,9.43s4.8-29.8,5.27-32-14.28,3-24.33.54S503.41,693.81,502.38,691.63Z" fill="#dbdbdb" fill-rule="evenodd"/><ellipse cx="493.04" cy="706.7" rx="19.05" ry="15.86" transform="translate(-292.77 1060.27) rotate(-79.32)" fill="#dbdbdb"/><path d="M566.94,720.61C565,730.95,556.44,738,547.83,736.4s-14-11.31-12.05-21.65,10.5-17.4,19.1-15.79S568.88,710.27,566.94,720.61Z" fill="#dbdbdb" fill-rule="evenodd"/><line x1="493.04" y1="706.69" x2="493.04" y2="706.69" fill="#a2a2a2"/><ellipse cx="493.04" cy="706.7" rx="3.32" ry="2.76" transform="translate(-292.76 1060.29) rotate(-79.32)" fill="#b7b7b7"/><path d="M554.06,718.19a2.81,2.81,0,1,1-2.09-3.77A3.08,3.08,0,0,1,554.06,718.19Z" fill="#b7b7b7" fill-rule="evenodd"/><path d="M460.43,700.55c-1.95,10.33-10.5,17.4-19.11,15.78s-14-11.32-12-21.66,10.51-17.4,19.11-15.78S462.38,690.21,460.43,700.55Z" fill="#dbdbdb" fill-rule="evenodd"/><path d="M447.55,698.12a2.8,2.8,0,1,1-2.09-3.77A3.08,3.08,0,0,1,447.55,698.12Z" fill="#b7b7b7" fill-rule="evenodd"/><path d="M554.41,701.43l-6.09,32.35s17.24-2,24.23-.74c7.55,1.41,21.26,6.6,21.93,9.42s4.8-29.8,5.26-32-14.28,3-24.33.55S555.44,703.61,554.41,701.43Z" fill="#b7b7b7" fill-rule="evenodd"/><path d="M608.89,711.67,602.81,744S620,742,627,743.28c7.55,1.41,21.25,6.6,21.93,9.42s4.79-29.81,5.26-32-14.28,3-24.33.55S609.91,713.86,608.89,711.67Z" fill="#dbdbdb" fill-rule="evenodd"/><path d="M615.14,729.67C613.2,740,604.64,747.08,596,745.46S582,734.15,584,723.82s10.5-17.41,19.1-15.79S617.08,719.33,615.14,729.67Z" fill="#dbdbdb" fill-rule="evenodd"/><path d="M673.45,740.62C671.52,751,663,758,654.36,756.42s-14-11.31-12.06-21.65,10.49-17.41,19.09-15.79S675.39,730.28,673.45,740.62Z" fill="#dbdbdb" fill-rule="evenodd"/><line x1="599.55" y1="726.74" x2="599.55" y2="726.74" fill="#a2a2a2"/><ellipse cx="599.55" cy="726.74" rx="3.32" ry="2.76" transform="translate(-225.63 1181.38) rotate(-79.33)" fill="#b7b7b7"/><path d="M660.58,738.21a2.81,2.81,0,1,1-2.1-3.77A3.08,3.08,0,0,1,660.58,738.21Z" fill="#b7b7b7" fill-rule="evenodd"/><path d="M566.93,720.61c-1.94,10.33-10.5,17.41-19.1,15.79s-14-11.32-12.05-21.65,10.5-17.4,19.1-15.79S568.88,710.27,566.93,720.61Z" fill="#dbdbdb" fill-rule="evenodd"/><path d="M554.06,718.19a2.8,2.8,0,1,1-2.09-3.77A3.08,3.08,0,0,1,554.06,718.19Z" fill="#b7b7b7" fill-rule="evenodd"/><path d="M660.92,721.45l-6.07,32.35s17.24-2.06,24.23-.75c7.55,1.4,21.26,6.59,21.94,9.41s4.78-29.81,5.25-32-14.28,3-24.33.56S662,723.63,660.92,721.45Z" fill="#b7b7b7" fill-rule="evenodd"/><path d="M715.4,731.67,709.34,764s17.24-2.06,24.23-.76c7.55,1.4,21.26,6.59,21.94,9.41s4.77-29.81,5.24-32-14.27,3-24.33.57S716.42,733.85,715.4,731.67Z" fill="#dbdbdb" fill-rule="evenodd"/><path d="M721.66,749.66c-1.94,10.34-10.49,17.42-19.1,15.8s-14-11.31-12.07-21.65S701,726.41,709.58,728,723.6,739.32,721.66,749.66Z" fill="#dbdbdb" fill-rule="evenodd"/><path d="M780,760.58C778,770.92,769.5,778,760.89,776.38s-14-11.3-12.07-21.64,10.48-17.41,19.08-15.8S781.91,750.24,780,760.58Z" fill="#dbdbdb" fill-rule="evenodd"/><line x1="706.07" y1="746.74" x2="706.07" y2="746.74" fill="#a2a2a2"/><path d="M708.79,747.25a2.81,2.81,0,1,1-2.11-3.76A3.08,3.08,0,0,1,708.79,747.25Z" fill="#b7b7b7" fill-rule="evenodd"/><path d="M767.11,758.17a2.81,2.81,0,1,1-2.1-3.77A3.08,3.08,0,0,1,767.11,758.17Z" fill="#b7b7b7" fill-rule="evenodd"/><path d="M673.45,740.62C671.51,751,663,758,654.35,756.42s-14-11.31-12.06-21.65,10.49-17.41,19.09-15.8S675.39,730.28,673.45,740.62Z" fill="#dbdbdb" fill-rule="evenodd"/><path d="M660.57,738.21a2.8,2.8,0,1,1-2.09-3.77A3.08,3.08,0,0,1,660.57,738.21Z" fill="#b7b7b7" fill-rule="evenodd"/><path d="M767.44,741.41l-6.06,32.36s17.24-2.07,24.24-.77c7.55,1.4,21.27,6.58,21.94,9.4s4.77-29.81,5.23-32-14.28,3-24.33.58S768.47,743.59,767.44,741.41Z" fill="#b7b7b7" fill-rule="evenodd"/><path d="M821.92,751.6l-6,32.36s17.24-2.07,24.23-.77c7.55,1.4,21.26,6.58,21.94,9.4s4.76-29.81,5.22-32-14.27,3-24.33.58S822.95,753.78,821.92,751.6Z" fill="#dbdbdb" fill-rule="evenodd"/><path d="M828.19,769.59c-1.93,10.34-10.48,17.42-19.09,15.81s-14-11.3-12.09-21.64S807.5,746.35,816.1,748,830.12,759.25,828.19,769.59Z" fill="#dbdbdb" fill-rule="evenodd"/><path d="M886.52,780.47c-1.93,10.34-10.46,17.42-19.08,15.82s-14-11.29-12.09-21.63,10.47-17.42,19.07-15.81S888.45,770.13,886.52,780.47Z" fill="#dbdbdb" fill-rule="evenodd"/><line x1="812.6" y1="766.68" x2="812.6" y2="766.68" fill="#a2a2a2"/><path d="M815.32,767.18a2.81,2.81,0,1,1-2.11-3.76A3.09,3.09,0,0,1,815.32,767.18Z" fill="#b7b7b7" fill-rule="evenodd"/><path d="M873.64,778.07a2.81,2.81,0,1,1-2.1-3.76A3.08,3.08,0,0,1,873.64,778.07Z" fill="#b7b7b7" fill-rule="evenodd"/><path d="M780,760.58C778,770.91,769.5,778,760.89,776.38s-14-11.3-12.07-21.64,10.48-17.41,19.08-15.8S781.91,750.24,780,760.58Z" fill="#dbdbdb" fill-rule="evenodd"/><path d="M767.1,758.17a2.8,2.8,0,1,1-2.1-3.77A3.08,3.08,0,0,1,767.1,758.17Z" fill="#b7b7b7" fill-rule="evenodd"/><path d="M874,761.31l-6,32.36s17.24-2.08,24.24-.78c7.55,1.4,21.27,6.57,21.95,9.39s4.75-29.81,5.21-32-14.28,3-24.33.59S875,763.49,874,761.31Z" fill="#b7b7b7" fill-rule="evenodd"/><path d="M928.45,771.47l-6,32.36s17.23-2.08,24.23-.79c7.55,1.39,21.27,6.56,22,9.38s4.73-29.82,5.19-32-14.27,3.06-24.33.6S929.48,773.65,928.45,771.47Z" fill="#dbdbdb" fill-rule="evenodd"/><ellipse cx="919.15" cy="786.55" rx="19.05" ry="15.86" transform="translate(-22.37 1546.18) rotate(-79.45)" fill="#dbdbdb"/><path d="M993.07,800.3c-1.92,10.34-10.45,17.43-19.07,15.83s-14-11.28-12.1-21.62,10.46-17.42,19.06-15.83S995,790,993.07,800.3Z" fill="#dbdbdb" fill-rule="evenodd"/><line x1="919.14" y1="786.55" x2="919.14" y2="786.55" fill="#a2a2a2"/><ellipse cx="919.15" cy="786.55" rx="3.32" ry="2.76" transform="translate(-22.16 1546.45) rotate(-79.47)" fill="#b7b7b7"/><path d="M980.19,797.91a2.81,2.81,0,1,1-2.1-3.76A3.08,3.08,0,0,1,980.19,797.91Z" fill="#b7b7b7" fill-rule="evenodd"/><path d="M886.51,780.47c-1.93,10.34-10.46,17.42-19.08,15.82s-14-11.29-12.09-21.63,10.47-17.42,19.07-15.81S888.44,770.13,886.51,780.47Z" fill="#dbdbdb" fill-rule="evenodd"/><path d="M873.64,778.07a2.8,2.8,0,1,1-2.1-3.76A3.08,3.08,0,0,1,873.64,778.07Z" fill="#b7b7b7" fill-rule="evenodd"/><path d="M980.5,781.15l-6,32.36s17.24-2.08,24.23-.8c7.56,1.39,21.28,6.55,22,9.37s4.73-29.82,5.19-32-14.27,3.06-24.33.61S981.54,783.33,980.5,781.15Z" fill="#b7b7b7" fill-rule="evenodd"/><path d="M1035,791.27l-6,32.37s17.23-2.1,24.23-.81c7.55,1.39,21.27,6.54,22,9.36s4.71-29.82,5.17-32-14.27,3.07-24.33.62S1036,793.45,1035,791.27Z" fill="#dbdbdb" fill-rule="evenodd"/><ellipse cx="1025.7" cy="806.36" rx="19.05" ry="15.86" transform="translate(45.8 1667.79) rotate(-79.49)" fill="#dbdbdb"/><path d="M1099.64,820.05c-1.91,10.34-10.44,17.44-19.06,15.84s-14-11.27-12.12-21.61,10.45-17.43,19-15.84S1101.55,809.71,1099.64,820.05Z" fill="#dbdbdb" fill-rule="evenodd"/><line x1="1025.7" y1="806.36" x2="1025.7" y2="806.36" fill="#a2a2a2"/><path d="M1028.42,806.86a2.81,2.81,0,1,1-2.11-3.76A3.08,3.08,0,0,1,1028.42,806.86Z" fill="#b7b7b7" fill-rule="evenodd"/><path d="M1086.76,817.67a2.81,2.81,0,1,1-2.1-3.76A3.08,3.08,0,0,1,1086.76,817.67Z" fill="#b7b7b7" fill-rule="evenodd"/><path d="M993.07,800.3c-1.92,10.34-10.45,17.43-19.07,15.83s-14-11.28-12.1-21.62,10.46-17.42,19.06-15.83S995,790,993.07,800.3Z" fill="#dbdbdb" fill-rule="evenodd"/><path d="M980.18,797.91a2.8,2.8,0,1,1-2.1-3.76A3.08,3.08,0,0,1,980.18,797.91Z" fill="#b7b7b7" fill-rule="evenodd"/><path d="M1087.06,800.91l-6,32.37s17.24-2.1,24.24-.81c7.56,1.38,21.28,6.54,22,9.36s4.71-29.82,5.16-32-14.27,3.07-24.33.63S1088.09,803.09,1087.06,800.91Z" fill="#b7b7b7" fill-rule="evenodd"/><path d="M1141.56,811l-6,32.37s17.23-2.11,24.23-.83c7.55,1.38,21.28,6.52,22,9.34s4.69-29.82,5.14-32-14.26,3.08-24.33.64S1142.59,813.16,1141.56,811Z" fill="#dbdbdb" fill-rule="evenodd"/><ellipse cx="1132.27" cy="826.08" rx="19.05" ry="15.86" transform="matrix(0.18, -0.98, 0.98, 0.18, 114.31, 1789.52)" fill="#dbdbdb"/><path d="M1206.22,839.71c-1.9,10.35-10.42,17.45-19,15.87s-14-11.26-12.13-21.6,10.43-17.44,19-15.86S1208.12,829.37,1206.22,839.71Z" fill="#dbdbdb" fill-rule="evenodd"/><line x1="1132.27" y1="826.08" x2="1132.27" y2="826.08" fill="#a2a2a2"/><path d="M1135,826.59a2.81,2.81,0,1,1-2.11-3.76A3.08,3.08,0,0,1,1135,826.59Z" fill="#b7b7b7" fill-rule="evenodd"/><path d="M1193.34,837.34a2.81,2.81,0,1,1-2.11-3.76A3.08,3.08,0,0,1,1193.34,837.34Z" fill="#b7b7b7" fill-rule="evenodd"/><path d="M1099.63,820.05c-1.91,10.34-10.44,17.44-19.06,15.84s-14-11.27-12.12-21.61,10.45-17.43,19-15.84S1101.54,809.71,1099.63,820.05Z" fill="#dbdbdb" fill-rule="evenodd"/><path d="M1086.75,817.67a2.81,2.81,0,1,1-2.1-3.76A3.08,3.08,0,0,1,1086.75,817.67Z" fill="#b7b7b7" fill-rule="evenodd"/><path d="M1193.62,820.59l-6,32.37s17.24-2.12,24.23-.84c7.56,1.38,21.29,6.52,22,9.33s4.68-29.83,5.13-32-14.27,3.09-24.33.65S1194.66,822.76,1193.62,820.59Z" fill="#b7b7b7" fill-rule="evenodd"/><path d="M1248.13,830.61,1242.19,863s17.23-2.13,24.23-.85c7.56,1.37,21.28,6.51,22,9.32s4.65-29.83,5.11-32-14.26,3.09-24.33.66S1249.16,832.79,1248.13,830.61Z" fill="#dbdbdb" fill-rule="evenodd"/><path d="M1254.46,848.58c-1.9,10.35-10.42,17.45-19,15.87s-14.05-11.25-12.15-21.6,10.42-17.45,19-15.87S1256.36,838.24,1254.46,848.58Z" fill="#dbdbdb" fill-rule="evenodd"/><path d="M1312.82,859.27c-1.89,10.35-10.41,17.46-19,15.88s-14.05-11.25-12.16-21.59,10.41-17.45,19-15.88S1314.71,848.92,1312.82,859.27Z" fill="#dbdbdb" fill-rule="evenodd"/><line x1="1238.86" y1="845.72" x2="1238.86" y2="845.72" fill="#a2a2a2"/><ellipse cx="1238.86" cy="845.72" rx="3.32" ry="2.76" transform="matrix(0.18, -0.98, 0.98, 0.18, 183.38, 1911.54)" fill="#b7b7b7"/><path d="M1299.94,856.91a2.81,2.81,0,1,1-2.11-3.75A3.08,3.08,0,0,1,1299.94,856.91Z" fill="#b7b7b7" fill-rule="evenodd"/><path d="M1206.22,839.71c-1.9,10.35-10.43,17.45-19,15.87s-14-11.26-12.13-21.6,10.43-17.44,19-15.86S1208.12,829.37,1206.22,839.71Z" fill="#dbdbdb" fill-rule="evenodd"/><path d="M1193.33,837.34a2.8,2.8,0,1,1-2.11-3.76A3.08,3.08,0,0,1,1193.33,837.34Z" fill="#b7b7b7" fill-rule="evenodd"/><path d="M1300.2,840.16l-5.93,32.38s17.24-2.13,24.24-.86c7.56,1.37,21.3,6.49,22,9.31s4.64-29.83,5.09-32-14.26,3.1-24.33.68S1301.25,842.33,1300.2,840.16Z" fill="#b7b7b7" fill-rule="evenodd"/><path d="M1354.72,850.12l-5.91,32.38s17.23-2.15,24.23-.88c7.56,1.36,21.29,6.48,22,9.29s4.62-29.83,5.07-32-14.26,3.12-24.33.7S1355.76,852.29,1354.72,850.12Z" fill="#dbdbdb" fill-rule="evenodd"/><path d="M1361.08,868.08c-1.89,10.35-10.4,17.46-19,15.89s-14.07-11.24-12.18-21.59,10.4-17.46,19-15.89S1363,857.73,1361.08,868.08Z" fill="#dbdbdb" fill-rule="evenodd"/><path d="M1419.45,878.7c-1.87,10.35-10.38,17.48-19,15.91s-14.07-11.23-12.19-21.58,10.39-17.47,19-15.91S1421.33,868.35,1419.45,878.7Z" fill="#dbdbdb" fill-rule="evenodd"/><line x1="1345.47" y1="865.24" x2="1345.47" y2="865.24" fill="#a2a2a2"/><ellipse cx="1345.47" cy="865.24" rx="3.32" ry="2.76" transform="translate(252.86 2033.63) rotate(-79.66)" fill="#b7b7b7"/><path d="M1406.56,876.36a2.81,2.81,0,1,1-2.12-3.76A3.09,3.09,0,0,1,1406.56,876.36Z" fill="#b7b7b7" fill-rule="evenodd"/><path d="M1312.82,859.27c-1.89,10.35-10.41,17.46-19,15.88s-14.05-11.25-12.16-21.59,10.41-17.45,19-15.88S1314.71,848.92,1312.82,859.27Z" fill="#dbdbdb" fill-rule="evenodd"/><path d="M1299.93,856.91a2.81,2.81,0,1,1-2.12-3.76A3.08,3.08,0,0,1,1299.93,856.91Z" fill="#b7b7b7" fill-rule="evenodd"/><path d="M1406.8,859.6,1400.92,892s17.24-2.16,24.24-.9c7.56,1.36,21.31,6.46,22,9.28s4.6-29.84,5.05-32-14.26,3.12-24.33.71S1407.85,861.77,1406.8,859.6Z" fill="#b7b7b7" fill-rule="evenodd"/><path d="M1461.33,869.48l-5.85,32.39s17.22-2.17,24.22-.91c7.56,1.35,21.31,6.44,22,9.26s4.57-29.84,5-32-14.25,3.14-24.33.74S1462.38,871.66,1461.33,869.48Z" fill="#dbdbdb" fill-rule="evenodd"/><path d="M1467.71,887.43c-1.87,10.35-10.37,17.48-19,15.92s-14.09-11.22-12.21-21.57,10.38-17.48,19-15.92S1469.58,877.08,1467.71,887.43Z" fill="#dbdbdb" fill-rule="evenodd"/><path d="M1526.11,898c-1.86,10.35-10.35,17.5-19,15.94s-14.09-11.2-12.23-21.55,10.37-17.49,19-15.94S1528,887.6,1526.11,898Z" fill="#dbdbdb" fill-rule="evenodd"/><line x1="1452.11" y1="884.62" x2="1452.11" y2="884.62" fill="#a2a2a2"/><path d="M1454.82,885.11a2.81,2.81,0,1,1-2.13-3.75A3.08,3.08,0,0,1,1454.82,885.11Z" fill="#b7b7b7" fill-rule="evenodd"/><path d="M1513.22,895.64a2.81,2.81,0,1,1-2.13-3.75A3.09,3.09,0,0,1,1513.22,895.64Z" fill="#b7b7b7" fill-rule="evenodd"/><path d="M1419.45,878.7c-1.88,10.35-10.38,17.48-19,15.91s-14.07-11.23-12.19-21.58,10.39-17.46,19-15.9S1421.32,868.35,1419.45,878.7Z" fill="#dbdbdb" fill-rule="evenodd"/><path d="M1406.56,876.36a2.81,2.81,0,1,1-2.12-3.76A3.08,3.08,0,0,1,1406.56,876.36Z" fill="#b7b7b7" fill-rule="evenodd"/><path d="M1513.43,878.88l-5.82,32.39s17.23-2.19,24.23-.94c7.56,1.34,21.32,6.42,22,9.24s4.53-29.85,5-32-14.25,3.15-24.33.76S1514.48,881.05,1513.43,878.88Z" fill="#b7b7b7" fill-rule="evenodd"/><path d="M1568,888.66l-5.79,32.4s17.23-2.21,24.23-1c7.56,1.33,21.32,6.39,22,9.21s4.5-29.86,4.94-32.06-14.25,3.17-24.33.79S1569,890.83,1568,888.66Z" fill="#dbdbdb" fill-rule="evenodd"/><path d="M1574.39,906.6c-1.84,10.36-10.33,17.5-19,16s-14.1-11.19-12.25-21.54,10.35-17.5,19-16S1576.23,896.24,1574.39,906.6Z" fill="#dbdbdb" fill-rule="evenodd"/><ellipse cx="1617.2" cy="914.21" rx="19.05" ry="15.85" transform="translate(434.73 2347.01) rotate(-79.95)" fill="#dbdbdb"/><line x1="1558.78" y1="903.81" x2="1558.78" y2="903.81" fill="#a2a2a2"/><ellipse cx="1558.78" cy="903.81" rx="3.32" ry="2.76" transform="translate(395.05 2279.45) rotate(-79.88)" fill="#b7b7b7"/><path d="M1619.91,914.7a2.81,2.81,0,1,1-2.13-3.75A3.08,3.08,0,0,1,1619.91,914.7Z" fill="#b7b7b7" fill-rule="evenodd"/><path d="M1526.1,898c-1.85,10.35-10.35,17.5-19,15.94s-14.09-11.2-12.23-21.55,10.36-17.49,19-15.94S1528,887.6,1526.1,898Z" fill="#dbdbdb" fill-rule="evenodd"/><path d="M1513.21,895.64a2.81,2.81,0,1,1-2.13-3.75A3.08,3.08,0,0,1,1513.21,895.64Z" fill="#b7b7b7" fill-rule="evenodd"/><path d="M1620.08,897.94l-5.75,32.41s17.23-2.23,24.24-1c7.57,1.33,21.34,6.36,22,9.18s4.45-29.86,4.89-32.06-14.24,3.2-24.31.83S1621.14,900.1,1620.08,897.94Z" fill="#b7b7b7" fill-rule="evenodd"/><path d="M1674.65,907.57,1669,940s17.23-2.26,24.23-1c7.57,1.31,21.35,6.32,22.07,9.13s4.38-29.87,4.82-32.07-14.23,3.22-24.31.88S1675.7,909.73,1674.65,907.57Z" fill="#dbdbdb" fill-rule="evenodd"/><path d="M1681.12,925.49c-1.82,10.36-10.28,17.54-18.92,16s-14.14-11.15-12.31-21.51,10.29-17.52,18.91-16S1682.94,915.13,1681.12,925.49Z" fill="#dbdbdb" fill-rule="evenodd"/><path d="M1739.58,935.66c-1.78,10.37-10.24,17.56-18.88,16.07s-14.17-11.12-12.36-21.48,10.25-17.55,18.86-16.05S1741.37,925.29,1739.58,935.66Z" fill="#dbdbdb" fill-rule="evenodd"/><line x1="1665.5" y1="922.74" x2="1665.5" y2="922.74" fill="#a2a2a2"/><path d="M1668.22,923.22a2.81,2.81,0,1,1-2.15-3.74A3.08,3.08,0,0,1,1668.22,923.22Z" fill="#b7b7b7" fill-rule="evenodd"/><path d="M1726.67,933.43a2.81,2.81,0,1,1-2.15-3.74A3.08,3.08,0,0,1,1726.67,933.43Z" fill="#b7b7b7" fill-rule="evenodd"/><path d="M1632.81,917c-1.83,10.36-10.31,17.52-18.94,16s-14.12-11.17-12.28-21.53,10.32-17.51,18.93-16S1634.64,906.62,1632.81,917Z" fill="#dbdbdb" fill-rule="evenodd"/><path d="M1619.91,914.69a2.8,2.8,0,1,1-2.13-3.75A3.08,3.08,0,0,1,1619.91,914.69Z" fill="#b7b7b7" fill-rule="evenodd"/><path d="M1726.78,916.67l-5.62,32.43s17.23-2.29,24.24-1.09c7.57,1.29,21.38,6.26,22.1,9.07s4.3-29.88,4.73-32.09-14.22,3.26-24.31.94S1727.84,918.83,1726.78,916.67Z" fill="#b7b7b7" fill-rule="evenodd"/><path d="M1781.37,926l-5.53,32.45s17.22-2.35,24.24-1.18c7.57,1.27,21.4,6.19,22.14,9s4.18-29.9,4.59-32.11-14.19,3.32-24.29,1S1782.43,928.21,1781.37,926Z" fill="#dbdbdb" fill-rule="evenodd"/><path d="M1787.93,943.94c-1.76,10.37-10.19,17.59-18.85,16.12s-14.21-11.09-12.42-21.45,10.21-17.57,18.83-16.1S1789.69,933.57,1787.93,943.94Z" fill="#dbdbdb" fill-rule="evenodd"/><path d="M1846.47,953.72c-1.7,10.38-10.09,17.65-18.76,16.21s-14.26-11-12.52-21.4,10.14-17.61,18.75-16.18S1848.17,943.34,1846.47,953.72Z" fill="#dbdbdb" fill-rule="evenodd"/><line x1="1772.29" y1="941.28" x2="1772.29" y2="941.28" fill="#a2a2a2"/><path d="M1775,941.74a2.81,2.81,0,1,1-2.16-3.73A3.09,3.09,0,0,1,1775,941.74Z" fill="#b7b7b7" fill-rule="evenodd"/><path d="M1833.54,951.58a2.81,2.81,0,1,1-2.18-3.72A3.09,3.09,0,0,1,1833.54,951.58Z" fill="#b7b7b7" fill-rule="evenodd"/><path d="M1739.57,935.66c-1.78,10.37-10.23,17.56-18.88,16.07s-14.16-11.12-12.36-21.48,10.26-17.54,18.87-16S1741.37,925.29,1739.57,935.66Z" fill="#dbdbdb" fill-rule="evenodd"/><path d="M1726.67,933.43a2.81,2.81,0,1,1-2.15-3.74A3.08,3.08,0,0,1,1726.67,933.43Z" fill="#b7b7b7" fill-rule="evenodd"/><path d="M1833.52,934.83l-5.39,32.47s17.23-2.42,24.26-1.29c7.59,1.23,21.47,6.06,22.23,8.86s4-29.93,4.37-32.13-14.17,3.42-24.27,1.18S1834.6,937,1833.52,934.83Z" fill="#b7b7b7" fill-rule="evenodd"/><path d="M1888.14,943.68,1883,976.2s17.23-2.56,24.29-1.51c7.62,1.15,21.62,5.79,22.45,8.57s3.44-30,3.82-32.21-14.05,3.66-24.19,1.53S1889.22,945.83,1888.14,943.68Z" fill="#dbdbdb" fill-rule="evenodd"/><path d="M1894.92,961.48c-1.61,10.39-10,17.73-18.67,16.35s-14.35-10.94-12.67-21.32,10-17.67,18.65-16.3S1896.53,951.09,1894.92,961.48Z" fill="#dbdbdb" fill-rule="evenodd"/><path d="M1953.73,969.93c-1.24,10.45-9.54,18-18.36,16.8s-14.64-10.71-13.11-21.11,9.76-17.81,18.31-16.63S1955,959.49,1953.73,969.93Z" fill="#dbdbdb" fill-rule="evenodd"/><line x1="1879.25" y1="959.01" x2="1879.25" y2="959.01" fill="#a2a2a2"/><ellipse cx="1879.24" cy="959.02" rx="3.32" ry="2.76" transform="translate(637.08 2664.39) rotate(-80.97)" fill="#b7b7b7"/><path d="M1940.71,968.24a2.81,2.81,0,1,1-2.29-3.66A3.08,3.08,0,0,1,1940.71,968.24Z" fill="#b7b7b7" fill-rule="evenodd"/><path d="M1846.47,953.71c-1.7,10.38-10.1,17.65-18.76,16.21s-14.26-11-12.52-21.4,10.14-17.61,18.75-16.18S1848.16,943.34,1846.47,953.71Z" fill="#dbdbdb" fill-rule="evenodd"/><path d="M1833.54,951.58a2.81,2.81,0,1,1-2.18-3.72A3.08,3.08,0,0,1,1833.54,951.58Z" fill="#b7b7b7" fill-rule="evenodd"/><path d="M1940.24,951.49l-4.5,32.61s17.3-2.88,24.6-2.15c4,.41,9.4,1.66,15.16,2.81a31.21,31.21,0,0,0,5.32.65,9.29,9.29,0,0,1,1.84.23l1.51.27c1.87.38,3.13.87,3.54,1.48,1.6,2.45-5-29.78-5.17-32-.06-.56-.85-.38-2.1.19l-2.3,1.12c0,.35-.66.77-1.59,1.16-3.83,1.55-10.08,2.76-15,1.92C1951.46,958.07,1941.34,953.61,1940.24,951.49Z" fill="#b7b7b7" fill-rule="evenodd"/><path d="M1991.17,953.56l5.38,32.47c.11.06,16-8.1,23-9.66,7.66-1.57,22.52-2.4,24.32-.14s-7.82-29.16-8.26-31.36-11.64,8.55-21.83,10S1992.8,955.29,1991.17,953.56Z" fill="#dbdbdb" fill-rule="evenodd"/><path d="M2003.25,968.21c2,10.32-3.63,20.11-13,21.5a15.83,15.83,0,0,1-6.92-.58,12.09,12.09,0,0,1-1.49-.63,16.92,16.92,0,0,1-2.8-.74,10.14,10.14,0,0,1-3.49-2.31c-3.51-3.55-4.78-8.48-4.46-13.71a25.48,25.48,0,0,1,5.09-13.21,17.94,17.94,0,0,0,1.56-2.33c.31-.35,0-.66.22-1,.41-.34.85-.66,1.27-1a12,12,0,0,1,5.47-2.25C1992.89,950.82,2001.28,957.87,2003.25,968.21Z" fill="#dbdbdb" fill-rule="evenodd"/><path d="M2061.28,955c2.71,10.16-2.12,20.28-10.85,22.43s-17.72-4.57-20-14.83,2.59-20.11,10.91-22.16S2058.57,944.79,2061.28,955Z" fill="#dbdbdb" fill-rule="evenodd"/><line x1="1987.5" y1="970.87" x2="1987.5" y2="970.87" fill="#a2a2a2"/><path d="M1990.26,970.45a2.83,2.83,0,1,1-3.24-2.87A3.08,3.08,0,0,1,1990.26,970.45Z" fill="#b7b7b7" fill-rule="evenodd"/><path d="M2048.56,958.22a2.81,2.81,0,1,1-3.47-2.55A3.08,3.08,0,0,1,2048.56,958.22Z" fill="#b7b7b7" fill-rule="evenodd"/><path d="M1953.73,969.93c-1.25,10.45-9.54,18-18.36,16.8s-14.64-10.71-13.11-21.11,9.76-17.81,18.31-16.63S1955,959.49,1953.73,969.93Z" fill="#dbdbdb" fill-rule="evenodd"/><path d="M1940.7,968.24a2.81,2.81,0,1,1-2.28-3.66A3.08,3.08,0,0,1,1940.7,968.24Z" fill="#b7b7b7" fill-rule="evenodd"/><path d="M2041.92,942.83l7.87,32s15.09-9.15,22-11.09c7.5-2,22.27-3.63,24.19-1.46s-9.35-28.7-9.92-30.88-11.2,9.16-21.29,11.27S2043.73,944.4,2041.92,942.83Z" fill="#b7b7b7" fill-rule="evenodd"/><path d="M2094.61,928.28l9.63,31.48s14.55-10,21.35-12.27c7.38-2.42,22.06-4.88,24.11-2.83s-11-28.12-11.67-30.26-10.64,9.77-20.62,12.43S2096.51,929.75,2094.61,928.28Z" fill="#dbdbdb" fill-rule="evenodd"/><path d="M2108.52,941.27c3.2,10-1.15,20.35-9.75,22.92s-17.89-3.69-20.72-13.82,1.59-20.22,9.82-22.68S2105.31,931.25,2108.52,941.27Z" fill="#dbdbdb" fill-rule="evenodd"/><path d="M2164.66,921.57c3.86,9.79.17,20.4-8.3,23.51s-18.12-2.58-21.54-12.53.37-20.27,8.4-23.23S2160.81,911.78,2164.66,921.57Z" fill="#dbdbdb" fill-rule="evenodd"/><line x1="2093.32" y1="945.94" x2="2093.32" y2="945.94" fill="#a2a2a2"/><path d="M2096,945.15a2.81,2.81,0,1,1-3.6-2.38A3.08,3.08,0,0,1,2096,945.15Z" fill="#b7b7b7" fill-rule="evenodd"/><path d="M2152.38,926.24a2.81,2.81,0,1,1-3.73-2.16A3.08,3.08,0,0,1,2152.38,926.24Z" fill="#b7b7b7" fill-rule="evenodd"/><path d="M2061.28,955c2.71,10.16-2.11,20.27-10.85,22.42s-17.72-4.57-20-14.83,2.59-20.11,10.92-22.16S2058.56,944.79,2061.28,955Z" fill="#dbdbdb" fill-rule="evenodd"/><path d="M2048.55,958.22a2.81,2.81,0,1,1-3.47-2.56A3.08,3.08,0,0,1,2048.55,958.22Z" fill="#b7b7b7" fill-rule="evenodd"/><path d="M2144.08,911.68l11.36,30.9s14-10.78,20.69-13.52c7.25-2.86,21.8-6.3,24-4.41s-12.85-27.32-13.68-29.41-9.92,10.44-19.71,13.69S2146,913,2144.08,911.68Z" fill="#b7b7b7" fill-rule="evenodd"/><path d="M2194.46,891.13l13.6,30s13.28-11.84,19.72-15.18c7-3.47,21.31-8.34,23.7-6.71s-15.53-25.89-16.55-27.89-8.75,11.31-18.23,15.34S2196.51,892.35,2194.46,891.13Z" fill="#dbdbdb" fill-rule="evenodd"/><path d="M2209.93,902.19c4.53,9.49,1.53,20.37-6.79,24s-18.34-1.43-22.33-11.15-.84-20.25,6.93-23.69S2205.39,892.7,2209.93,902.19Z" fill="#dbdbdb" fill-rule="evenodd"/><path d="M2262.3,873.65c5.73,8.83,4,20.1-4.06,24.77s-18.59.6-23.5-8.69-2.87-20,4.34-24.23S2256.58,864.83,2262.3,873.65Z" fill="#dbdbdb" fill-rule="evenodd"/><line x1="2195.44" y1="908.81" x2="2195.44" y2="908.81" fill="#a2a2a2"/><path d="M2198,907.69a2.82,2.82,0,1,1-3.88-1.91A3.08,3.08,0,0,1,2198,907.69Z" fill="#b7b7b7" fill-rule="evenodd"/><path d="M2251.05,880.55a2.82,2.82,0,1,1-4.06-1.46A3.08,3.08,0,0,1,2251.05,880.55Z" fill="#b7b7b7" fill-rule="evenodd"/><path d="M2164.66,921.57c3.85,9.79.16,20.4-8.3,23.51s-18.12-2.58-21.54-12.52.37-20.28,8.39-23.23S2160.81,911.78,2164.66,921.57Z" fill="#dbdbdb" fill-rule="evenodd"/><path d="M2152.37,926.24a2.81,2.81,0,1,1-3.73-2.16A3.08,3.08,0,0,1,2152.37,926.24Z" fill="#b7b7b7" fill-rule="evenodd"/><path d="M2240.35,867.66l16.55,28.45c.08,0,12.19-13.28,18.23-17.49,6.67-4.32,20.34-11.43,23-10.28s-19.42-23.12-20.71-25-6.73,12.38-15.64,17.5C2253,866,2242.49,868.67,2240.35,867.66Z" fill="#b7b7b7" fill-rule="evenodd"/><path d="M2283.8,837.49l21.36,25c.15.06,10-15.72,14.93-21.55,2.82-3.06,7.22-7.24,11.15-10.89s7.46-6.71,9-6.58c2.94.31-25.9-15.51-27.67-16.92-.95-.63-1.3,2.61-2.57,7s-3.46,9.91-7,13.32C2295.81,833.78,2286,838.15,2283.8,837.49Z" fill="#dbdbdb" fill-rule="evenodd"/><path d="M2301.69,843.69c7.29,7.57,7.37,19.27-.17,25.33s-18.7,3.47-24.73-5.14-5.47-19.42.8-24.5S2294.4,836.09,2301.69,843.69Z" fill="#dbdbdb" fill-rule="evenodd"/><path d="M2337.34,795.65a21.75,21.75,0,0,1,9.39,10.67,16.2,16.2,0,0,1,1.17,6.24,13.16,13.16,0,0,1-.41,3,12.54,12.54,0,0,1-1.34,3.2c-5.35,9.43-17.31,10.67-25.53,4.16s-11.12-16.65-7.64-22.89C2317.08,792.57,2328.34,790.21,2337.34,795.65Z" fill="#dbdbdb" fill-rule="evenodd"/><line x1="2289.56" y1="854.2" x2="2289.56" y2="854.2" fill="#a2a2a2"/><path d="M2291.72,852.43a2.84,2.84,0,1,1-4.34,3.51,2.83,2.83,0,1,1,4.34-3.51Z" fill="#b7b7b7" fill-rule="evenodd"/><path d="M2330.93,807a3,3,0,0,1,1.53,4.07,3.06,3.06,0,0,1-4.32.82,3.15,3.15,0,0,1-1.46-4.08A3.11,3.11,0,0,1,2330.93,807Z" fill="#b7b7b7" fill-rule="evenodd"/><path d="M2262.3,873.65c5.73,8.82,4,20.09-4.06,24.76s-18.59.6-23.5-8.69-2.87-20,4.35-24.23S2256.57,864.83,2262.3,873.65Z" fill="#dbdbdb" fill-rule="evenodd"/><path d="M2251,880.55a2.82,2.82,0,1,1-4.06-1.46A3.07,3.07,0,0,1,2251,880.55Z" fill="#b7b7b7" fill-rule="evenodd"/><path d="M2315.17,801.3l28.66,16.19,2.2-9.29c1.25-4.88,3.07-10.54,4.85-13.53,3.82-6.49,13.57-17.22,16.45-16.8s-26-15.4-27.84-16.62-2.48,14.47-8.3,23.14S2317.38,801.38,2315.17,801.3Z" fill="#b7b7b7" fill-rule="evenodd"/><path d="M2344,753.16l27.8,17.62s4.48-16.73,8.3-22.82c4.12-6.51,14-17.68,16.84-17.4s-26.29-14.83-28.17-16.06-2.08,14.28-8.11,22.71S2346.41,753,2344,753.16Z" fill="#dbdbdb" fill-rule="evenodd"/><path d="M2363.05,754c8.88,5.64,12.25,16.22,7.63,23.55s-15.48,8.74-24.47,3.27-12.48-16.11-7.75-23.58S2354.17,748.38,2363.05,754Z" fill="#dbdbdb" fill-rule="evenodd"/><path d="M2393.88,703.13c9.24,5,13.12,15.66,8.51,23.49s-15.69,9.48-24.62,4-12.52-16-8.2-23.28S2384.66,698.1,2393.88,703.13Z" fill="#dbdbdb" fill-rule="evenodd"/><line x1="2354.57" y1="767.4" x2="2354.57" y2="767.4" fill="#a2a2a2"/><path d="M2356,765.07a2.8,2.8,0,1,1-4.28.56A3.08,3.08,0,0,1,2356,765.07Z" fill="#b7b7b7" fill-rule="evenodd"/><path d="M2387.38,714.58a2.82,2.82,0,1,1-4.26.71A3.08,3.08,0,0,1,2387.38,714.58Z" fill="#b7b7b7" fill-rule="evenodd"/><path d="M2337.34,795.65a21.77,21.77,0,0,1,9.39,10.67,16.06,16.06,0,0,1,1.16,6.24,12.82,12.82,0,0,1-.41,3,12.44,12.44,0,0,1-1.34,3.2c-5.35,9.43-17.31,10.67-25.53,4.16s-11.13-16.65-7.64-22.89C2317.08,792.58,2328.34,790.21,2337.34,795.65Z" fill="#dbdbdb" fill-rule="evenodd"/><path d="M2330.92,807c1.61.89,2.34,2.64,1.53,4.07a3.06,3.06,0,0,1-4.32.82,3.16,3.16,0,0,1-1.46-4.08A3.11,3.11,0,0,1,2330.92,807Z" fill="#b7b7b7" fill-rule="evenodd"/><path d="M2371.73,708.57l28.36,16.71c.06,0,4.06-17.33,7.41-23.8,3.78-6.9,12.57-19.28,15.47-19.37s-27.73-11.92-29.72-13-.46,14.24-5.9,23C2382.05,700.84,2374.12,708.38,2371.73,708.57Z" fill="#b7b7b7" fill-rule="evenodd"/><path d="M2396.42,660.87,2426.61,674c.13,0,2-18.05,4.25-25,2.77-7.49,9.38-21.33,12.22-21.94s-29.38-7-31.52-7.67,2,14-2,23.42C2405.64,652.08,2398.77,660.44,2396.42,660.87Z" fill="#dbdbdb" fill-rule="evenodd"/><path d="M2415.27,658.64c9.8,3.83,14.92,14.06,11,22.59s-14.9,11.3-24.26,6.5-13.85-14.74-10.41-22.29S2405.48,654.81,2415.27,658.64Z" fill="#dbdbdb" fill-rule="evenodd"/><path d="M2432.12,601.28c10.35,1.85,17.38,10.93,15.12,20.17s-12.7,14-22.72,10.9-16.21-12-14.28-20S2421.76,599.43,2432.12,601.28Z" fill="#dbdbdb" fill-rule="evenodd"/><line x1="2408.97" y1="673.34" x2="2408.97" y2="673.34" fill="#a2a2a2"/><path d="M2410.12,670.8a2.82,2.82,0,1,1-2.3,5.06,2.82,2.82,0,1,1,2.3-5.06Z" fill="#b7b7b7" fill-rule="evenodd"/><path d="M2429.38,614.22a2.82,2.82,0,1,1-3.86,1.92A3.08,3.08,0,0,1,2429.38,614.22Z" fill="#b7b7b7" fill-rule="evenodd"/><path d="M2393.88,703.14c9.24,5,13.12,15.66,8.5,23.49s-15.68,9.48-24.62,4-12.51-16-8.2-23.28S2384.66,698.1,2393.88,703.14Z" fill="#dbdbdb" fill-rule="evenodd"/><path d="M2387.38,714.58a2.81,2.81,0,1,1-4.26.7A3.08,3.08,0,0,1,2387.38,714.58Z" fill="#b7b7b7" fill-rule="evenodd"/><path d="M2412.68,613l32,7.83c.13-.05-1.13-18.26-.13-25.54,1.39-7.88,5.49-22.65,8.14-23.74s-30.14-1.7-32.36-2,4.46,13.46,2.13,23.42C2420.26,602.83,2414.91,612.18,2412.68,613Z" fill="#b7b7b7" fill-rule="evenodd"/><path d="M2420.42,560.72l32.86,1.88c.13-.07-4.4-17.65-4.66-24.95,0-8,1.59-23.06,4.09-24.54s-30,3.12-32.27,3.19,6.57,12.65,6,22.88S2422.5,559.53,2420.42,560.72Z" fill="#dbdbdb" fill-rule="evenodd"/><path d="M2437.35,552.12c10.49.2,18.87,8,18.14,17.44s-10.21,15.89-20.62,14.44-18-9.19-17.36-17.38S2426.81,551.92,2437.35,552.12Z" fill="#dbdbdb" fill-rule="evenodd"/><path d="M2434.11,492.5c10.41-1.42,19.87,4.86,20.73,14.13s-7.33,17.21-17.83,17.66-19.33-5.9-20.1-14.18S2423.68,493.92,2434.11,492.5Z" fill="#dbdbdb" fill-rule="evenodd"/><line x1="2436.5" y1="568.1" x2="2436.5" y2="568.1" fill="#a2a2a2"/><path d="M2436.72,565.32a2.83,2.83,0,1,1-.44,5.55,2.83,2.83,0,1,1,.44-5.55Z" fill="#b7b7b7" fill-rule="evenodd"/><path d="M2435.61,505.59a2.82,2.82,0,1,1-3,3.07A3.1,3.1,0,0,1,2435.61,505.59Z" fill="#b7b7b7" fill-rule="evenodd"/><path d="M2432.12,601.29c10.35,1.85,17.38,10.93,15.12,20.17s-12.7,14-22.72,10.9-16.21-12-14.28-20S2421.76,599.44,2432.12,601.29Z" fill="#dbdbdb" fill-rule="evenodd"/><path d="M2429.38,614.23a2.82,2.82,0,1,1-3.87,1.91A3.11,3.11,0,0,1,2429.38,614.23Z" fill="#b7b7b7" fill-rule="evenodd"/><path d="M2419.41,509.87l32.78-3c.06-.07-6.89-16.65-8.11-23.8-1.12-7.82-1.28-22.9,1-24.63s-29.45,6.65-31.67,7,8,11.87,8.89,22.1S2421.25,508.35,2419.41,509.87Z" fill="#b7b7b7" fill-rule="evenodd"/><path d="M2411.13,456.76l32.18-6.91c.06-.07-8.79-15.53-10.7-22.55-2-7.62-3.76-22.59-1.67-24.57s-28.55,9.8-30.72,10.38,9.26,10.92,11.24,21S2412.77,455,2411.13,456.76Z" fill="#dbdbdb" fill-rule="evenodd"/><path d="M2425.21,444c10.25-2.44,20.25,2.8,22.07,11.8s-5.38,17.76-15.74,19.44-19.9-3.65-21.59-11.9S2415,446.44,2425.21,444Z" fill="#dbdbdb" fill-rule="evenodd"/><path d="M2408.3,386.82c9.83-3.63,20.45.4,23.29,9.16s-3.28,18.26-13.41,21.14-20.19-1.33-22.8-9.31S2398.41,390.48,2408.3,386.82Z" fill="#dbdbdb" fill-rule="evenodd"/><line x1="2428.61" y1="459.58" x2="2428.61" y2="459.58" fill="#a2a2a2"/><path d="M2428.06,456.85a2.82,2.82,0,1,1-2.7,3.38A3.12,3.12,0,0,1,2428.06,456.85Z" fill="#b7b7b7" fill-rule="evenodd"/><path d="M2412.61,399.26a3.09,3.09,0,0,1,4,1.6,3.05,3.05,0,0,1-2.29,3.67,2.82,2.82,0,1,1-1.74-5.27Z" fill="#b7b7b7" fill-rule="evenodd"/><path d="M2434.11,492.5c10.41-1.42,19.87,4.86,20.73,14.13s-7.33,17.21-17.83,17.66-19.33-5.9-20.1-14.18S2423.68,493.93,2434.11,492.5Z" fill="#dbdbdb" fill-rule="evenodd"/><path d="M2435.61,505.6a2.82,2.82,0,1,1-3,3.06A3.1,3.1,0,0,1,2435.61,505.6Z" fill="#b7b7b7" fill-rule="evenodd"/><path d="M2397.77,407l31.29-10.23c0-.06-10.38-14.6-13.06-21.35-2.77-7.37-6.16-22.07-4.3-24.26s-27.33,12.83-29.43,13.64,10.39,9.86,13.44,19.68S2399.2,405.14,2397.77,407Z" fill="#b7b7b7" fill-rule="evenodd"/><path d="M2378.17,356.88l29.92-13.7c.06-.08-12-13.32-15.4-19.72-3.54-7-8.64-21.22-7-23.63S2360,315.69,2358,316.73s11.45,8.61,15.58,18S2379.41,354.83,2378.17,356.88Z" fill="#dbdbdb" fill-rule="evenodd"/><path d="M2389.15,341.38c9.45-4.62,20.38-1.65,24.11,6.78s-1.46,18.52-11.2,22.38-20.23.7-23.64-7S2379.71,346,2389.15,341.38Z" fill="#dbdbdb" fill-rule="evenodd"/><path d="M2360.05,289.32c8.81-5.73,20-4.12,24.76,3.79s.82,18.55-8.41,23.58-20,3.15-24.3-4S2351.24,295.06,2360.05,289.32Z" fill="#dbdbdb" fill-rule="evenodd"/><line x1="2395.85" y1="355.86" x2="2395.85" y2="355.86" fill="#a2a2a2"/><path d="M2394.72,353.32a2.82,2.82,0,1,1-1.91,3.88A3.1,3.1,0,0,1,2394.72,353.32Z" fill="#b7b7b7" fill-rule="evenodd"/><path d="M2367,300.5a2.82,2.82,0,1,1-1.42,4.08A3.1,3.1,0,0,1,2367,300.5Z" fill="#b7b7b7" fill-rule="evenodd"/><path d="M2408.3,386.82c9.84-3.64,20.45.4,23.29,9.16s-3.28,18.26-13.41,21.14-20.19-1.33-22.8-9.31S2398.41,390.48,2408.3,386.82Z" fill="#dbdbdb" fill-rule="evenodd"/><path d="M2412.61,399.27a2.82,2.82,0,1,1,1.74,5.27,3.11,3.11,0,0,1-4-1.61A3.08,3.08,0,0,1,2412.61,399.27Z" fill="#b7b7b7" fill-rule="evenodd"/><path d="M2354.26,311.35l28.26-16.87c0-.08-13.34-12-17.47-17.94-4.32-6.59-10.9-20.16-9.57-22.71s-23.81,18.57-25.67,19.83,12.31,7.31,17.45,16.21S2355.26,309.18,2354.26,311.35Z" fill="#b7b7b7" fill-rule="evenodd"/><path d="M2324.06,266.8l26.14-20c0-.09-14.64-10.35-19.42-15.81-5-6.05-13.18-18.76-12.15-21.47s-21.47,21.23-23.17,22.69,13.07,5.81,19.2,14.06S2324.82,264.52,2324.06,266.8Z" fill="#dbdbdb" fill-rule="evenodd"/><path d="M2331.34,249.24c8.17-6.6,19.5-6.13,25,1.26s2.7,18.38-6,24.32-19.58,5.16-24.58-1.58S2323.13,255.85,2331.34,249.24Z" fill="#dbdbdb" fill-rule="evenodd"/><path d="M2291.28,205c7.27-7.59,18.58-8.56,25-1.89s5,17.91-2.88,24.88-18.76,7.54-24.58,1.52S2284,212.64,2291.28,205Z" fill="#dbdbdb" fill-rule="evenodd"/><line x1="2341.07" y1="261.88" x2="2341.07" y2="261.88" fill="#a2a2a2"/><path d="M2339.4,259.65a2.82,2.82,0,1,1-1,4.2A3.08,3.08,0,0,1,2339.4,259.65Z" fill="#b7b7b7" fill-rule="evenodd"/><path d="M2300.61,214.34a2.82,2.82,0,1,1-.47,4.3A3.11,3.11,0,0,1,2300.61,214.34Z" fill="#b7b7b7" fill-rule="evenodd"/><path d="M2360.06,289.32c8.81-5.73,20-4.12,24.75,3.79s.82,18.55-8.41,23.58-20,3.15-24.3-4S2351.24,295.06,2360.06,289.32Z" fill="#dbdbdb" fill-rule="evenodd"/><path d="M2367,300.51a2.82,2.82,0,1,1-1.42,4.07A3.11,3.11,0,0,1,2367,300.51Z" fill="#b7b7b7" fill-rule="evenodd"/><path d="M2290.61,227.8,2314.34,205c0-.1-15.73-8.66-21.11-13.55-5.71-5.45-15.31-17.14-14.61-20s-18.81,23.6-20.33,25.26,13.66,4.22,20.67,11.72S2291.11,225.45,2290.61,227.8Z" fill="#b7b7b7" fill-rule="evenodd"/><path d="M2251.1,191.46l20.7-25.59c0-.1-16.74-6.65-22.74-10.8-6.38-4.68-17.53-15-17.27-17.88s-15.35,26-16.64,27.84,14.05,2.25,22,8.79S2251.3,189.09,2251.1,191.46Z" fill="#dbdbdb" fill-rule="evenodd"/><path d="M2254,172.7c6.36-8.37,17.53-10.59,24.65-4.63s6.94,17.3-.13,25.07-17.85,9.53-24.27,4.19S2247.64,181.07,2254,172.7Z" fill="#dbdbdb" fill-rule="evenodd"/><path d="M2204.08,139.95c4.92-9.27,15.68-13.21,23.71-8.34s9.52,16.15,3.63,24.85-16.26,12-23.33,7.74S2199.13,149.25,2204.08,139.95Z" fill="#dbdbdb" fill-rule="evenodd"/><line x1="2266.46" y1="182.69" x2="2266.46" y2="182.69" fill="#a2a2a2"/><path d="M2264.32,180.91a2.82,2.82,0,1,1,4.27,3.55,2.82,2.82,0,1,1-4.27-3.55Z" fill="#b7b7b7" fill-rule="evenodd"/><path d="M2215.55,146.48a2.82,2.82,0,1,1,.67,4.27A3.08,3.08,0,0,1,2215.55,146.48Z" fill="#b7b7b7" fill-rule="evenodd"/><path d="M2291.28,205c7.28-7.59,18.59-8.56,25-1.89s5,17.9-2.88,24.88-18.76,7.54-24.58,1.52S2284,212.64,2291.28,205Z" fill="#dbdbdb" fill-rule="evenodd"/><path d="M2300.61,214.35a2.82,2.82,0,1,1-.48,4.3A3.12,3.12,0,0,1,2300.61,214.35Z" fill="#b7b7b7" fill-rule="evenodd"/><path d="M2209.38,162.06l17-28.17c0-.12-17.61-4.37-24.24-7.57-7-3.73-19.91-12.2-20.18-15.06s-10.75,28.21-11.72,30.23,14.1-.14,22.9,5.13S2209.26,159.68,2209.38,162.06Z" fill="#b7b7b7" fill-rule="evenodd"/><path d="M2162,138.74l11.55-30.82c0-.13-18.46-1.11-25.83-2.72-4-1.06-9.65-2.94-14.57-4.78-5.14-1.86-8.13-3.6-8.64-5.05-.73-2.81-4.13,29.91-4.51,32.12-.32,1.11,3.68.27,8.13-.6s10.52-1.47,15.26.1C2152.88,130,2161.47,136.46,2162,138.74Z" fill="#dbdbdb" fill-rule="evenodd"/><path d="M2158.76,120.08c3.16-10,13.28-15.75,22.19-12.13s12.12,14.62,7.54,24.09-14.29,14.27-21.8,11.24S2155.59,130.12,2158.76,120.08Z" fill="#dbdbdb" fill-rule="evenodd"/><path d="M2100.49,107.58c2.17-10.3,10.56-17.25,18.78-15.81A14.3,14.3,0,0,1,2129,99a19.86,19.86,0,0,1,2.58,14.08,22.38,22.38,0,0,1-6.7,12.54,14.71,14.71,0,0,1-12.23,3.63C2103.75,127.73,2098.32,117.87,2100.49,107.58Z" fill="#dbdbdb" fill-rule="evenodd"/><line x1="2173.81" y1="125.61" x2="2173.81" y2="125.61" fill="#a2a2a2"/><path d="M2171.22,124.57a2.83,2.83,0,1,1,5.18,2.09,2.83,2.83,0,1,1-5.18-2.09Z" fill="#b7b7b7" fill-rule="evenodd"/><path d="M2113.29,110.06a2.79,2.79,0,1,1,2.13,3.75A3.08,3.08,0,0,1,2113.29,110.06Z" fill="#b7b7b7" fill-rule="evenodd"/><path d="M2204.08,139.95c4.92-9.27,15.68-13.21,23.71-8.34s9.52,16.15,3.63,24.85-16.27,12-23.34,7.74S2199.14,149.25,2204.08,139.95Z" fill="#dbdbdb" fill-rule="evenodd"/><path d="M2215.56,146.48a2.83,2.83,0,1,1,4.76,2.87,2.82,2.82,0,1,1-4.76-2.87Z" fill="#b7b7b7" fill-rule="evenodd"/><path d="M2113.13,126.82l5.69-32.42c0,.06-16.72,2.24-23.55.65-7.33-1.55-20.52-7.45-21-10.32s-6.54,29.47-7.12,31.64,14.55-2.13,24.64.62S2112,124.65,2113.13,126.82Z" fill="#b7b7b7" fill-rule="evenodd"/><path d="M2058,114.6l8-31.92s-17.46.94-24.67-.59c-7.66-1.81-22.17-6.88-23.11-9.61s-3.59,30-4,32.18,13.66-3.57,23.57-.65S2057.15,112.38,2058,114.6Z" fill="#dbdbdb" fill-rule="evenodd"/><path d="M2052.89,96.27c2.48-10.23,11.61-16.75,20-14.62s13.08,12,10.73,22.22-11.4,16.89-20,14.73S2050.4,106.48,2052.89,96.27Z" fill="#dbdbdb" fill-rule="evenodd"/><path d="M1994,86.31c.64-10.5,8.83-18.53,18.31-17.34s15.41,11,13.43,21.33-10.12,17.46-18.19,16.46S1993.35,96.8,1994,86.31Z" fill="#dbdbdb" fill-rule="evenodd"/><line x1="2068.28" y1="100.12" x2="2068.28" y2="100.12" fill="#a2a2a2"/><path d="M2065.61,99.45a2.8,2.8,0,1,1,1.87,3.89A3.08,3.08,0,0,1,2065.61,99.45Z" fill="#b7b7b7" fill-rule="evenodd"/><path d="M2007.16,87.54a2.83,2.83,0,1,1,2.35,3.62A3.08,3.08,0,0,1,2007.16,87.54Z" fill="#b7b7b7" fill-rule="evenodd"/><path d="M2100.49,107.59c2.17-10.29,10.56-17.25,18.79-15.81A14.27,14.27,0,0,1,2129,99a19.82,19.82,0,0,1,2.58,14.08,22.33,22.33,0,0,1-6.7,12.54,14.71,14.71,0,0,1-12.23,3.63C2103.76,127.73,2098.33,117.87,2100.49,107.59Z" fill="#dbdbdb" fill-rule="evenodd"/><path d="M2113.3,110.06a2.79,2.79,0,1,1,2.12,3.75A3.08,3.08,0,0,1,2113.3,110.06Z" fill="#b7b7b7" fill-rule="evenodd"/><path d="M2007.85,104.27,2012,71.61c-.08-.13-18,3.22-25.35,3.07-8-.46-22.94-3-24.24-5.53s1.31,30.16,1.25,32.41,13.06-5.82,23.21-4.67S2006.8,102.16,2007.85,104.27Z" fill="#b7b7b7" fill-rule="evenodd"/><path d="M1954.72,102.28l-1.15-32.89c-.06-.06-16.87,5.93-24,6.58-7.8.57-22.67-.53-24.16-3s4,29.92,4.16,32.16,12.64-7,22.93-7.15S1953.3,100.36,1954.72,102.28Z" fill="#dbdbdb" fill-rule="evenodd"/><path d="M1944.63,86.18c-.61-10.49,6.29-19.45,15.54-19.64s16.64,8.5,16.36,19-7.2,18.88-15.56,19.07S1945.24,96.69,1944.63,86.18Z" fill="#dbdbdb" fill-rule="evenodd"/><path d="M1885.37,91.82C1884,81.4,1890.07,72,1899,71s17,6.8,18,17.28-5.16,19.61-13.67,20.57S1886.73,102.25,1885.37,91.82Z" fill="#dbdbdb" fill-rule="evenodd"/><line x1="1960.57" y1="85.58" x2="1960.57" y2="85.58" fill="#a2a2a2"/><path d="M1957.78,85.64a2.82,2.82,0,1,1,2.85,3.25A3.08,3.08,0,0,1,1957.78,85.64Z" fill="#b7b7b7" fill-rule="evenodd"/><path d="M1898.4,90.23a2.81,2.81,0,1,1,3.12,3A3.09,3.09,0,0,1,1898.4,90.23Z" fill="#b7b7b7" fill-rule="evenodd"/><path d="M1994,86.31c.64-10.5,8.83-18.53,18.31-17.34s15.41,11,13.43,21.33-10.12,17.46-18.19,16.46S1993.35,96.8,1994,86.31Z" fill="#dbdbdb" fill-rule="evenodd"/><path d="M2007.16,87.54a2.82,2.82,0,1,1,2.35,3.62A3.08,3.08,0,0,1,2007.16,87.54Z" fill="#b7b7b7" fill-rule="evenodd"/><path d="M1903,106.34l-3.7-32.71s-16.12,7.13-23.21,8.14c-7.71,1-22.49.62-24-1.85s5.11,29.76,5.4,32,12.49-7.54,22.76-8.32S1901.41,104.55,1903,106.34Z" fill="#b7b7b7" fill-rule="evenodd"/><path d="M1848.48,113.71l-4.65-32.59s-15.62,7.47-22.66,8.45c-7.59,1.07-22.22.5-23.76-2s4.9,29.79,5.16,32,12.59-7.4,22.92-8.26S1846.79,112,1848.48,113.71Z" fill="#dbdbdb" fill-rule="evenodd"/><path d="M1836.77,98.67c-1.47-10.42,4.36-19.85,13-21.09s17,6.14,18.41,16.57-4.21,19.85-13,21.13S1838.23,109.08,1836.77,98.67Z" fill="#dbdbdb" fill-rule="evenodd"/><path d="M1778,106.81c-1.42-10.42,4.44-19.83,13.11-21s16.84,6.29,18.29,16.7-4.42,19.84-13.1,21S1779.43,117.23,1778,106.81Z" fill="#dbdbdb" fill-rule="evenodd"/><line x1="1852.46" y1="96.43" x2="1852.46" y2="96.43" fill="#a2a2a2"/><ellipse cx="1852.46" cy="96.43" rx="2.76" ry="3.32" transform="translate(5.32 266.7) rotate(-8.25)" fill="#b7b7b7"/><path d="M1791,105a2.8,2.8,0,1,1,3.18,2.91A3.08,3.08,0,0,1,1791,105Z" fill="#b7b7b7" fill-rule="evenodd"/><path d="M1885.37,91.82C1884,81.39,1890.08,72,1899,71s17,6.8,18,17.28-5.15,19.61-13.67,20.57S1886.74,102.25,1885.37,91.82Z" fill="#dbdbdb" fill-rule="evenodd"/><path d="M1898.41,90.23a2.81,2.81,0,1,1,3.12,3A3.08,3.08,0,0,1,1898.41,90.23Z" fill="#b7b7b7" fill-rule="evenodd"/><path d="M1796,121l-4.49-32.61s-15.69,7.4-22.74,8.37c-7.61,1.05-22.24.45-23.77-2s4.85,29.8,5.11,32,12.6-7.38,22.92-8.21S1794.3,119.29,1796,121Z" fill="#b7b7b7" fill-rule="evenodd"/><path d="M1741,128.53l-4.42-32.62s-15.71,7.38-22.76,8.34c-7.6,1-22.24.42-23.77-2s4.82,29.8,5.07,32,12.61-7.37,22.93-8.18S1739.36,126.79,1741,128.53Z" fill="#dbdbdb" fill-rule="evenodd"/><path d="M1729.41,113.42c-1.41-10.42,4.47-19.83,13.15-21s16.85,6.32,18.28,16.74-4.47,19.83-13.14,21S1730.82,123.84,1729.41,113.42Z" fill="#dbdbdb" fill-rule="evenodd"/><path d="M1670.61,121.37c-1.4-10.42,4.49-19.82,13.17-21s16.84,6.33,18.25,16.76-4.49,19.82-13.16,21S1672,131.79,1670.61,121.37Z" fill="#dbdbdb" fill-rule="evenodd"/><line x1="1745.13" y1="111.29" x2="1745.13" y2="111.29" fill="#a2a2a2"/><path d="M1742.39,111.66a2.81,2.81,0,1,1,3.18,2.91A3.08,3.08,0,0,1,1742.39,111.66Z" fill="#b7b7b7" fill-rule="evenodd"/><path d="M1683.59,119.62a2.81,2.81,0,1,1,3.18,2.92A3.09,3.09,0,0,1,1683.59,119.62Z" fill="#b7b7b7" fill-rule="evenodd"/><path d="M1778,106.81c-1.42-10.42,4.44-19.83,13.11-21s16.85,6.29,18.29,16.71-4.43,19.84-13.1,21S1779.43,117.23,1778,106.81Z" fill="#dbdbdb" fill-rule="evenodd"/><path d="M1791,105a2.8,2.8,0,1,1,3.18,2.91A3.08,3.08,0,0,1,1791,105Z" fill="#b7b7b7" fill-rule="evenodd"/><path d="M1688.54,135.63l-4.4-32.62s-15.72,7.37-22.77,8.32c-7.61,1-22.25.41-23.78-2.06s4.8,29.81,5,32,12.61-7.36,22.93-8.17S1686.87,133.89,1688.54,135.63Z" fill="#b7b7b7" fill-rule="evenodd"/><path d="M1633.6,143l-4.38-32.62s-15.72,7.36-22.77,8.31c-7.61,1-22.25.4-23.77-2.07s4.79,29.81,5,32,12.61-7.35,22.93-8.16S1631.94,141.28,1633.6,143Z" fill="#dbdbdb" fill-rule="evenodd"/><path d="M1622,127.9c-1.4-10.42,4.5-19.82,13.18-21s16.84,6.34,18.25,16.77-4.5,19.82-13.18,21S1623.41,138.32,1622,127.9Z" fill="#dbdbdb" fill-rule="evenodd"/><path d="M1563.21,135.78c-1.4-10.43,4.5-19.82,13.18-21s16.84,6.35,18.24,16.78-4.51,19.82-13.18,21S1564.6,146.21,1563.21,135.78Z" fill="#dbdbdb" fill-rule="evenodd"/><line x1="1637.73" y1="125.79" x2="1637.73" y2="125.79" fill="#a2a2a2"/><path d="M1635,126.16a2.81,2.81,0,1,1,3.18,2.92A3.09,3.09,0,0,1,1635,126.16Z" fill="#b7b7b7" fill-rule="evenodd"/><path d="M1576.18,134a2.81,2.81,0,1,1,3.17,2.92A3.08,3.08,0,0,1,1576.18,134Z" fill="#b7b7b7" fill-rule="evenodd"/><path d="M1670.62,121.37c-1.41-10.43,4.49-19.83,13.16-21s16.85,6.33,18.25,16.76-4.49,19.83-13.16,21S1672,131.79,1670.62,121.37Z" fill="#dbdbdb" fill-rule="evenodd"/><path d="M1683.6,119.62a2.81,2.81,0,1,1,3.18,2.92A3.09,3.09,0,0,1,1683.6,119.62Z" fill="#b7b7b7" fill-rule="evenodd"/><path d="M1581.11,150.06l-4.37-32.62s-15.72,7.35-22.78,8.3c-7.61,1-22.26.39-23.77-2.08s4.78,29.81,5,32,12.62-7.35,22.93-8.15S1579.45,148.31,1581.11,150.06Z" fill="#b7b7b7" fill-rule="evenodd"/><path d="M1526.17,157.41l-4.36-32.63s-15.73,7.35-22.78,8.29c-7.61,1-22.25.39-23.78-2.08s4.78,29.81,5,32,12.61-7.34,22.94-8.14S1524.51,155.66,1526.17,157.41Z" fill="#dbdbdb" fill-rule="evenodd"/><ellipse cx="1530.31" cy="140.18" rx="15.86" ry="19.05" transform="translate(-5.09 203.87) rotate(-7.61)" fill="#dbdbdb"/><path d="M1455.78,150.12c-1.38-10.43,4.52-19.82,13.2-21s16.83,6.36,18.22,16.79-4.52,19.82-13.19,21S1457.17,160.54,1455.78,150.12Z" fill="#dbdbdb" fill-rule="evenodd"/><line x1="1530.31" y1="140.18" x2="1530.31" y2="140.18" fill="#a2a2a2"/><ellipse cx="1530.31" cy="140.18" rx="2.76" ry="3.32" transform="translate(-5.08 204.13) rotate(-7.62)" fill="#b7b7b7"/><path d="M1468.76,148.39a2.81,2.81,0,1,1,3.17,2.92A3.09,3.09,0,0,1,1468.76,148.39Z" fill="#b7b7b7" fill-rule="evenodd"/><path d="M1563.21,135.78c-1.39-10.43,4.5-19.82,13.19-21s16.84,6.35,18.23,16.78-4.51,19.82-13.18,21S1564.6,146.2,1563.21,135.78Z" fill="#dbdbdb" fill-rule="evenodd"/><ellipse cx="1578.92" cy="133.67" rx="2.76" ry="3.32" transform="translate(-3.74 211.37) rotate(-7.65)" fill="#b7b7b7"/><path d="M1473.68,164.41l-4.35-32.63s-15.73,7.35-22.78,8.29c-7.61,1-22.25.38-23.78-2.09s4.77,29.81,5,32,12.62-7.34,22.94-8.14S1472,162.67,1473.68,164.41Z" fill="#b7b7b7" fill-rule="evenodd"/><path d="M1418.73,171.73l-4.35-32.63s-15.73,7.34-22.78,8.28c-7.61,1-22.25.38-23.77-2.09s4.76,29.81,5,32,12.61-7.34,22.94-8.14S1417.07,170,1418.73,171.73Z" fill="#dbdbdb" fill-rule="evenodd"/><ellipse cx="1422.88" cy="154.5" rx="15.86" ry="19.04" transform="translate(-7.95 189) rotate(-7.58)" fill="#dbdbdb"/><path d="M1348.35,164.41c-1.39-10.43,4.52-19.81,13.21-21s16.83,6.37,18.22,16.8-4.53,19.81-13.2,21S1349.74,174.84,1348.35,164.41Z" fill="#dbdbdb" fill-rule="evenodd"/><line x1="1422.88" y1="154.5" x2="1422.88" y2="154.5" fill="#a2a2a2"/><path d="M1420.14,154.86a2.81,2.81,0,1,1,3.18,2.92A3.08,3.08,0,0,1,1420.14,154.86Z" fill="#b7b7b7" fill-rule="evenodd"/><path d="M1361.33,162.68a2.81,2.81,0,1,1,3.17,2.92A3.09,3.09,0,0,1,1361.33,162.68Z" fill="#b7b7b7" fill-rule="evenodd"/><path d="M1455.78,150.12c-1.39-10.43,4.51-19.82,13.19-21s16.84,6.36,18.22,16.79-4.52,19.82-13.19,21S1457.17,160.54,1455.78,150.12Z" fill="#dbdbdb" fill-rule="evenodd"/><path d="M1468.77,148.39a2.8,2.8,0,1,1,3.16,2.92A3.08,3.08,0,0,1,1468.77,148.39Z" fill="#b7b7b7" fill-rule="evenodd"/><path d="M1366.24,178.71l-4.33-32.63s-15.74,7.34-22.79,8.28c-7.61,1-22.25.37-23.77-2.1s4.76,29.82,5,32,12.62-7.34,22.94-8.13S1364.58,177,1366.24,178.71Z" fill="#b7b7b7" fill-rule="evenodd"/><path d="M1311.29,186,1307,153.38s-15.73,7.34-22.78,8.28c-7.61,1-22.25.37-23.78-2.1s4.75,29.81,5,32,12.62-7.34,22.94-8.13S1309.64,184.26,1311.29,186Z" fill="#dbdbdb" fill-rule="evenodd"/><ellipse cx="1315.45" cy="168.78" rx="15.86" ry="19.05" transform="translate(-10.77 174.56) rotate(-7.56)" fill="#dbdbdb"/><path d="M1240.91,178.67c-1.38-10.43,4.53-19.82,13.21-21s16.83,6.37,18.21,16.8-4.53,19.81-13.2,21S1242.29,189.09,1240.91,178.67Z" fill="#dbdbdb" fill-rule="evenodd"/><line x1="1315.45" y1="168.78" x2="1315.45" y2="168.78" fill="#a2a2a2"/><ellipse cx="1315.45" cy="168.78" rx="2.76" ry="3.32" transform="matrix(0.99, -0.13, 0.13, 0.99, -10.77, 173.98)" fill="#b7b7b7"/><path d="M1253.9,176.95a2.81,2.81,0,1,1,3.17,2.92A3.08,3.08,0,0,1,1253.9,176.95Z" fill="#b7b7b7" fill-rule="evenodd"/><path d="M1348.35,164.41c-1.39-10.43,4.53-19.81,13.21-21s16.83,6.37,18.22,16.79-4.53,19.82-13.2,21S1349.74,174.83,1348.35,164.41Z" fill="#dbdbdb" fill-rule="evenodd"/><path d="M1361.34,162.68a2.8,2.8,0,1,1,3.16,2.92A3.07,3.07,0,0,1,1361.34,162.68Z" fill="#b7b7b7" fill-rule="evenodd"/><path d="M1258.8,193l-4.33-32.63s-15.74,7.34-22.79,8.27c-7.61,1-22.26.37-23.77-2.1s4.75,29.81,5,32,12.62-7.33,22.94-8.12S1257.14,191.22,1258.8,193Z" fill="#b7b7b7" fill-rule="evenodd"/><path d="M1203.85,200.26l-4.32-32.63s-15.73,7.33-22.78,8.27c-7.61,1-22.25.37-23.77-2.1s4.75,29.82,5,32,12.62-7.33,22.94-8.12S1202.2,198.51,1203.85,200.26Z" fill="#dbdbdb" fill-rule="evenodd"/><path d="M1192.29,185.11c-1.38-10.43,4.53-19.81,13.22-21s16.84,6.37,18.22,16.8-4.54,19.81-13.22,21S1193.67,195.54,1192.29,185.11Z" fill="#dbdbdb" fill-rule="evenodd"/><path d="M1133.47,192.9c-1.38-10.42,4.53-19.81,13.22-21s16.83,6.38,18.21,16.8-4.54,19.81-13.21,21S1134.85,203.33,1133.47,192.9Z" fill="#dbdbdb" fill-rule="evenodd"/><line x1="1208.01" y1="183.03" x2="1208.01" y2="183.03" fill="#a2a2a2"/><path d="M1205.27,183.39a2.81,2.81,0,1,1,3.17,2.92A3.08,3.08,0,0,1,1205.27,183.39Z" fill="#b7b7b7" fill-rule="evenodd"/><path d="M1146.46,191.18a2.81,2.81,0,1,1,3.17,2.92A3.09,3.09,0,0,1,1146.46,191.18Z" fill="#b7b7b7" fill-rule="evenodd"/><path d="M1240.92,178.67c-1.38-10.43,4.53-19.82,13.21-21s16.83,6.37,18.21,16.8-4.53,19.81-13.2,21S1242.3,189.09,1240.92,178.67Z" fill="#dbdbdb" fill-rule="evenodd"/><path d="M1253.9,176.94a2.8,2.8,0,1,1,3.16,2.93A3.08,3.08,0,0,1,1253.9,176.94Z" fill="#b7b7b7" fill-rule="evenodd"/><path d="M1151.36,207.21,1147,174.58s-15.74,7.33-22.79,8.27c-7.61,1-22.26.36-23.77-2.11s4.74,29.82,5,32,12.62-7.33,22.95-8.12S1149.7,205.46,1151.36,207.21Z" fill="#b7b7b7" fill-rule="evenodd"/><path d="M1096.41,214.48l-4.32-32.63s-15.73,7.33-22.78,8.26c-7.61,1-22.25.36-23.77-2.11s4.74,29.81,5,32,12.62-7.33,22.95-8.12S1094.75,212.73,1096.41,214.48Z" fill="#dbdbdb" fill-rule="evenodd"/><ellipse cx="1100.57" cy="197.25" rx="15.86" ry="19.05" transform="translate(-16.36 146) rotate(-7.53)" fill="#dbdbdb"/><path d="M1026,207.11c-1.38-10.43,4.53-19.81,13.22-21s16.83,6.38,18.21,16.8-4.54,19.81-13.22,21S1027.41,217.54,1026,207.11Z" fill="#dbdbdb" fill-rule="evenodd"/><line x1="1100.57" y1="197.25" x2="1100.57" y2="197.25" fill="#a2a2a2"/><ellipse cx="1100.57" cy="197.25" rx="2.76" ry="3.32" transform="translate(-16.34 145.64) rotate(-7.52)" fill="#b7b7b7"/><path d="M1039,205.4a2.81,2.81,0,1,1,3.17,2.93A3.08,3.08,0,0,1,1039,205.4Z" fill="#b7b7b7" fill-rule="evenodd"/><path d="M1133.48,192.9c-1.38-10.43,4.53-19.81,13.22-21s16.83,6.38,18.21,16.8-4.54,19.81-13.21,21S1134.86,203.33,1133.48,192.9Z" fill="#dbdbdb" fill-rule="evenodd"/><path d="M1146.46,191.18a2.8,2.8,0,1,1,3.17,2.93A3.08,3.08,0,0,1,1146.46,191.18Z" fill="#b7b7b7" fill-rule="evenodd"/><path d="M1043.91,221.42l-4.31-32.63s-15.74,7.33-22.79,8.27c-7.61,1-22.25.36-23.77-2.11s4.74,29.82,5,32,12.62-7.33,22.95-8.11S1042.26,219.68,1043.91,221.42Z" fill="#b7b7b7" fill-rule="evenodd"/><path d="M989,228.69l-4.31-32.63s-15.74,7.33-22.79,8.27c-7.61,1-22.25.36-23.78-2.11s4.74,29.82,5,32,12.62-7.33,22.95-8.11S987.31,226.94,989,228.69Z" fill="#dbdbdb" fill-rule="evenodd"/><path d="M977.41,213.54c-1.38-10.43,4.54-19.81,13.23-21s16.83,6.38,18.21,16.81-4.54,19.81-13.22,21S978.78,224,977.41,213.54Z" fill="#dbdbdb" fill-rule="evenodd"/><path d="M918.59,221.31c-1.38-10.43,4.54-19.81,13.22-21s16.83,6.38,18.21,16.81-4.54,19.81-13.22,21S920,231.73,918.59,221.31Z" fill="#dbdbdb" fill-rule="evenodd"/><line x1="993.13" y1="211.46" x2="993.13" y2="211.46" fill="#a2a2a2"/><path d="M990.39,211.82a2.81,2.81,0,1,1,3.17,2.93A3.08,3.08,0,0,1,990.39,211.82Z" fill="#b7b7b7" fill-rule="evenodd"/><path d="M931.57,219.59a2.81,2.81,0,1,1,3.17,2.93A3.08,3.08,0,0,1,931.57,219.59Z" fill="#b7b7b7" fill-rule="evenodd"/><path d="M1026,207.11c-1.38-10.43,4.54-19.81,13.22-21s16.83,6.38,18.21,16.8-4.54,19.81-13.22,21S1027.41,217.54,1026,207.11Z" fill="#dbdbdb" fill-rule="evenodd"/><path d="M1039,205.4a2.8,2.8,0,1,1,3.16,2.93A3.08,3.08,0,0,1,1039,205.4Z" fill="#b7b7b7" fill-rule="evenodd"/><path d="M936.47,235.62,932.16,203s-15.75,7.33-22.79,8.26c-7.61,1-22.26.35-23.78-2.11s4.73,29.81,5,32,12.63-7.33,22.95-8.11S934.81,233.87,936.47,235.62Z" fill="#b7b7b7" fill-rule="evenodd"/><path d="M881.51,242.88l-4.31-32.63s-15.74,7.32-22.79,8.26c-7.61,1-22.25.35-23.77-2.12s4.73,29.82,5,32,12.62-7.33,23-8.11S879.86,241.13,881.51,242.88Z" fill="#dbdbdb" fill-rule="evenodd"/><path d="M870,227.73c-1.37-10.42,4.55-19.81,13.23-21s16.83,6.38,18.21,16.81-4.54,19.81-13.22,21S871.34,238.15,870,227.73Z" fill="#dbdbdb" fill-rule="evenodd"/><path d="M811.14,235.49c-1.37-10.42,4.54-19.81,13.23-21s16.83,6.38,18.2,16.81-4.55,19.81-13.22,21S812.51,245.92,811.14,235.49Z" fill="#dbdbdb" fill-rule="evenodd"/><line x1="885.68" y1="225.65" x2="885.68" y2="225.65" fill="#a2a2a2"/><path d="M882.94,226a2.81,2.81,0,1,1,3.17,2.92A3.08,3.08,0,0,1,882.94,226Z" fill="#b7b7b7" fill-rule="evenodd"/><path d="M824.12,233.78a2.81,2.81,0,1,1,3.17,2.93A3.08,3.08,0,0,1,824.12,233.78Z" fill="#b7b7b7" fill-rule="evenodd"/><path d="M918.59,221.31c-1.38-10.43,4.54-19.81,13.22-21s16.83,6.38,18.21,16.81-4.54,19.81-13.22,21S920,231.73,918.59,221.31Z" fill="#dbdbdb" fill-rule="evenodd"/><path d="M931.58,219.59a2.81,2.81,0,1,1,3.16,2.93A3.08,3.08,0,0,1,931.58,219.59Z" fill="#b7b7b7" fill-rule="evenodd"/><path d="M829,249.8l-4.31-32.63s-15.74,7.32-22.79,8.26c-7.61,1-22.26.35-23.77-2.12s4.73,29.81,5,32,12.63-7.32,23-8.11S827.36,248.06,829,249.8Z" fill="#b7b7b7" fill-rule="evenodd"/><path d="M774.06,257.05l-4.31-32.63S754,231.74,747,232.68c-7.61,1-22.25.35-23.77-2.12s4.73,29.82,5,32,12.62-7.33,23-8.11S772.41,255.3,774.06,257.05Z" fill="#dbdbdb" fill-rule="evenodd"/><path d="M762.51,241.9c-1.37-10.42,4.55-19.81,13.24-21s16.83,6.38,18.21,16.81-4.55,19.81-13.23,21S763.89,252.33,762.51,241.9Z" fill="#dbdbdb" fill-rule="evenodd"/><path d="M703.69,249.66c-1.37-10.43,4.54-19.81,13.23-21s16.83,6.39,18.2,16.81-4.55,19.81-13.22,21S705.06,260.08,703.69,249.66Z" fill="#dbdbdb" fill-rule="evenodd"/><line x1="778.24" y1="239.83" x2="778.24" y2="239.83" fill="#a2a2a2"/><path d="M775.5,240.19a2.81,2.81,0,1,1,3.17,2.93A3.08,3.08,0,0,1,775.5,240.19Z" fill="#b7b7b7" fill-rule="evenodd"/><path d="M716.68,247.94a2.81,2.81,0,1,1,3.16,2.93A3.08,3.08,0,0,1,716.68,247.94Z" fill="#b7b7b7" fill-rule="evenodd"/><path d="M811.14,235.49c-1.37-10.42,4.54-19.81,13.23-21s16.83,6.38,18.2,16.81-4.55,19.81-13.22,21S812.52,245.92,811.14,235.49Z" fill="#dbdbdb" fill-rule="evenodd"/><path d="M824.13,233.78a2.8,2.8,0,1,1,3.16,2.93A3.08,3.08,0,0,1,824.13,233.78Z" fill="#b7b7b7" fill-rule="evenodd"/><path d="M721.57,264l-4.3-32.63s-15.75,7.32-22.8,8.26c-7.61,1-22.26.35-23.77-2.12s4.72,29.82,5,32,12.63-7.32,22.95-8.11S719.91,262.22,721.57,264Z" fill="#b7b7b7" fill-rule="evenodd"/><path d="M666.61,271.22l-4.3-32.63s-15.74,7.32-22.79,8.26c-7.61,1-22.25.35-23.77-2.12s4.73,29.82,5,32.05,12.62-7.33,23-8.1S665,269.47,666.61,271.22Z" fill="#dbdbdb" fill-rule="evenodd"/><path d="M655.07,256.06c-1.37-10.42,4.55-19.81,13.23-21s16.83,6.39,18.21,16.81-4.55,19.81-13.23,21S656.44,266.49,655.07,256.06Z" fill="#dbdbdb" fill-rule="evenodd"/><path d="M596.24,263.81c-1.37-10.43,4.54-19.81,13.23-21s16.82,6.39,18.2,16.82-4.55,19.81-13.22,20.95S597.61,274.24,596.24,263.81Z" fill="#dbdbdb" fill-rule="evenodd"/><line x1="670.79" y1="253.99" x2="670.79" y2="253.99" fill="#a2a2a2"/><ellipse cx="670.79" cy="253.99" rx="2.76" ry="3.32" transform="translate(-27.47 89.98) rotate(-7.52)" fill="#b7b7b7"/><path d="M609.23,262.1a2.81,2.81,0,1,1,3.17,2.93A3.08,3.08,0,0,1,609.23,262.1Z" fill="#b7b7b7" fill-rule="evenodd"/><path d="M703.69,249.66c-1.37-10.43,4.54-19.81,13.23-21s16.83,6.39,18.2,16.81-4.55,19.81-13.22,21S705.07,260.08,703.69,249.66Z" fill="#dbdbdb" fill-rule="evenodd"/><path d="M716.68,247.94a2.8,2.8,0,1,1,3.16,2.93A3.08,3.08,0,0,1,716.68,247.94Z" fill="#b7b7b7" fill-rule="evenodd"/><path d="M614.12,278.13l-4.3-32.64s-15.75,7.32-22.8,8.26c-7.61,1-22.26.35-23.77-2.12s4.72,29.82,5,32,12.63-7.32,22.95-8.1S612.46,276.38,614.12,278.13Z" fill="#b7b7b7" fill-rule="evenodd"/><path d="M559.16,285.37l-4.3-32.63s-15.74,7.32-22.79,8.26c-7.61,1-22.25.34-23.77-2.13s4.72,29.82,5,32,12.63-7.32,23-8.1S557.51,283.62,559.16,285.37Z" fill="#dbdbdb" fill-rule="evenodd"/><path d="M547.61,270.21c-1.37-10.42,4.55-19.81,13.24-21s16.83,6.39,18.2,16.81-4.55,19.81-13.23,21S549,280.64,547.61,270.21Z" fill="#dbdbdb" fill-rule="evenodd"/><path d="M488.79,278c-1.37-10.42,4.55-19.81,13.23-21s16.82,6.39,18.2,16.82-4.55,19.81-13.23,21S490.16,288.38,488.79,278Z" fill="#dbdbdb" fill-rule="evenodd"/><line x1="563.34" y1="268.14" x2="563.34" y2="268.14" fill="#a2a2a2"/><ellipse cx="563.34" cy="268.14" rx="2.76" ry="3.32" transform="translate(-30.23 75.97) rotate(-7.51)" fill="#b7b7b7"/><path d="M501.78,276.25a2.81,2.81,0,1,1,3.16,2.93A3.08,3.08,0,0,1,501.78,276.25Z" fill="#b7b7b7" fill-rule="evenodd"/><path d="M596.24,263.81c-1.37-10.43,4.54-19.81,13.23-21s16.82,6.39,18.2,16.81-4.55,19.81-13.22,21S597.62,274.24,596.24,263.81Z" fill="#dbdbdb" fill-rule="evenodd"/><path d="M609.23,262.1A2.8,2.8,0,1,1,612.4,265,3.08,3.08,0,0,1,609.23,262.1Z" fill="#b7b7b7" fill-rule="evenodd"/><path d="M506.66,292.28l-4.29-32.64s-15.75,7.32-22.8,8.25c-7.61,1-22.26.35-23.77-2.12s4.72,29.82,5,32,12.63-7.32,22.95-8.1S505,290.53,506.66,292.28Z" fill="#b7b7b7" fill-rule="evenodd"/><path d="M451.71,299.51l-4.29-32.64s-15.74,7.32-22.79,8.25c-7.61,1-22.25.35-23.78-2.13s4.73,29.82,5,32,12.63-7.32,23-8.1S450.05,297.76,451.71,299.51Z" fill="#dbdbdb" fill-rule="evenodd"/><path d="M440.16,284.36c-1.37-10.43,4.55-19.81,13.24-21s16.83,6.39,18.2,16.82-4.55,19.81-13.23,21S441.53,294.78,440.16,284.36Z" fill="#dbdbdb" fill-rule="evenodd"/><path d="M381.34,292.09c-1.37-10.43,4.55-19.81,13.24-21s16.82,6.39,18.2,16.82-4.56,19.81-13.23,21S382.71,302.52,381.34,292.09Z" fill="#dbdbdb" fill-rule="evenodd"/><line x1="455.89" y1="282.29" x2="455.89" y2="282.29" fill="#a2a2a2"/><path d="M453.15,282.65a2.81,2.81,0,1,1,3.17,2.93A3.08,3.08,0,0,1,453.15,282.65Z" fill="#b7b7b7" fill-rule="evenodd"/><path d="M394.32,290.38a2.81,2.81,0,1,1,3.16,2.93A3.09,3.09,0,0,1,394.32,290.38Z" fill="#b7b7b7" fill-rule="evenodd"/><path d="M488.79,278c-1.37-10.42,4.55-19.81,13.23-21s16.82,6.39,18.2,16.82-4.55,19.81-13.23,21S490.16,288.38,488.79,278Z" fill="#dbdbdb" fill-rule="evenodd"/><path d="M501.78,276.25a2.8,2.8,0,1,1,3.16,2.93A3.08,3.08,0,0,1,501.78,276.25Z" fill="#b7b7b7" fill-rule="evenodd"/><path d="M399.21,306.42l-4.29-32.64s-15.75,7.31-22.8,8.25c-7.61,1-22.26.34-23.77-2.13s4.72,29.82,5,32.05,12.63-7.32,23-8.1S397.55,304.66,399.21,306.42Z" fill="#b7b7b7" fill-rule="evenodd"/><path d="M344.25,313.64,340,281s-15.74,7.32-22.79,8.25c-7.61,1-22.25.34-23.77-2.13s4.72,29.82,5,32,12.63-7.32,23-8.1S342.6,311.89,344.25,313.64Z" fill="#dbdbdb" fill-rule="evenodd"/><path d="M332.71,298.48c-1.37-10.43,4.56-19.81,13.24-21s16.83,6.39,18.2,16.82-4.56,19.81-13.24,20.95S334.08,308.91,332.71,298.48Z" fill="#dbdbdb" fill-rule="evenodd"/><path d="M273.88,306.22c-1.37-10.43,4.55-19.81,13.24-21s16.82,6.39,18.2,16.82-4.56,19.81-13.23,20.95S275.25,316.64,273.88,306.22Z" fill="#dbdbdb" fill-rule="evenodd"/><line x1="348.43" y1="296.42" x2="348.43" y2="296.42" fill="#a2a2a2"/><path d="M345.7,296.78a2.81,2.81,0,1,1,3.17,2.93A3.08,3.08,0,0,1,345.7,296.78Z" fill="#b7b7b7" fill-rule="evenodd"/><path d="M286.87,304.51a2.81,2.81,0,1,1,3.16,2.93A3.08,3.08,0,0,1,286.87,304.51Z" fill="#b7b7b7" fill-rule="evenodd"/><path d="M381.34,292.09c-1.37-10.43,4.55-19.81,13.24-21s16.82,6.39,18.19,16.82-4.55,19.81-13.23,21S382.71,302.52,381.34,292.09Z" fill="#dbdbdb" fill-rule="evenodd"/><path d="M394.33,290.38a2.8,2.8,0,1,1,3.16,2.93A3.08,3.08,0,0,1,394.33,290.38Z" fill="#b7b7b7" fill-rule="evenodd"/><path d="M291.75,320.54l-4.29-32.63s-15.75,7.32-22.8,8.25c-7.61,1-22.26.34-23.77-2.13s4.71,29.82,5,32,12.63-7.32,23-8.09S290.1,318.79,291.75,320.54Z" fill="#b7b7b7" fill-rule="evenodd"/><path d="M236.8,327.77l-4.29-32.64s-15.75,7.31-22.79,8.25c-7.61,1-22.25.34-23.77-2.13s4.71,29.82,5,32,12.62-7.32,23-8.09S235.14,326,236.8,327.77Z" fill="#dbdbdb" fill-rule="evenodd"/><path d="M225.25,312.61c-1.37-10.43,4.56-19.81,13.25-21s16.83,6.39,18.2,16.82-4.56,19.81-13.24,20.95S226.62,323,225.25,312.61Z" fill="#dbdbdb" fill-rule="evenodd"/><path d="M166.5,322.71c-2.9-10.11,1.58-20.27,10-22.68l3.27-.67h.1l.2,0,.4,0,.81,0a13.15,13.15,0,0,1,1.6.08,13.87,13.87,0,0,1,3.09.71,16.12,16.12,0,0,1,5.53,3.4A21.85,21.85,0,0,1,195,330.16a16.08,16.08,0,0,1-4.46,4.7,14,14,0,0,1-2.81,1.49,13.33,13.33,0,0,1-1.52.49l-.79.18-.4.07-.2,0h-.2l2.35-.49C178.56,339.07,169.39,332.82,166.5,322.71Z" fill="#dbdbdb" fill-rule="evenodd"/><line x1="240.98" y1="310.54" x2="240.98" y2="310.54" fill="#a2a2a2"/><ellipse cx="240.98" cy="310.54" rx="2.76" ry="3.32" transform="translate(-38.42 34.06) rotate(-7.49)" fill="#b7b7b7"/><path d="M179.09,319.11a3.08,3.08,0,0,1,1.73-3.95l1-.19H182l.28,0a2.42,2.42,0,0,1,.54.12,2.77,2.77,0,0,1,1,.59,3.69,3.69,0,0,1,1.11,2.22c.27,1.81-.86,3.46-2.23,3.63A3.08,3.08,0,0,1,179.09,319.11Z" fill="#b7b7b7" fill-rule="evenodd"/><path d="M273.89,306.22c-1.37-10.43,4.55-19.81,13.23-21s16.82,6.39,18.19,16.82-4.56,19.81-13.23,20.95S275.26,316.64,273.89,306.22Z" fill="#dbdbdb" fill-rule="evenodd"/><path d="M286.87,304.51a2.8,2.8,0,1,1,3.16,2.93A3.08,3.08,0,0,1,286.87,304.51Z" fill="#b7b7b7" fill-rule="evenodd"/><path d="M2534.8,126.65" fill="none" stroke="#939393" stroke-miterlimit="10"/><path d="M2565.3,1.32c-11.08,2.62-23.38,13.5-35.29,22.77-46.09,35.9-132.11,103.26-185.74,144l-21.66,16.29c-13.31,9.89-22.36,16.28-24.86,17.36-25.16,10.8-44.87-8-31.88-34.15-12.92,2.73-43.77,14.9-46.68-10.25-.87-7.54,5.77-13.44,0-20.5-10.46,8.08-37.79,18.4-44.4-1.13-2.24-6.59,1.87-12.61-1.14-21.64-13.5,2.92-21,16.77-35.3,12.52-11.81-3.51-12.44-16.72-14.79-29.6-12.14,1.9-15.91,16.07-29.6,15.93-14.73-.15-17.3-14.64-22.77-28.46-11,8.63-24.35,28.08-41,15.93-6.42-4.68-4.93-15-11.38-21.63-10.41,7.32-12.45,21.39-26.18,22.77-16.62,1.67-17.22-13.19-28.46-21.63-8.61,12.52-14.35,31.47-34.16,23.91-8.59-3.28-8.52-14-18.21-18.21-6.13,14.77-10.85,31.86-28.46,29.6-12.83-1.65-11.24-14.4-22.77-17.07-4.81,16.9-8.2,35.57-27.33,33-11-1.47-10.09-12-21.63-14.8-4.2,16.75-4.85,40.61-27.33,36.43-8.2-1.52-9.34-13.52-20.5-10.25-.13,20.74-2.54,39.2-23.91,38.71-7.2-2.66-8.74-11-19.36-10.25,2,21,1.06,44.18-21.63,42.13-7.9-.72-7.73-7.4-18.21-6.84,3.09,17,8,42.48-13.67,43.27-8.95.32-11.16-7.29-21.63-3.42,4.75,14.73,12.5,41.34-9.11,44.41-6.55.93-8.11-2.85-15.94-2.28-8.61,8,4.78,18.43,4.56,28.46-.44,19.73-20.14,18.3-35.3,19.36,8.66,13.57,22.25,40.32,0,46.68-7.52,2.15-12-2.63-19.35,2.27,2,11.89,13.9,13.75,15.94,23.91,4.63,23-16.76,21-28.46,28.46,2.53,10.3,16,12.2,18.22,22.77,3.7,17.37-9.62,23.41-21.63,26.19-2.51,18,27.12,16.63,17.07,42.12-5,7.89-19.83,6-22.77,15.94,12,8.52,30.65,12.5,26.19,31.88-2.44,10.56-15.76,9-20.49,19.35,12.89,9.33,36.21,13.14,28.46,34.15-3.12,8.48-14.62,7-17.08,18.22,15.93,6.47,38,10.09,31.88,30.74-2.71,9.19-17.69,12.14-9.11,21.63,18.58.73,33.64,8.33,29.6,26.19-1.75,7.75-13.95,10.17-11.38,19.36,16.69,2.68,40.53,1.52,37.56,23.91-1.09,8.31-11.3,10.75-9.11,20.49,20.4-.46,40.72-.25,41,18.22.14,9.62-9.61,12.4-6.83,22.77,17-1.39,39.59-7,42.13,12.52,1.29,10-5.57,11.73-4.56,23.91,15.27-1.92,40.22-12.49,44.4,8,1.88,9.23-3.91,12-2.28,23.91,9.47,1.17,19.88-9.91,31.88-8,15.84,2.56,14.44,17.59,14.8,34.16,8.81,1.74,15.83-10.67,26.19-11.38,18.26-1.26,21.1,16.46,22.77,33,9.29-.51,14.43-12.65,23.91-14.8,19-4.32,24.1,14.53,26.19,29.6,13.71-2.49,13.75-16.26,26.19-18.22,23.36-3.68,17.06,17.76,28.46,26.19,11.44-4.75,11-18.1,22.77-20.49,20.15-4.12,18.93,13.52,29.6,23.91,10.57-10.16,18.79-34.81,38.72-22.77,7.21,4.36,4.47,16.15,14.8,19.35,9.53-11.35,9-32.72,34.16-28.46,8.37,3.77,7.86,16.42,18.21,18.21,7.45-9.49,5.49-22.53,14.81-28.46,15.51-9.88,22.21,5.36,35.29,12.52,6.75-16.05,6.16-39.71,29.61-34.15,8.08,1.92,7.73,12.09,19.35,12.52,2.64-18.76,4.07-39.86,23.91-37.57,7.39.85,9.2,8.5,15.94,8,2.39-1.4,4.44-3.15,6.83-4.55-4.06-19.83,3.3-34.48,18.21-34.16,9.67.21,12.86,11.33,22.77,8-2.28-18.57-5.54-42.05,15.94-42.13,9,0,11.26,7.87,21.63,4.56-5.87-19.19-9.26-42.91,11.38-44.4,7.5-.54,13.75,8.25,21.63,2.28-14-22-8.93-52.54,21.64-43.27,8.65-10.47-6-17.8-5.69-29.6.39-16.92,15.73-18.35,33-19.36-1-13.23-12.42-14.68-13.66-26.19-1-9.64,3.59-15.36,8-18.22,6-3.91,14.9,0,21.63-8-7.08-8.16-28.19-33.49-8-44.41,5.68-3.06,15.42,1,18.22-6.83-7.2-9.83-34.52-29.82-12.52-44.41,5.44-3.61,14.42-.8,17.07-9.11-5.59-8.74-15.58-8.44-20.49-15.94-14.59-22.28,11.56-27.08,18.22-37.57-7.71-7.23-18.57-7.14-23.92-14.8-15.12-21.74,13-26.06,14.81-37.57-15.93-7.68-35.44-10-29.6-31.88,2.37-8.84,19.52-11.16,10.25-21.64-17.14-1.69-30.38-8.36-28.47-23.91,1.18-9.66,14.51-11.34,13.66-22.77-7.08-2-16.54-1.68-23.91-3.42,77-62.73,140.69-114.4,215.19-173.05,23.16-18.25,56.31-38.7,59.2-70.59C2654.06,30.15,2603.18-7.64,2565.3,1.32ZM2290.92,436.24c-7.67-13.54,8.25-21.72,13.67-29.6-.15-9.71-15.71-4-22.78-6.83,7.89-11.4,20.57-18,30.61-27.28l2.41-1.93C2316,397.1,2302.95,419.19,2290.92,436.24Zm-19.35,85.39c-3.21,1.35-6.51,2.6-9.11,4.56-6.24-2.61-12.23-9.85-8-19.36,7.37-4.39,13.16-.39,18.21,3.42C2272.39,514.1,2270.89,516.78,2271.56,521.63ZM2098.51,782.35c-4.34.59-7.36,2.51-10.25,4.55-4.86-.46-5.58-5-10.25-5.7a47.34,47.34,0,0,1,1.14-13.66c8.92-5,13.49-3.74,20.5,2.28C2100.52,775.26,2097.87,777.16,2098.51,782.35ZM2078,636.62c-5.07-65.76,42.1-80.84,103.6-85.39,8.72-.65,38.84-3.94,54.66,0C2247,553.9,2265,563.93,2267,568.3c6.83,14.75-9.72,51.31-14.8,63.76-18.3,44.85-48.34,83.25-86.53,112.72-6.7,5.16-17.07,13.94-26.19,13.66-11.08-.35-29.58-19.47-35.29-29.6C2093.34,709.56,2080.25,665.63,2078,636.62Zm-2.28-356.36c-5.57-.74-5.35-.2-11.38,0-9-7.36-6.25-25.47,11.38-21.64,1.65,3.28,3.11,6.76,5.69,9.11C2080,272.39,2078.41,276.86,2075.74,280.26Zm17.08,44.4c1.75-22.08,14.73-46.11,36.43-42.13,11.64,2.13,19.21,14.6,30.74,19.36C2147.16,319.19,2119.43,340.87,2092.82,324.66Zm159.39,97.91c4.75,11.57,14.28,24.35,10.25,38.72-3.3,11.73-34.24,26.18-45.54,20.49C2209.53,451.75,2238.19,438.72,2252.21,422.57ZM2228.3,252.94c-3.88,1.69-11.23,9.36-18.82,16.48l0,0h0c-6.83,6.41-13.86,12.36-18.73,13.09-13.83,2.07-25-10.22-20.49-28.46C2187.05,249.22,2210.51,248.08,2228.3,252.94ZM2005.15,148.19c52.44.43,105.66,13.92,148,33,14.71,6.64,43.14,15.78,34.16,33-6.22,11.93-51.42,12.62-62.62,20.5-2.26-4.7,1.76-11-3.42-14.8-10.28,5.66-14.44,17.44-33,14.8-11.48-4.08-11.07-20-17.07-29.6-6.28.73-10.93,12.47-18.22,15.94-9.41-5.15-18.66-16.3-29.6-28.46C2012.16,180.14,1988.41,163.25,2005.15,148.19Zm8,208.34c-14.53,37.18-33.88,81.5-91.08,70.59-39.83-7.59-67.64-33.54-100.19-54.65-4.61-14.36-14.09-23.86-19.36-37.57,7.08-17.86,24.52-28.58,39.85-38.71,31.7-20.93,63.2-36.33,111.57-44.4,19.33-3.23,57.53-7.9,67.18,3.41,3.53,4.14,4.46,13.31,5.68,20.5,1.49,8.71,4.47,16.53,4.56,21.63C2031.64,314,2018.8,342,2013.12,356.54Zm-19.36,198.11c-29.29-.75-35.22-47.59-5.69-54.65C2033.09,489.23,2042.74,555.89,1993.76,554.64Zm31.88,141.18c15.37,32,27,59.57,15.94,99.06-38.86,13.82-84.92,7.75-127.51-5.7a248.28,248.28,0,0,1-53.51-23.91c-13.61-8-40.91-19.66-42.13-35.29-.71-9.2,12.27-31.73,17.08-37.57,13.86-16.86,59.55-47.73,82-56.93C1977,611.1,2006.37,655.76,2025.64,695.82ZM1911.79,164.13c42.5,2.85,70.51,25.05,89.94,53.51-7.49,2.25-13,3.32-18.21,1.14-9.11-3.82-8.71-18.39-17.07-21.63-6.73-.66-12.31,22.6-17.08,26.19-18.88,5.91-26.79-7.8-34.15-17.08-8.1,7.9-5.44,20.78-12.53,27.33-3.47,3.21-9,5.35-15.93,4.56-11-1.27-14-13.17-23.91-13.66-1.87,16.76-3.8,36.33-22.77,35.29-9.58-.52-11.79-9-21.64-11.38-7.69,5.1,1.59,18.37-2.28,28.46-3.46,9-12.13,11.37-22.77,10.25C1792.07,216.71,1838.13,159.19,1911.79,164.13ZM1766.06,370.21c6.66-6,15.94-4.66,21.64,1.14-1,4.29-1,9.64-2.28,13.66-8.19,5-15.2,2.58-20.5-3.42C1766.94,379.43,1765.75,374.07,1766.06,370.21Zm17.08,51.23c15.44,5.07,35.25,19.71,51.23,31.87,24.93,19,63,48.59,53.51,92.22-5.39,24.82-21.52,41.29-37.58,56.92s-33.53,30.79-52.37,42.13c-15.13-.05-28.36,6.8-42.12,6.83-18.88-19.31-32.49-61.69-35.3-103.61-3-45.56,5.08-105.21,25-127.52C1750.28,416.19,1773.3,418.21,1783.14,421.44ZM1657.9,357.68c14.83-30.22,31-54.43,53.51-80.84,11.83-13.86,29.87-43.13,49-28.46,2.68,23.39-.83,49.86-1.14,74-8.42.44-12.34-3.59-19.36-4.55-5.91,9,8.71,20.21,5.69,33-3.21,13.64-21.63,11.47-36.42,13.66-2.8,7.61,8.32,10.46,9.1,18.22-25.26,6.59-47.33,32.1-76.28,23.91C1638.87,388.76,1650.4,373,1657.9,357.68Zm-38.71,185.58c-4.43-57.6,32.3-96.18,76.28-116.13h2.28c14.54,19.23-3.68,27-25,35.29,3.28,13.07,19.17,12.14,20.49,26.19,1.4,14.92-11.69,20.61-26.19,25,.76,12.38,16.41,10.21,21.63,18.21,3.54,5.42,4.87,15.41,0,22.77-4.38,6.64-14,6-19.36,13.66,6.24,10.25,20.3,6.64,26.19,14.8,11,15.26-4.83,28.12-14.8,36.43,2.41,9.71,15.58,4.56,22.77,8,7.75,3.67,10,9.49,10.25,20.49C1664.69,635.42,1623.39,597.83,1619.19,543.26Zm152.56,281.22c-6.46.77-10.2-2.34-13.66-6.83-1.92,3.57-4.58-3.53-5.7-4.56-30.62-28-56.9-56.75-80.84-95.63-8-13.09-28.79-41.34-12.52-52.37,30,4.5,52.67,16.39,77.42,26.19,1.9,12.46-13.37,17.57-8,26.19,14.52-1.68,35.59-4.91,38.71,12.52,1.7,9.5-4.29,15.54-6.83,25,3.15,8.32,9.49.87,15.94,0C1774.7,772.63,1793,821.92,1771.75,824.48Zm25-127.51c-10.4,7.61-23.28-.63-18.21-14.81,8.1-6,15.63-3.86,20.49,3.42A105,105,0,0,1,1796.79,697ZM1854.86,870c-23.54-18.76-37.3-45.92-43.26-80.84,10.23-9.19,30.54-6,34.15,6.84,2.13,9-4.45,20.8,2.28,23.91,8.49.57,12.19-10.89,21.63-12.52,17.65-3.06,26.28,9.71,23.91,31.87,15.3,2.87,14.45-21.21,36.43-15.93,10.81,2.59,12.21,16.71,17.08,28.46,14.73-2.78,13.35-29.2,36.43-20.5,9.86,3.71,8.91,16.48,17.08,23.91,12.8-4.27,8.37-25.79,26.18-25C2001.75,889.35,1908.87,913.06,1854.86,870Zm331.31-18.21c-33.29,19.52-67.32,33.79-94.49,41-22.77,1.32-38.86,14.64-63.76,3.42-1.68-23.41,17.48-35.58,30.74-47.82,4.22-21.79,32-40,43.27-10.25,11-.58,6.18-12.38,8-19.35,5.39-21,31.93-16.24,42.13-2.28,4.28-.66,5.32-4.55,6.83-8,15.94,7.3,52.79,1.09,53.51,20.49C2212.77,840.18,2197.26,845.3,2186.17,851.8ZM2201,784.63c-14.26-27.49,12.26-49.8,34.15-31.88,12.27-3.78-3.75-14.92-2.27-28.46.64-5.9,5.54-14.15,12.52-15.94,10.27-2.63,16.79,5.59,26.19,1.15,1.87-11.7-13.15-15.46-9.11-33,3.77-11.78,21.38-11.93,34.15-11.38-.19-1.33.25-2,1.14-2.28-2.44-12.61-17.31-18-13.66-33,2.54-10.45,14.76-13.42,29.6-13.66C2359.28,697.62,2293.38,799.87,2201,784.63Zm173.05-238c-1,22-2.66,50.09-6.83,56.93-15.64,25.56-38.14-24.53-47.82-36.44,1-3.91,8.28-1.59,5.7-9.11-11.95-8.79-25.9-13.38-21.63-30.74,2.38-9.7,25-12.55,22.77-21.63-1.15-4.76-11.86-5.23-14.8-6.83-6.11-3.32-6.48-5.25-10.25-10.25,5.23-10.71,7.26-24.62,18.21-29.6,1.42-15.21,13.69-28.6,20.49-42.13,22.19-10.84,24.64,22.83,28.46,44.41A395,395,0,0,1,2374,546.68Zm195.83-441.75c-25.5-1.27-39.23-48.56-3.41-51.23,13.05-1,26.36,6.51,28.46,21.63C2597.11,91.19,2586.85,105.77,2569.86,104.93Z" fill="#b7b7b7"/><path d="M2409.68,8.53c-4.54,5.58-41.21,53.42-9.25,82.77s213.27,19.16,265.23,9.74,90.46-38.6,90.46-38.6l3-27.06-267.38,9.71L2472.92,3.42Z" fill="#666766"/><circle cx="2575.1" cy="76.52" r="31.72" fill="#939393"/></g></svg>